M48
;Layer_Color=9474304
;FILE_FORMAT=2:5
INCH,TZ
;TYPE=PLATED
T1F00S00C0.01181
T2F00S00C0.04291
T3F00S00C0.12835
%
T01
X479000Y140000
Y152000
Y162000
Y173000
Y194000
X202000Y76000
X198000Y79000
X194000Y82000
X190000Y85000
X186000Y88000
X182000Y92000
X178000Y95000
X174000Y99000
X170000Y102000
X145000Y110000
X142000Y113000
X139000Y116000
X136000Y119000
X133000Y122000
X130000Y125000
X127000Y128000
X124000Y131000
X121000Y134000
X115000
X118000Y137000
X112000Y131000
X109000Y134000
X106000Y131000
X103000Y134000
X100000Y131000
X97000Y134000
X94000Y137000
X91000Y140000
X85000Y140000
X79000
X73000
X67000
X61000
X58000Y137000
X64000
X70000
X76000
X82000
X88000
X58000Y163000
X61000Y166000
X64000Y169000
X67000Y172000
X70000Y175000
X73000Y178000
X76000Y181000
X79000Y184000
X82000Y187000
X85000Y190000
X88000Y198000
X91000Y201000
X94000Y204000
X97000Y207000
X6000Y204000
Y198000
X-25000Y180000
Y170000
Y164000
Y158000
Y151000
X-34977Y151146
Y157445
Y163744
Y170043
Y176343
Y182642
Y201539
Y207839
Y141697
Y132248
X-29000Y129000
Y136000
Y122000
X-33000Y120000
X-34977Y116500
X-29000Y113000
X-34977Y214138
Y220437
Y226736
Y233035
Y239335
Y245634
Y251933
Y258232
Y264531
Y270831
Y277130
Y280280
X-14000Y275000
Y268000
Y262000
X6000Y252000
Y246000
Y240000
Y234000
Y228000
Y222000
Y216000
Y210000
X100000
X103000Y213000
X106000Y216000
X109000Y219000
X112000Y222000
X115000Y225000
X118000Y228000
X121000Y231000
X124000Y234000
X127000Y237000
X130000Y240000
X133000Y243000
X136000Y246000
X139000Y249000
X142000Y252000
X145000Y255000
X170000Y252000
X174000Y260000
X178000Y257000
X182000Y263000
X186000Y268000
X190000Y273000
X194000Y278000
X202000Y284000
X198000Y290000
X479000Y260000
Y249000
Y238000
Y228000
Y216000
T02
X496063Y109890
Y120760
Y131630
Y142500
Y153370
Y164240
Y175110
Y185980
Y196850
Y207720
X507244Y202286
Y191415
Y180545
Y169675
Y158805
Y147935
Y137065
Y126195
Y115325
X518425Y109890
Y120760
Y131630
Y142500
Y153370
Y164240
Y175110
Y185980
Y196850
Y207720
Y218590
Y229461
Y240331
Y251201
Y262071
Y272941
Y283811
X507244Y278376
Y267506
Y256636
Y245766
Y234896
Y224026
Y213156
X496063Y218590
Y229461
Y240331
Y251201
Y262071
Y272941
Y283811
T03
X507244Y76555
Y317146
M30
