G04*
G04 #@! TF.GenerationSoftware,Altium Limited,Altium Designer,22.7.1 (60)*
G04*
G04 Layer_Color=65535*
%FSLAX25Y25*%
%MOIN*%
G70*
G04*
G04 #@! TF.SameCoordinates,B8C7CCA3-ED9D-49E0-99E8-346E39DEEBCD*
G04*
G04*
G04 #@! TF.FilePolarity,Positive*
G04*
G01*
G75*
%ADD10C,0.00787*%
%ADD11C,0.00020*%
%ADD12C,0.01000*%
G36*
X405419Y167389D02*
X405974Y167159D01*
X406450Y166794D01*
X406451Y166793D01*
X406451Y166793D01*
X406817Y166317D01*
X407047Y165762D01*
X407099Y165361D01*
X407125Y165166D01*
Y164966D01*
Y133610D01*
X407108Y133415D01*
X407108Y133415D01*
X407177Y133069D01*
X407373Y132776D01*
X407375Y132774D01*
X407666Y132580D01*
X408012Y132511D01*
X408017Y132512D01*
X408212Y132527D01*
X417102D01*
X417105Y132524D01*
Y132524D01*
X417105Y132524D01*
X417433Y132459D01*
X417714Y132271D01*
X417903Y131989D01*
X417931Y131845D01*
X417965Y131657D01*
X417967Y131649D01*
X417935Y131470D01*
X417903Y131308D01*
X417720Y131036D01*
X417564Y130926D01*
X417433Y130839D01*
X417105Y130773D01*
X417105D01*
X417102Y130770D01*
X407689D01*
Y130770D01*
X407097Y130848D01*
X406541Y131079D01*
X406063Y131445D01*
X405697Y131923D01*
X405466Y132479D01*
X405414Y132880D01*
X405388Y133075D01*
X405388Y133276D01*
Y164843D01*
X405405Y164843D01*
X405336Y165191D01*
X405139Y165486D01*
X404844Y165683D01*
X404500Y165751D01*
X404500Y165735D01*
X404500Y165735D01*
X378544D01*
X378544Y165735D01*
X378544Y165751D01*
X378201Y165683D01*
X377906Y165486D01*
X377709Y165191D01*
X377640Y164843D01*
X377640Y164843D01*
X377656Y164648D01*
Y133096D01*
X377656Y133096D01*
X377654Y133096D01*
X377657Y133075D01*
X377578Y132479D01*
X377348Y131922D01*
X376990Y131457D01*
X376839Y131336D01*
X376504Y131079D01*
X375948Y130848D01*
X375359Y130771D01*
X375359Y130770D01*
X352965D01*
Y130773D01*
X352634Y130839D01*
X352510Y130921D01*
X352352Y131027D01*
X352164Y131308D01*
X352098Y131640D01*
X352164Y131972D01*
X352247Y132096D01*
X352352Y132254D01*
X352634Y132442D01*
X352965Y132508D01*
Y132511D01*
X374833D01*
X375028Y132495D01*
X375032Y132494D01*
X375378Y132563D01*
X375672Y132759D01*
X375868Y133052D01*
X375937Y133398D01*
X375920D01*
Y164966D01*
X375920Y165166D01*
X375945Y165358D01*
X375998Y165762D01*
X376228Y166317D01*
X376593Y166793D01*
X376594Y166793D01*
X376594Y166794D01*
X377070Y167159D01*
X377625Y167389D01*
X378220Y167467D01*
X378221Y167467D01*
X404823D01*
X404824Y167467D01*
X405419Y167389D01*
D02*
G37*
G36*
X343512Y167467D02*
X368268D01*
X368270Y167450D01*
X368339Y167460D01*
X368625Y167422D01*
X368891Y167312D01*
X369120Y167136D01*
X369295Y166908D01*
X369405Y166642D01*
X369443Y166356D01*
X369405Y166070D01*
X369295Y165804D01*
X369178Y165651D01*
X369191Y165639D01*
X369191Y165638D01*
X344056Y131620D01*
X344029Y131616D01*
X344029D01*
X343848Y131381D01*
X343416Y131049D01*
X342913Y130841D01*
X342462Y130781D01*
X342462D01*
X342451Y130770D01*
X316779D01*
Y130770D01*
X316187Y130848D01*
X315631Y131079D01*
X315153Y131445D01*
X314787Y131923D01*
X314557Y132479D01*
X314504Y132880D01*
X314478Y133075D01*
X314478D01*
Y133276D01*
Y166425D01*
X314481D01*
X314547Y166757D01*
X314735Y167039D01*
X314893Y167144D01*
X315017Y167227D01*
X315155Y167254D01*
X315349Y167292D01*
Y167292D01*
X315676Y167227D01*
X315958Y167039D01*
X316146Y166757D01*
X316212Y166425D01*
X316215Y166425D01*
Y133614D01*
X316198Y133420D01*
Y133420D01*
X316267Y133073D01*
X316463Y132780D01*
X316465Y132779D01*
X316465D01*
X316757Y132584D01*
X317103Y132515D01*
X317107Y132516D01*
X317302Y132532D01*
X342463D01*
X342466Y132532D01*
X342531Y132545D01*
X342656Y132629D01*
X342656Y132629D01*
X342656Y132633D01*
X366690Y165201D01*
X366814Y165357D01*
X366875Y165504D01*
X366876Y165506D01*
X366799Y165690D01*
X366615Y165767D01*
X366613Y165766D01*
X366610Y165765D01*
X366415Y165748D01*
X343839D01*
Y165764D01*
X343492Y165695D01*
X343197Y165498D01*
X343000Y165203D01*
X342931Y164856D01*
X342947Y164839D01*
Y142248D01*
X342947Y142248D01*
X342944Y142248D01*
X342945Y142244D01*
X342879Y141913D01*
X342692Y141633D01*
X342412Y141446D01*
X342081Y141380D01*
Y141380D01*
X341891Y141418D01*
X341749Y141446D01*
X341468Y141634D01*
X341362Y141792D01*
X341280Y141916D01*
X341214Y142248D01*
X341211D01*
Y165166D01*
X341211Y165167D01*
X341289Y165762D01*
X341519Y166317D01*
X341884Y166793D01*
X341885Y166793D01*
X341885Y166794D01*
X342361Y167159D01*
X342916Y167389D01*
X343511Y167467D01*
X343512Y167467D01*
D02*
G37*
G36*
X346559Y120069D02*
X347764Y119864D01*
X348657Y119607D01*
X348673Y119615D01*
X349516Y119265D01*
X350315Y118775D01*
X350907Y118270D01*
X351048Y118130D01*
X351525Y117572D01*
X351994Y116806D01*
X352338Y115975D01*
X352384Y115785D01*
X352378Y115784D01*
X352544Y115210D01*
X352747Y114016D01*
X352815Y112806D01*
X352807Y112679D01*
X352816Y112679D01*
X352816Y112679D01*
Y99607D01*
X350740D01*
Y101772D01*
Y101958D01*
X350740Y102181D01*
X350737Y102188D01*
X350710Y102202D01*
X350539Y102047D01*
X350401Y101922D01*
X350325Y101854D01*
X349212Y101028D01*
X348616Y100671D01*
X348616D01*
X348444Y100564D01*
X347666Y100134D01*
X346818Y99783D01*
X346628Y99714D01*
X346443Y99651D01*
X345859Y99453D01*
X344892Y99261D01*
X344691Y99239D01*
X344173Y99162D01*
X342940Y99101D01*
X342740Y99097D01*
X342541Y99103D01*
X341701Y99158D01*
X340738Y99349D01*
X340274Y99507D01*
X340084Y99572D01*
X339483Y99821D01*
X338695Y100303D01*
X338303Y100638D01*
X338303Y100638D01*
X338059Y100846D01*
X337520Y101477D01*
X337087Y102184D01*
X336992Y102414D01*
X336992D01*
X336915Y102598D01*
X336762Y102968D01*
X336563Y103794D01*
X336507Y104514D01*
X336506Y104715D01*
X336506D01*
X336501Y104779D01*
X336497Y104916D01*
X336567Y105815D01*
X336788Y106733D01*
X337150Y107606D01*
X337644Y108412D01*
X338257Y109131D01*
X338976Y109745D01*
X339457Y110039D01*
X339620Y110149D01*
X339799Y110269D01*
X340569Y110649D01*
X340755Y110727D01*
X341301Y110953D01*
X341493Y111012D01*
X341975Y111185D01*
X342289Y111264D01*
Y111264D01*
X342290Y111265D01*
X342950Y111430D01*
X343147Y111471D01*
Y111471D01*
X343795Y111614D01*
X344062Y111649D01*
X344063Y111651D01*
X344838Y111753D01*
X345038Y111776D01*
X345237Y111800D01*
X345871Y111875D01*
X345873Y111875D01*
X346072Y111884D01*
X346272Y111897D01*
X346966Y111922D01*
X347167Y111929D01*
X347368Y111935D01*
X348306Y111966D01*
X348321Y111966D01*
Y111967D01*
X350716Y111967D01*
X350716D01*
X350717Y111967D01*
X350724Y111970D01*
X350725Y111971D01*
X350739Y111978D01*
X350744Y112089D01*
Y112089D01*
X350740Y112159D01*
X350677Y113604D01*
X350598Y114209D01*
X350575Y114409D01*
X350564Y114559D01*
X350552Y114609D01*
X350404Y115225D01*
X350142Y115857D01*
X349844Y116343D01*
X349720Y116493D01*
X349480Y116786D01*
X348911Y117253D01*
X348346Y117555D01*
X348262Y117600D01*
X348160Y117631D01*
X348159Y117631D01*
X348156Y117624D01*
X347534Y117835D01*
X346487Y118043D01*
X345423Y118113D01*
X345303Y118105D01*
X345102Y118107D01*
X345075Y118108D01*
X344904Y118100D01*
X344023Y118056D01*
X343823Y118044D01*
X343525Y118027D01*
Y118027D01*
X343481Y118022D01*
X343329Y117996D01*
X343065Y117951D01*
X343057Y117957D01*
X342803Y117907D01*
X342620Y117870D01*
X342619Y117871D01*
X342617Y117870D01*
X342431Y117833D01*
X342201Y117787D01*
X342192Y117772D01*
X342007Y117727D01*
X341851Y117690D01*
X341816Y117675D01*
X341816Y117673D01*
X341465Y117527D01*
Y117527D01*
X341132Y117389D01*
X341137Y117379D01*
X340834Y117217D01*
Y117217D01*
X340714Y117151D01*
X340667Y117113D01*
X340170Y116705D01*
X339723Y116161D01*
X339391Y115540D01*
X339187Y114867D01*
X339156Y114549D01*
X337276D01*
X337167Y114665D01*
X337145Y114750D01*
X337278Y115421D01*
X337317Y115612D01*
X337366Y115807D01*
X337467Y116104D01*
X337458Y116124D01*
X337565Y116383D01*
X337642Y116568D01*
X337642D01*
X337792Y116930D01*
X338222Y117631D01*
X338729Y118226D01*
X339202Y118629D01*
X339356Y118753D01*
X339519Y118855D01*
X340018Y119160D01*
X340204Y119239D01*
X340491Y119380D01*
X340654Y119442D01*
X340679Y119450D01*
X340867Y119515D01*
X341196Y119627D01*
X341196Y119627D01*
X341515Y119736D01*
X341748Y119782D01*
X341943Y119832D01*
X342340Y119899D01*
Y119899D01*
X342340Y119900D01*
X342769Y119972D01*
X342968Y119998D01*
X343359Y120056D01*
X343635Y120070D01*
X343636Y120071D01*
X344139Y120096D01*
X344339Y120105D01*
X344880Y120129D01*
X345082Y120123D01*
X345339Y120138D01*
X346559Y120069D01*
D02*
G37*
G36*
X333494Y120100D02*
X333513Y118199D01*
X333364Y118063D01*
X333101Y118089D01*
X332923Y118107D01*
X332900Y118105D01*
X332704Y118090D01*
X332338D01*
X332141Y118102D01*
X332134Y118102D01*
X331946Y118087D01*
X331463Y118050D01*
X330808Y117892D01*
X330412Y117728D01*
X330409Y117735D01*
X329657Y117364D01*
X328975Y116909D01*
X328843Y116820D01*
X328812Y116793D01*
X328673Y116686D01*
X327843Y115945D01*
X327547Y115614D01*
X327413Y115464D01*
X327413Y115464D01*
X327413Y115463D01*
X327279Y115313D01*
X327022Y115026D01*
X326385Y114128D01*
X326361Y114093D01*
X326284Y113956D01*
X326291Y113951D01*
X326289Y113946D01*
Y99607D01*
X324213D01*
Y119621D01*
X326289D01*
Y117306D01*
X326289Y117120D01*
Y116878D01*
X326288Y116877D01*
X326289Y116871D01*
Y116866D01*
X326292Y116859D01*
X326300Y116856D01*
X326300Y116855D01*
X326319Y116851D01*
X326491Y117043D01*
X326615Y117182D01*
X326962Y117571D01*
X327864Y118377D01*
X328073Y118525D01*
X328234Y118646D01*
X329022Y119173D01*
X329748Y119531D01*
X329748Y119531D01*
X330390Y119797D01*
X331310Y120018D01*
X331318Y120012D01*
X331547Y120058D01*
X332695Y120133D01*
X332695D01*
X332699Y120137D01*
X333085D01*
X333494Y120100D01*
D02*
G37*
G36*
X436020Y120066D02*
X436929Y119847D01*
X437793Y119490D01*
X438062Y119325D01*
X438233Y119220D01*
X438402Y119112D01*
X438960Y118635D01*
X439479Y118028D01*
X439897Y117347D01*
X440178Y116668D01*
X440185Y116651D01*
X440204Y116604D01*
X440236Y116470D01*
X440281Y116460D01*
X440503Y116792D01*
X441308Y117710D01*
X441929Y118255D01*
X441928Y118256D01*
X442141Y118443D01*
X443072Y119065D01*
X443699Y119375D01*
X443698Y119376D01*
X443966Y119508D01*
X444935Y119837D01*
X445505Y119950D01*
X445506Y119952D01*
X446212Y120072D01*
X447072Y120120D01*
X447270Y120131D01*
Y120131D01*
X447274Y120131D01*
X447470Y120129D01*
X448378Y120058D01*
X449098Y119885D01*
X449284Y119840D01*
X449467Y119767D01*
X449943Y119569D01*
X450117Y119468D01*
X450117D01*
X450553Y119201D01*
X451095Y118737D01*
X451559Y118195D01*
X451867Y117692D01*
X451954Y117510D01*
X452180Y117053D01*
X452345Y116567D01*
X452345Y116567D01*
X452345Y116567D01*
X452494Y116126D01*
X452585Y115674D01*
X452624Y115478D01*
X452659Y115280D01*
X452774Y114601D01*
X452794Y114242D01*
X452809Y114042D01*
X452865Y112903D01*
X452863Y112859D01*
X452865Y112859D01*
X452890Y99749D01*
X452747Y99607D01*
X450814D01*
Y112484D01*
X450830Y112679D01*
X450832Y112709D01*
X450823Y112877D01*
X450780Y113763D01*
X450767Y113964D01*
X450750Y114259D01*
X450715Y114452D01*
X450703Y114521D01*
X450675Y114720D01*
X450675D01*
X450589Y115149D01*
X450550Y115346D01*
X450526Y115469D01*
X450498Y115550D01*
X450450Y115729D01*
X450447Y115743D01*
X450447Y115743D01*
X450442Y115761D01*
X450378Y115915D01*
X450377Y115915D01*
X450240Y116247D01*
X450245Y116250D01*
X450085Y116549D01*
X450085D01*
X450085Y116549D01*
X449975Y116755D01*
X449920Y116822D01*
X449920Y116822D01*
X449918Y116821D01*
X449652Y117145D01*
X449406Y117346D01*
X449401Y117350D01*
X449396Y117355D01*
X449262Y117465D01*
X449251Y117474D01*
Y117474D01*
X449141Y117533D01*
X448967Y117625D01*
X448967Y117625D01*
X448964Y117627D01*
X448964D01*
X448718Y117759D01*
X448663Y117777D01*
X448515Y117822D01*
X448326Y117879D01*
X448327Y117884D01*
X447967Y117970D01*
X447967Y117971D01*
X447782Y118015D01*
X447750Y118023D01*
X447583Y118037D01*
Y118037D01*
X447172Y118069D01*
X446971Y118081D01*
X446743Y118096D01*
X446737Y118096D01*
Y118096D01*
X446546Y118079D01*
X445881Y118026D01*
X444973Y117808D01*
X444112Y117452D01*
X443480Y117065D01*
X443477Y117070D01*
X442495Y116342D01*
X441537Y115473D01*
X440669Y114515D01*
X440417Y114176D01*
X440418Y114175D01*
X440415Y114168D01*
Y99598D01*
X438339D01*
Y112479D01*
X438347Y112679D01*
X438356Y112856D01*
X438355Y112878D01*
X438291Y114177D01*
X438149Y115136D01*
X438153Y115136D01*
X438137Y115292D01*
X438125Y115334D01*
X437900Y116076D01*
X437592Y116652D01*
X437513Y116799D01*
X437490Y116827D01*
X437490Y116827D01*
X437480Y116821D01*
X437206Y117154D01*
X436786Y117499D01*
X436400Y117705D01*
X436306Y117756D01*
X436215Y117783D01*
X436030Y117858D01*
X436022Y117861D01*
X435255Y118045D01*
X434522Y118103D01*
X434469Y118107D01*
X434321Y118103D01*
Y118103D01*
X433509Y118039D01*
X432673Y117838D01*
X431878Y117509D01*
X431177Y117079D01*
X431184Y117069D01*
X430436Y116514D01*
X429369Y115547D01*
X428403Y114480D01*
X428184Y114186D01*
X428187Y114183D01*
X428184Y114177D01*
Y114177D01*
Y99607D01*
X426108D01*
Y119621D01*
X428184D01*
Y117090D01*
X428184Y116904D01*
Y116657D01*
X428187Y116649D01*
X428188Y116649D01*
X428195Y116646D01*
X428195Y116646D01*
X428196Y116646D01*
X428216Y116639D01*
X428386Y116826D01*
X428386D01*
X428511Y116964D01*
X428846Y117334D01*
X429821Y118218D01*
X430180Y118484D01*
Y118484D01*
X430184Y118506D01*
X431152Y119153D01*
X431919Y119531D01*
X431920Y119531D01*
X431920D01*
X432570Y119801D01*
X433463Y120015D01*
X433478Y120005D01*
X433877Y120073D01*
X434691Y120119D01*
X434893Y120124D01*
Y120124D01*
X435088Y120139D01*
X436020Y120066D01*
D02*
G37*
G36*
X390885Y120126D02*
X391086Y120129D01*
X392062Y120074D01*
X393104Y119897D01*
X394121Y119604D01*
X394607Y119402D01*
X394624Y119409D01*
X395470Y118992D01*
X396305Y118434D01*
X397061Y117771D01*
X397437Y117342D01*
X397437Y117342D01*
X397751Y116984D01*
X398432Y115966D01*
X398974Y114867D01*
X399251Y114051D01*
X399251Y114051D01*
X399251D01*
X399261Y114045D01*
X399597Y112704D01*
X399825Y111169D01*
X399901Y109620D01*
X399825Y108071D01*
X399597Y106536D01*
X399262Y105196D01*
X399249Y105189D01*
X399249D01*
X399148Y104839D01*
X398740Y103855D01*
X398225Y102922D01*
X397608Y102053D01*
X397448Y101874D01*
X397445Y101877D01*
X397078Y101458D01*
X396316Y100790D01*
X395474Y100227D01*
X394627Y99810D01*
X394613Y99815D01*
X394250Y99665D01*
X393166Y99353D01*
X392054Y99164D01*
X390929Y99101D01*
X389803Y99164D01*
X388691Y99353D01*
X387607Y99665D01*
X387245Y99815D01*
X387227Y99809D01*
X386371Y100231D01*
X385551Y100779D01*
X384810Y101429D01*
X384429Y101864D01*
X384426Y101862D01*
X384250Y102059D01*
X383627Y102937D01*
X383106Y103879D01*
X382694Y104873D01*
X382607Y105176D01*
X382594Y105183D01*
X382251Y106553D01*
X382024Y108086D01*
X381948Y109633D01*
X382024Y111179D01*
X382251Y112712D01*
X382594Y114083D01*
X382606Y114089D01*
Y114089D01*
X382885Y114910D01*
X383424Y116004D01*
X384102Y117019D01*
X384415Y117376D01*
X384416Y117375D01*
X384772Y117781D01*
X385530Y118446D01*
X386369Y119007D01*
X387240Y119436D01*
X387240Y119436D01*
Y119436D01*
X387242Y119441D01*
X388360Y119820D01*
X389557Y120058D01*
X390683Y120132D01*
X390885Y120126D01*
D02*
G37*
G36*
X296993Y111458D02*
X296993Y111458D01*
X296983Y111458D01*
X296994Y111178D01*
X296918Y109232D01*
X296689Y107298D01*
X296479Y106244D01*
X296481Y106243D01*
X296428Y105929D01*
X296132Y104903D01*
X295724Y103917D01*
X295208Y102982D01*
X294766Y102361D01*
X294766D01*
X294766Y102361D01*
X294767Y102352D01*
X294194Y101698D01*
X293442Y101039D01*
X292611Y100483D01*
X291714Y100041D01*
X291431Y99945D01*
X291430Y99947D01*
X290780Y99715D01*
X289389Y99366D01*
X287971Y99156D01*
X286539Y99086D01*
X286104Y99107D01*
X286102Y99103D01*
X285792Y99088D01*
X284253Y99164D01*
X282729Y99390D01*
X281746Y99636D01*
X281726Y99625D01*
X280610Y100004D01*
X279524Y100539D01*
X278905Y100953D01*
X278740Y101063D01*
X278740D01*
X278578Y101182D01*
X277944Y101738D01*
X277333Y102435D01*
X276847Y103163D01*
X276850Y103176D01*
Y103176D01*
X276850D01*
X276460Y103882D01*
X276007Y104975D01*
X275783Y105753D01*
X275784Y105754D01*
X275784D01*
X275784Y105754D01*
X275565Y106627D01*
X275354Y108051D01*
X275327Y108594D01*
X275308Y108611D01*
X275264Y109457D01*
X275276Y109470D01*
X275276D01*
X275276Y109470D01*
X275257Y110132D01*
X275252Y110333D01*
X275251D01*
X275226Y111182D01*
X275218Y111190D01*
X275217Y111462D01*
Y127895D01*
X277293D01*
Y111544D01*
X277291Y111542D01*
X277291D01*
X277291Y111542D01*
X277269Y111049D01*
X277343Y109351D01*
X277565Y107667D01*
X277873Y106275D01*
X277873Y106275D01*
X277896Y106160D01*
X277923Y106081D01*
X278201Y105261D01*
X278621Y104410D01*
X279149Y103620D01*
X279602Y103103D01*
X279592Y103092D01*
X280294Y102492D01*
X281084Y102008D01*
X281939Y101654D01*
X282179Y101597D01*
X282374Y101549D01*
X282939Y101407D01*
X284439Y101185D01*
X285953Y101110D01*
X286115Y101117D01*
X286264Y101110D01*
X286315Y101112D01*
X287822Y101187D01*
X289365Y101415D01*
X289894Y101548D01*
X289894Y101549D01*
X289894Y101550D01*
X290357Y101661D01*
X291181Y102002D01*
X291941Y102468D01*
X292528Y102969D01*
X292619Y103047D01*
X292672Y103109D01*
X292665Y103117D01*
X292665Y103117D01*
X292665Y103118D01*
X292794Y103265D01*
X293045Y103551D01*
X293584Y104357D01*
X294012Y105226D01*
X294306Y106093D01*
X294324Y106144D01*
X294353Y106288D01*
X294351Y106289D01*
X294641Y107600D01*
X294866Y109308D01*
X294941Y111029D01*
X294919Y111542D01*
Y111542D01*
X294917Y111544D01*
Y127895D01*
X296993D01*
Y111458D01*
D02*
G37*
G36*
X407040Y117089D02*
X407040Y116903D01*
Y116903D01*
X407041Y116657D01*
X407044Y116649D01*
X407052Y116646D01*
X407052Y116646D01*
X407073Y116638D01*
X407242Y116826D01*
X407366Y116965D01*
X407675Y117311D01*
X408734Y118257D01*
X409005Y118450D01*
X409007Y118459D01*
X409850Y119023D01*
X410672Y119428D01*
X410851Y119512D01*
X411038Y119579D01*
X411812Y119842D01*
X412372Y119954D01*
X412570Y119988D01*
X413064Y120072D01*
X413915Y120120D01*
X414114Y120128D01*
Y120128D01*
X414144Y120130D01*
X414314Y120129D01*
X415257Y120067D01*
X416156Y119888D01*
X416350Y119833D01*
X416542Y119784D01*
X417284Y119476D01*
Y119476D01*
X417284Y119476D01*
X417286Y119477D01*
X417949Y119071D01*
X418548Y118559D01*
X419060Y117959D01*
X419472Y117287D01*
X419692Y116757D01*
X419757Y116567D01*
X419980Y115908D01*
X420066Y115477D01*
X420108Y115280D01*
X420247Y114462D01*
X420259Y114242D01*
X420259D01*
X420275Y114042D01*
X420332Y112893D01*
X420330Y112859D01*
X420333Y112859D01*
X420333Y112859D01*
Y99607D01*
X418257D01*
Y112480D01*
X418266Y112679D01*
X418274Y112826D01*
X418271Y112879D01*
X418208Y114003D01*
X418021Y115101D01*
X418021Y115101D01*
X417812Y115791D01*
X417435Y116495D01*
X417328Y116626D01*
X417201Y116781D01*
X417202Y116782D01*
X417052Y116965D01*
X416535Y117389D01*
X415944Y117704D01*
X415930Y117709D01*
X415742Y117783D01*
X415719Y117792D01*
X415547Y117834D01*
X414724Y118031D01*
X413730Y118109D01*
X413704Y118112D01*
X413530Y118105D01*
Y118105D01*
X412620Y118033D01*
X411696Y117812D01*
X410819Y117448D01*
X410224Y117084D01*
X410217Y117095D01*
X410193Y117080D01*
X410054Y116977D01*
X408988Y116186D01*
X407876Y115178D01*
X407025Y114239D01*
X407031Y114234D01*
X407028Y114227D01*
Y99607D01*
X404952D01*
Y127895D01*
X407028D01*
X407040Y117089D01*
D02*
G37*
G36*
X378126Y125141D02*
X359097Y101999D01*
X358978Y101855D01*
Y101855D01*
X358827Y101671D01*
X358826Y101668D01*
X358825Y101664D01*
X358825Y101664D01*
X358825Y101663D01*
X358825Y101663D01*
X358826Y101660D01*
X358828Y101657D01*
X358828Y101656D01*
X358829Y101656D01*
X358829Y101656D01*
X358832Y101655D01*
X358836Y101654D01*
X359073D01*
X359260Y101654D01*
X378663D01*
Y99607D01*
X356732D01*
Y102332D01*
X375729Y125499D01*
X375847Y125643D01*
X375997Y125826D01*
X375998Y125830D01*
X376000Y125833D01*
X375999Y125834D01*
X376000Y125834D01*
X375998Y125837D01*
X375996Y125841D01*
X375996Y125841D01*
X375996Y125841D01*
X375996Y125842D01*
X375992Y125843D01*
X375989Y125844D01*
X358427D01*
Y127895D01*
X378126D01*
Y125141D01*
D02*
G37*
G36*
X306375Y99607D02*
X304299D01*
Y127895D01*
X306375D01*
Y99607D01*
D02*
G37*
G36*
X315921Y119636D02*
X315924Y119628D01*
X315932Y119625D01*
X319232D01*
Y117578D01*
X315932D01*
X315924Y117575D01*
X315921Y117567D01*
Y105141D01*
X315914Y105135D01*
X315914D01*
X315914Y105135D01*
X315901Y104931D01*
X315974Y103813D01*
X316106Y103152D01*
X316095Y103150D01*
X316240Y102670D01*
X316478Y102225D01*
X316653Y102011D01*
X316654Y102010D01*
X316654Y102010D01*
X316654Y102010D01*
X316651Y102007D01*
X316709Y101931D01*
X316792Y101868D01*
X317054Y101667D01*
X317366Y101538D01*
X317456Y101500D01*
X317557Y101487D01*
X317751Y101442D01*
X317822Y101425D01*
X318571Y101366D01*
X318704Y101355D01*
X318773Y101361D01*
X318970Y101372D01*
X319268D01*
X319353Y101373D01*
X319398Y101373D01*
X319399Y101373D01*
X319444Y101374D01*
X319444Y101374D01*
X319533Y101376D01*
X319540Y101375D01*
X319649Y101299D01*
X319726Y101200D01*
X319723Y99425D01*
X319467Y99398D01*
X319290Y99382D01*
X319112Y99367D01*
X319048Y99362D01*
X318846Y99366D01*
X318582Y99348D01*
X318582Y99348D01*
X318381Y99326D01*
X318317Y99324D01*
X318317D01*
X318228Y99323D01*
X318155Y99322D01*
X317962Y99337D01*
X317752Y99320D01*
X316932Y99385D01*
X316132Y99577D01*
X315796Y99716D01*
X315784Y99711D01*
X315365Y99936D01*
X314968Y100261D01*
X314642Y100658D01*
X314552Y100827D01*
X314552D01*
X314453Y101002D01*
X314197Y101621D01*
X314020Y102358D01*
X313994Y102687D01*
X313993Y102687D01*
X313916Y103334D01*
X313846Y105126D01*
X313853Y105310D01*
X313845Y105311D01*
X313845Y105311D01*
Y117563D01*
X313842Y117571D01*
X313834Y117574D01*
X311264D01*
Y119621D01*
X313834D01*
X313842Y119624D01*
X313845Y119632D01*
Y124874D01*
X315921D01*
Y119636D01*
D02*
G37*
G36*
X377362Y87113D02*
Y75000D01*
D01*
Y62900D01*
Y52000D01*
X377362D01*
Y40189D01*
X275000D01*
Y51189D01*
Y63000D01*
Y74895D01*
D01*
Y87113D01*
X377362D01*
D02*
G37*
G36*
X421678Y73649D02*
X421058D01*
Y74357D01*
X421678D01*
Y73649D01*
D02*
G37*
G36*
X432831Y72964D02*
X433437D01*
Y72454D01*
X432729D01*
X432474Y71200D01*
X433437D01*
Y70690D01*
X432365D01*
X432073Y69224D01*
X431556D01*
X431855Y70690D01*
X430776D01*
X430477Y69224D01*
X429967D01*
X430258Y70690D01*
X429682D01*
Y71200D01*
X430368D01*
X430623Y72454D01*
X429682D01*
Y72964D01*
X430725D01*
X431031Y74444D01*
X431541D01*
X431242Y72964D01*
X432314D01*
X432620Y74444D01*
X433138D01*
X432831Y72964D01*
D02*
G37*
G36*
X412048Y74437D02*
X412099D01*
X412237Y74422D01*
X412390Y74400D01*
X412551Y74364D01*
X412726Y74320D01*
X412886Y74262D01*
X412893D01*
X412908Y74255D01*
X412930Y74240D01*
X412959Y74225D01*
X413032Y74189D01*
X413127Y74123D01*
X413236Y74050D01*
X413345Y73956D01*
X413447Y73846D01*
X413542Y73722D01*
Y73715D01*
X413550Y73708D01*
X413564Y73686D01*
X413579Y73664D01*
X413615Y73591D01*
X413659Y73496D01*
X413710Y73380D01*
X413746Y73241D01*
X413783Y73095D01*
X413797Y72935D01*
X413156Y72884D01*
Y72891D01*
Y72906D01*
X413148Y72928D01*
X413141Y72964D01*
X413119Y73044D01*
X413090Y73154D01*
X413047Y73270D01*
X412981Y73387D01*
X412901Y73496D01*
X412799Y73598D01*
X412784Y73606D01*
X412748Y73635D01*
X412675Y73679D01*
X412580Y73722D01*
X412456Y73766D01*
X412310Y73810D01*
X412128Y73839D01*
X411924Y73846D01*
X411822D01*
X411778Y73839D01*
X411720Y73832D01*
X411588Y73817D01*
X411443Y73788D01*
X411297Y73751D01*
X411158Y73693D01*
X411100Y73657D01*
X411042Y73620D01*
X411027Y73613D01*
X410998Y73584D01*
X410954Y73533D01*
X410911Y73475D01*
X410859Y73394D01*
X410816Y73307D01*
X410787Y73205D01*
X410772Y73088D01*
Y73074D01*
Y73044D01*
X410779Y72993D01*
X410794Y72935D01*
X410816Y72862D01*
X410852Y72789D01*
X410896Y72716D01*
X410961Y72643D01*
X410969Y72636D01*
X411005Y72614D01*
X411034Y72592D01*
X411064Y72578D01*
X411107Y72556D01*
X411158Y72527D01*
X411224Y72505D01*
X411297Y72476D01*
X411377Y72447D01*
X411472Y72410D01*
X411574Y72381D01*
X411691Y72344D01*
X411822Y72315D01*
X411968Y72279D01*
X411975D01*
X412004Y72272D01*
X412048Y72264D01*
X412099Y72250D01*
X412164Y72235D01*
X412245Y72213D01*
X412325Y72191D01*
X412412Y72170D01*
X412602Y72119D01*
X412784Y72067D01*
X412872Y72038D01*
X412952Y72009D01*
X413025Y71987D01*
X413083Y71958D01*
X413090D01*
X413105Y71951D01*
X413127Y71936D01*
X413156Y71922D01*
X413236Y71878D01*
X413331Y71820D01*
X413440Y71740D01*
X413550Y71652D01*
X413652Y71550D01*
X413739Y71441D01*
X413746Y71426D01*
X413775Y71390D01*
X413805Y71324D01*
X413848Y71236D01*
X413885Y71134D01*
X413921Y71011D01*
X413943Y70872D01*
X413950Y70726D01*
Y70719D01*
Y70712D01*
Y70690D01*
Y70661D01*
X413936Y70580D01*
X413921Y70478D01*
X413892Y70362D01*
X413856Y70238D01*
X413797Y70107D01*
X413717Y69968D01*
Y69961D01*
X413710Y69953D01*
X413673Y69910D01*
X413622Y69844D01*
X413550Y69771D01*
X413455Y69684D01*
X413338Y69589D01*
X413207Y69501D01*
X413054Y69421D01*
X413047D01*
X413032Y69414D01*
X413010Y69407D01*
X412981Y69392D01*
X412937Y69377D01*
X412886Y69356D01*
X412770Y69327D01*
X412631Y69290D01*
X412463Y69254D01*
X412281Y69232D01*
X412084Y69224D01*
X411968D01*
X411909Y69232D01*
X411844D01*
X411771Y69239D01*
X411683Y69246D01*
X411501Y69275D01*
X411311Y69305D01*
X411122Y69356D01*
X410940Y69421D01*
X410932D01*
X410918Y69428D01*
X410896Y69443D01*
X410867Y69458D01*
X410779Y69501D01*
X410677Y69567D01*
X410561Y69655D01*
X410437Y69757D01*
X410320Y69880D01*
X410211Y70019D01*
Y70026D01*
X410196Y70041D01*
X410189Y70063D01*
X410167Y70092D01*
X410152Y70128D01*
X410131Y70172D01*
X410079Y70281D01*
X410028Y70420D01*
X409985Y70573D01*
X409956Y70748D01*
X409941Y70930D01*
X410568Y70989D01*
Y70981D01*
Y70974D01*
X410575Y70952D01*
Y70923D01*
X410590Y70857D01*
X410612Y70763D01*
X410641Y70668D01*
X410670Y70559D01*
X410721Y70456D01*
X410772Y70362D01*
X410779Y70354D01*
X410801Y70325D01*
X410838Y70274D01*
X410896Y70223D01*
X410969Y70157D01*
X411049Y70092D01*
X411158Y70026D01*
X411275Y69968D01*
X411282D01*
X411290Y69961D01*
X411311Y69953D01*
X411333Y69946D01*
X411406Y69924D01*
X411501Y69895D01*
X411618Y69866D01*
X411749Y69844D01*
X411895Y69829D01*
X412055Y69822D01*
X412121D01*
X412193Y69829D01*
X412281Y69837D01*
X412383Y69851D01*
X412500Y69866D01*
X412616Y69895D01*
X412726Y69932D01*
X412740Y69939D01*
X412777Y69953D01*
X412828Y69983D01*
X412893Y70012D01*
X412959Y70063D01*
X413032Y70114D01*
X413105Y70172D01*
X413163Y70245D01*
X413170Y70252D01*
X413185Y70281D01*
X413207Y70318D01*
X413236Y70376D01*
X413265Y70435D01*
X413287Y70507D01*
X413302Y70588D01*
X413309Y70675D01*
Y70682D01*
Y70719D01*
X413302Y70763D01*
X413294Y70821D01*
X413272Y70879D01*
X413251Y70952D01*
X413214Y71025D01*
X413163Y71091D01*
X413156Y71098D01*
X413134Y71120D01*
X413105Y71149D01*
X413054Y71193D01*
X412995Y71236D01*
X412915Y71288D01*
X412820Y71338D01*
X412711Y71382D01*
X412704Y71390D01*
X412667Y71397D01*
X412609Y71419D01*
X412573Y71426D01*
X412522Y71441D01*
X412471Y71462D01*
X412405Y71477D01*
X412332Y71499D01*
X412245Y71521D01*
X412157Y71543D01*
X412055Y71572D01*
X411938Y71601D01*
X411814Y71630D01*
X411807D01*
X411785Y71637D01*
X411749Y71645D01*
X411705Y71659D01*
X411647Y71674D01*
X411581Y71688D01*
X411435Y71732D01*
X411275Y71783D01*
X411107Y71834D01*
X410961Y71885D01*
X410896Y71914D01*
X410838Y71944D01*
X410830D01*
X410823Y71951D01*
X410779Y71980D01*
X410714Y72017D01*
X410641Y72075D01*
X410553Y72140D01*
X410466Y72221D01*
X410378Y72315D01*
X410305Y72417D01*
X410298Y72432D01*
X410276Y72469D01*
X410247Y72527D01*
X410218Y72600D01*
X410189Y72694D01*
X410160Y72804D01*
X410138Y72920D01*
X410131Y73044D01*
Y73052D01*
Y73059D01*
Y73081D01*
Y73110D01*
X410145Y73183D01*
X410160Y73278D01*
X410182Y73387D01*
X410218Y73511D01*
X410269Y73635D01*
X410342Y73759D01*
Y73766D01*
X410349Y73773D01*
X410386Y73817D01*
X410437Y73875D01*
X410502Y73948D01*
X410590Y74028D01*
X410699Y74116D01*
X410830Y74196D01*
X410976Y74269D01*
X410983D01*
X410998Y74276D01*
X411020Y74284D01*
X411049Y74298D01*
X411086Y74313D01*
X411136Y74327D01*
X411246Y74357D01*
X411384Y74386D01*
X411545Y74415D01*
X411712Y74437D01*
X411902Y74444D01*
X411997D01*
X412048Y74437D01*
D02*
G37*
G36*
X420169Y73044D02*
X420249Y73030D01*
X420344Y73001D01*
X420446Y72964D01*
X420563Y72913D01*
X420686Y72847D01*
X420460Y72279D01*
X420453Y72286D01*
X420424Y72301D01*
X420380Y72323D01*
X420322Y72344D01*
X420256Y72366D01*
X420176Y72388D01*
X420096Y72403D01*
X420016Y72410D01*
X419979D01*
X419943Y72403D01*
X419892Y72396D01*
X419841Y72381D01*
X419775Y72359D01*
X419709Y72330D01*
X419651Y72286D01*
X419644Y72279D01*
X419622Y72264D01*
X419600Y72235D01*
X419564Y72199D01*
X419527Y72148D01*
X419491Y72089D01*
X419454Y72024D01*
X419425Y71944D01*
X419418Y71929D01*
X419411Y71885D01*
X419396Y71820D01*
X419374Y71732D01*
X419352Y71623D01*
X419338Y71499D01*
X419331Y71368D01*
X419323Y71222D01*
Y69312D01*
X418704D01*
Y72971D01*
X419265D01*
Y72417D01*
X419272Y72425D01*
X419301Y72476D01*
X419338Y72541D01*
X419396Y72622D01*
X419454Y72702D01*
X419520Y72789D01*
X419586Y72862D01*
X419651Y72920D01*
X419659Y72928D01*
X419680Y72942D01*
X419724Y72964D01*
X419768Y72986D01*
X419826Y73008D01*
X419899Y73030D01*
X419972Y73044D01*
X420052Y73052D01*
X420103D01*
X420169Y73044D01*
D02*
G37*
G36*
X427153Y69312D02*
X426533D01*
Y74357D01*
X427153D01*
Y69312D01*
D02*
G37*
G36*
X424331Y73044D02*
X424441Y73037D01*
X424565Y73023D01*
X424689Y73001D01*
X424813Y72971D01*
X424929Y72935D01*
X424944Y72928D01*
X424980Y72913D01*
X425031Y72891D01*
X425097Y72862D01*
X425170Y72818D01*
X425243Y72775D01*
X425308Y72716D01*
X425367Y72658D01*
X425374Y72651D01*
X425388Y72629D01*
X425410Y72592D01*
X425440Y72549D01*
X425476Y72483D01*
X425505Y72417D01*
X425534Y72337D01*
X425556Y72242D01*
Y72235D01*
X425563Y72213D01*
X425571Y72170D01*
X425578Y72111D01*
Y72031D01*
X425585Y71936D01*
X425593Y71812D01*
Y71674D01*
Y70843D01*
Y70836D01*
Y70806D01*
Y70763D01*
Y70704D01*
Y70639D01*
Y70559D01*
X425600Y70384D01*
Y70201D01*
X425607Y70019D01*
X425614Y69939D01*
Y69866D01*
X425622Y69800D01*
X425629Y69749D01*
Y69742D01*
X425636Y69713D01*
X425644Y69669D01*
X425666Y69611D01*
X425680Y69545D01*
X425709Y69472D01*
X425746Y69392D01*
X425782Y69312D01*
X425133D01*
X425126Y69319D01*
X425119Y69348D01*
X425104Y69385D01*
X425082Y69443D01*
X425060Y69509D01*
X425046Y69589D01*
X425031Y69676D01*
X425017Y69771D01*
X425009D01*
X425002Y69757D01*
X424958Y69720D01*
X424893Y69669D01*
X424805Y69604D01*
X424696Y69538D01*
X424586Y69465D01*
X424470Y69399D01*
X424346Y69348D01*
X424331Y69341D01*
X424288Y69334D01*
X424222Y69312D01*
X424142Y69290D01*
X424040Y69268D01*
X423923Y69254D01*
X423792Y69239D01*
X423661Y69232D01*
X423602D01*
X423559Y69239D01*
X423508D01*
X423449Y69246D01*
X423318Y69268D01*
X423172Y69305D01*
X423012Y69356D01*
X422866Y69428D01*
X422735Y69523D01*
X422720Y69538D01*
X422684Y69574D01*
X422633Y69640D01*
X422575Y69727D01*
X422516Y69837D01*
X422465Y69961D01*
X422429Y70114D01*
X422421Y70187D01*
X422414Y70274D01*
Y70289D01*
Y70318D01*
X422421Y70369D01*
X422429Y70435D01*
X422443Y70515D01*
X422465Y70595D01*
X422494Y70682D01*
X422531Y70763D01*
X422538Y70770D01*
X422553Y70799D01*
X422582Y70843D01*
X422618Y70894D01*
X422662Y70952D01*
X422720Y71011D01*
X422779Y71069D01*
X422852Y71120D01*
X422859Y71127D01*
X422888Y71142D01*
X422924Y71171D01*
X422983Y71200D01*
X423048Y71229D01*
X423129Y71266D01*
X423209Y71295D01*
X423304Y71324D01*
X423311D01*
X423340Y71331D01*
X423384Y71346D01*
X423442Y71353D01*
X423515Y71368D01*
X423610Y71382D01*
X423719Y71404D01*
X423850Y71419D01*
X423857D01*
X423887Y71426D01*
X423923D01*
X423974Y71433D01*
X424032Y71441D01*
X424105Y71455D01*
X424186Y71462D01*
X424273Y71477D01*
X424448Y71513D01*
X424638Y71550D01*
X424805Y71594D01*
X424885Y71615D01*
X424958Y71637D01*
Y71645D01*
Y71659D01*
X424966Y71703D01*
Y71754D01*
Y71783D01*
Y71798D01*
Y71805D01*
Y71812D01*
Y71856D01*
X424958Y71929D01*
X424944Y72009D01*
X424922Y72097D01*
X424885Y72184D01*
X424842Y72264D01*
X424783Y72330D01*
X424776Y72337D01*
X424740Y72366D01*
X424681Y72396D01*
X424608Y72439D01*
X424506Y72476D01*
X424390Y72512D01*
X424244Y72534D01*
X424076Y72541D01*
X424003D01*
X423931Y72534D01*
X423828Y72519D01*
X423726Y72505D01*
X423617Y72476D01*
X423515Y72439D01*
X423427Y72388D01*
X423420Y72381D01*
X423391Y72359D01*
X423354Y72323D01*
X423311Y72264D01*
X423267Y72191D01*
X423216Y72097D01*
X423172Y71980D01*
X423129Y71849D01*
X422523Y71929D01*
Y71936D01*
X422531Y71944D01*
Y71965D01*
X422538Y71995D01*
X422560Y72060D01*
X422589Y72155D01*
X422625Y72250D01*
X422669Y72352D01*
X422728Y72454D01*
X422793Y72549D01*
X422800Y72556D01*
X422830Y72585D01*
X422873Y72629D01*
X422932Y72687D01*
X423012Y72746D01*
X423107Y72804D01*
X423216Y72869D01*
X423340Y72920D01*
X423347D01*
X423354Y72928D01*
X423376Y72935D01*
X423406Y72942D01*
X423479Y72964D01*
X423581Y72986D01*
X423697Y73008D01*
X423843Y73030D01*
X423996Y73044D01*
X424171Y73052D01*
X424251D01*
X424331Y73044D01*
D02*
G37*
G36*
X421678Y69312D02*
X421058D01*
Y72971D01*
X421678D01*
Y69312D01*
D02*
G37*
G36*
X416407Y73044D02*
X416466Y73037D01*
X416538Y73023D01*
X416619Y73008D01*
X416713Y72986D01*
X416801Y72964D01*
X416903Y72928D01*
X416998Y72891D01*
X417100Y72840D01*
X417202Y72782D01*
X417304Y72716D01*
X417399Y72636D01*
X417486Y72549D01*
X417493Y72541D01*
X417508Y72527D01*
X417530Y72498D01*
X417559Y72454D01*
X417595Y72403D01*
X417632Y72344D01*
X417676Y72272D01*
X417719Y72184D01*
X417763Y72089D01*
X417807Y71987D01*
X417843Y71871D01*
X417880Y71747D01*
X417909Y71608D01*
X417931Y71462D01*
X417945Y71309D01*
X417953Y71142D01*
Y71134D01*
Y71105D01*
Y71054D01*
X417945Y70981D01*
X415212D01*
Y70974D01*
Y70952D01*
X415219Y70923D01*
Y70879D01*
X415226Y70828D01*
X415241Y70770D01*
X415263Y70639D01*
X415306Y70493D01*
X415365Y70332D01*
X415445Y70187D01*
X415547Y70056D01*
X415554D01*
X415561Y70041D01*
X415605Y70004D01*
X415671Y69953D01*
X415758Y69902D01*
X415875Y69844D01*
X416006Y69793D01*
X416152Y69757D01*
X416232Y69749D01*
X416320Y69742D01*
X416378D01*
X416444Y69749D01*
X416524Y69764D01*
X416611Y69786D01*
X416713Y69815D01*
X416808Y69859D01*
X416903Y69917D01*
X416910Y69924D01*
X416947Y69953D01*
X416990Y69997D01*
X417041Y70056D01*
X417100Y70136D01*
X417165Y70238D01*
X417231Y70354D01*
X417289Y70493D01*
X417931Y70413D01*
Y70405D01*
X417923Y70391D01*
X417916Y70362D01*
X417902Y70318D01*
X417880Y70274D01*
X417858Y70216D01*
X417800Y70092D01*
X417727Y69953D01*
X417625Y69808D01*
X417508Y69669D01*
X417362Y69538D01*
X417355D01*
X417340Y69523D01*
X417318Y69509D01*
X417289Y69487D01*
X417245Y69465D01*
X417202Y69443D01*
X417143Y69414D01*
X417078Y69385D01*
X417005Y69356D01*
X416932Y69327D01*
X416750Y69283D01*
X416546Y69246D01*
X416320Y69232D01*
X416240D01*
X416188Y69239D01*
X416123Y69246D01*
X416043Y69261D01*
X415955Y69275D01*
X415860Y69290D01*
X415656Y69348D01*
X415547Y69392D01*
X415445Y69436D01*
X415336Y69494D01*
X415234Y69560D01*
X415139Y69633D01*
X415044Y69720D01*
X415037Y69727D01*
X415022Y69742D01*
X415000Y69771D01*
X414971Y69815D01*
X414935Y69866D01*
X414898Y69924D01*
X414854Y69997D01*
X414811Y70077D01*
X414767Y70172D01*
X414723Y70274D01*
X414687Y70391D01*
X414650Y70515D01*
X414621Y70646D01*
X414599Y70792D01*
X414585Y70945D01*
X414577Y71105D01*
Y71113D01*
Y71149D01*
Y71193D01*
X414585Y71258D01*
X414592Y71338D01*
X414599Y71426D01*
X414614Y71528D01*
X414636Y71630D01*
X414694Y71863D01*
X414731Y71980D01*
X414774Y72104D01*
X414832Y72221D01*
X414898Y72330D01*
X414971Y72439D01*
X415051Y72541D01*
X415059Y72549D01*
X415073Y72563D01*
X415102Y72585D01*
X415139Y72622D01*
X415182Y72658D01*
X415241Y72702D01*
X415306Y72753D01*
X415387Y72796D01*
X415467Y72847D01*
X415561Y72891D01*
X415664Y72935D01*
X415773Y72971D01*
X415890Y73008D01*
X416013Y73030D01*
X416145Y73044D01*
X416283Y73052D01*
X416356D01*
X416407Y73044D01*
D02*
G37*
G36*
X-27916Y287432D02*
X-26217Y285050D01*
X-26959D01*
X-28107Y286664D01*
X-28113Y286671D01*
X-28126Y286690D01*
X-28139Y286717D01*
X-28166Y286749D01*
X-28225Y286841D01*
X-28290Y286940D01*
X-28297Y286933D01*
X-28317Y286907D01*
X-28343Y286867D01*
X-28376Y286815D01*
X-28448Y286710D01*
X-28480Y286664D01*
X-28507Y286625D01*
X-29655Y285050D01*
X-30376D01*
X-28625Y287399D01*
X-30173Y289590D01*
X-29458D01*
X-28631Y288422D01*
Y288416D01*
X-28618Y288409D01*
X-28605Y288389D01*
X-28585Y288363D01*
X-28546Y288298D01*
X-28487Y288219D01*
X-28428Y288127D01*
X-28369Y288035D01*
X-28317Y287950D01*
X-28271Y287871D01*
X-28264Y287884D01*
X-28244Y287911D01*
X-28212Y287963D01*
X-28166Y288029D01*
X-28113Y288101D01*
X-28048Y288193D01*
X-27982Y288284D01*
X-27903Y288383D01*
X-26998Y289590D01*
X-26342D01*
X-27916Y287432D01*
D02*
G37*
G36*
X-23810Y285050D02*
X-24367D01*
Y288599D01*
X-24374Y288593D01*
X-24407Y288567D01*
X-24446Y288527D01*
X-24512Y288481D01*
X-24584Y288422D01*
X-24676Y288357D01*
X-24781Y288284D01*
X-24899Y288212D01*
X-24905D01*
X-24912Y288206D01*
X-24951Y288179D01*
X-25017Y288147D01*
X-25096Y288107D01*
X-25187Y288061D01*
X-25286Y288016D01*
X-25384Y287970D01*
X-25483Y287930D01*
Y288468D01*
X-25476D01*
X-25463Y288481D01*
X-25437Y288488D01*
X-25404Y288508D01*
X-25365Y288527D01*
X-25319Y288553D01*
X-25207Y288619D01*
X-25076Y288691D01*
X-24945Y288783D01*
X-24807Y288888D01*
X-24669Y289000D01*
X-24663Y289006D01*
X-24656Y289013D01*
X-24636Y289032D01*
X-24610Y289052D01*
X-24551Y289118D01*
X-24472Y289196D01*
X-24394Y289288D01*
X-24308Y289393D01*
X-24236Y289498D01*
X-24171Y289610D01*
X-23810D01*
Y285050D01*
D02*
G37*
%LPC*%
G36*
X337467Y116104D02*
Y116104D01*
D01*
Y116104D01*
D02*
G37*
G36*
X347534Y109937D02*
X347378Y109931D01*
X345853Y109877D01*
X345653Y109866D01*
X345516Y109861D01*
X345066Y109807D01*
X345060Y109812D01*
Y109812D01*
X344314Y109714D01*
X344314Y109713D01*
X344314Y109713D01*
X343612Y109609D01*
X343603Y109597D01*
X343154Y109520D01*
X342957Y109464D01*
X342958Y109462D01*
X342351Y109288D01*
X342351Y109289D01*
X341788Y109098D01*
X341787Y109097D01*
X341597Y109032D01*
X341454Y108962D01*
X341271Y108878D01*
X341092Y108804D01*
X340804Y108628D01*
X340803Y108626D01*
X340370Y108395D01*
X339750Y107886D01*
X339241Y107266D01*
X338863Y106558D01*
X338630Y105791D01*
X338564Y105121D01*
X338551Y104992D01*
X338558Y104920D01*
X338554Y104802D01*
X338616Y104171D01*
X338800Y103564D01*
X339099Y103004D01*
X339502Y102514D01*
X339978Y102123D01*
X339981Y102127D01*
X340535Y101787D01*
X340925Y101626D01*
Y101626D01*
X340925Y101626D01*
X341291Y101474D01*
X341646Y101389D01*
X341653Y101377D01*
X341856Y101337D01*
X342052Y101297D01*
X342053Y101297D01*
Y101297D01*
X342055Y101296D01*
X342055Y101297D01*
X342250Y101258D01*
X342469Y101215D01*
X342468Y101213D01*
X342531Y101200D01*
X342708Y101189D01*
X342908Y101173D01*
X343368Y101147D01*
Y101147D01*
X343567Y101136D01*
X343843Y101120D01*
X343848Y101121D01*
X343876Y101124D01*
X344744Y101181D01*
X345598Y101351D01*
X345921Y101460D01*
X345925Y101458D01*
X345925D01*
Y101458D01*
X346178Y101531D01*
X347173Y101943D01*
X347819Y102300D01*
X347819Y102300D01*
X348165Y102491D01*
X349193Y103220D01*
X349446Y103446D01*
X349453Y103446D01*
X350369Y104276D01*
X350737Y104682D01*
X350737Y104682D01*
X350740Y104690D01*
Y109909D01*
X350737Y109917D01*
X350729Y109920D01*
X347773D01*
X347578Y109935D01*
X347534Y109937D01*
D02*
G37*
G36*
X433478Y120005D02*
X433478D01*
X433478Y120005D01*
X433478Y120005D01*
D02*
G37*
G36*
X390872Y118106D02*
X389855Y118039D01*
X388856Y117840D01*
X388050Y117567D01*
X388053Y117560D01*
X387635Y117386D01*
X386852Y116907D01*
X386155Y116311D01*
X386002Y116132D01*
X386001Y116131D01*
X385870Y115980D01*
X385656Y115736D01*
X385132Y114952D01*
X384715Y114107D01*
X384456Y113342D01*
X384460Y113341D01*
X384221Y112387D01*
X384019Y111021D01*
X383951Y109641D01*
X384019Y108261D01*
X384221Y106895D01*
X384460Y105941D01*
X384456Y105939D01*
X384723Y105153D01*
X385154Y104279D01*
X385695Y103470D01*
X385868Y103271D01*
X385870Y103272D01*
X385871Y103272D01*
X385872Y103272D01*
X386199Y102889D01*
X386883Y102304D01*
X387651Y101834D01*
X388053Y101668D01*
X388048Y101657D01*
X388892Y101371D01*
X389828Y101184D01*
X390780Y101122D01*
X390884Y101128D01*
X390977Y101122D01*
X391084Y101129D01*
X391921Y101184D01*
X392848Y101368D01*
X393696Y101656D01*
X393691Y101668D01*
X394093Y101834D01*
X394860Y102304D01*
X395545Y102889D01*
X395872Y103272D01*
X395873Y103272D01*
X395875Y103271D01*
X396055Y103475D01*
X396605Y104300D01*
X397044Y105189D01*
X397235Y105753D01*
X397299Y105940D01*
X397560Y106982D01*
X397756Y108305D01*
X397822Y109641D01*
X397756Y110977D01*
X397560Y112300D01*
X397299Y113342D01*
X397298Y113342D01*
X397051Y114070D01*
X396626Y114932D01*
X396092Y115731D01*
X395874Y115980D01*
Y115980D01*
X395874D01*
X395743Y116131D01*
X395589Y116311D01*
X394892Y116907D01*
X394109Y117386D01*
X393691Y117560D01*
X393694Y117567D01*
X392888Y117840D01*
X391889Y118039D01*
X390872Y118106D01*
D02*
G37*
G36*
X387245Y99815D02*
X387245D01*
X387245D01*
X387245D01*
D02*
G37*
G36*
X394613D02*
X394613D01*
X394613D01*
X394613D01*
D02*
G37*
G36*
X293540Y85026D02*
X292328D01*
Y82758D01*
X292219Y82867D01*
X292109Y82968D01*
X292000Y83049D01*
X291882Y83131D01*
X291772Y83186D01*
X291663Y83241D01*
X291554Y83286D01*
X291453Y83314D01*
X291353Y83341D01*
X291271Y83359D01*
X291189Y83377D01*
X291125Y83386D01*
X291071Y83396D01*
X290998D01*
X290843Y83386D01*
X290697Y83368D01*
X290561Y83341D01*
X290424Y83305D01*
X290196Y83204D01*
X290087Y83150D01*
X289996Y83095D01*
X289905Y83031D01*
X289832Y82977D01*
X289768Y82931D01*
X289713Y82885D01*
X289668Y82840D01*
X289640Y82813D01*
X289622Y82794D01*
X289613Y82785D01*
X289522Y82667D01*
X289440Y82539D01*
X289367Y82403D01*
X289303Y82257D01*
X289249Y82111D01*
X289203Y81965D01*
X289140Y81674D01*
X289121Y81546D01*
X289103Y81419D01*
X289094Y81309D01*
X289085Y81209D01*
X289076Y81127D01*
Y81018D01*
X289085Y80808D01*
X289103Y80617D01*
X289130Y80435D01*
X289167Y80262D01*
X289203Y80107D01*
X289249Y79961D01*
X289303Y79834D01*
X289358Y79715D01*
X289404Y79606D01*
X289458Y79515D01*
X289504Y79433D01*
X289549Y79369D01*
X289577Y79314D01*
X289604Y79278D01*
X289622Y79260D01*
X289631Y79251D01*
X289741Y79141D01*
X289850Y79041D01*
X289968Y78959D01*
X290078Y78886D01*
X290196Y78822D01*
X290305Y78777D01*
X290415Y78731D01*
X290515Y78704D01*
X290615Y78677D01*
X290706Y78658D01*
X290779Y78640D01*
X290852Y78631D01*
X290907Y78622D01*
X293540D01*
Y85026D01*
D02*
G37*
G36*
X297630Y83396D02*
X294678D01*
D01*
X296828D01*
X296719Y83386D01*
X296628Y83377D01*
X296537Y83350D01*
X296464Y83323D01*
X296400Y83296D01*
X296345Y83277D01*
X296318Y83259D01*
X296309Y83250D01*
X296218Y83186D01*
X296136Y83095D01*
X296045Y82995D01*
X295972Y82895D01*
X295899Y82794D01*
X295844Y82712D01*
X295808Y82658D01*
X295799Y82649D01*
Y83296D01*
X294678D01*
Y78722D01*
X295890D01*
Y80125D01*
Y80335D01*
Y80526D01*
X295899Y80699D01*
X295908Y80854D01*
Y81000D01*
X295917Y81118D01*
X295926Y81237D01*
X295936Y81328D01*
X295945Y81410D01*
X295954Y81483D01*
X295963Y81537D01*
Y81583D01*
X295972Y81610D01*
X295981Y81637D01*
Y81656D01*
X296018Y81783D01*
X296063Y81893D01*
X296109Y81984D01*
X296154Y82047D01*
X296191Y82102D01*
X296227Y82139D01*
X296245Y82157D01*
X296254Y82166D01*
X296327Y82211D01*
X296400Y82248D01*
X296473Y82275D01*
X296537Y82293D01*
X296591Y82302D01*
X296646Y82312D01*
X296683D01*
X296783Y82302D01*
X296883Y82284D01*
X296974Y82248D01*
X297065Y82211D01*
X297138Y82175D01*
X297193Y82139D01*
X297238Y82120D01*
X297247Y82111D01*
X297630Y83159D01*
X297484Y83241D01*
X297348Y83296D01*
X297211Y83341D01*
X297083Y83368D01*
X296983Y83386D01*
X296901Y83396D01*
X297630D01*
D02*
G37*
G36*
X333697Y83396D02*
Y83296D01*
X332567D01*
Y82639D01*
X332457Y82776D01*
X332348Y82885D01*
X332230Y82995D01*
X332111Y83077D01*
X331993Y83150D01*
X331874Y83214D01*
X331765Y83259D01*
X331656Y83305D01*
X331556Y83332D01*
X331465Y83359D01*
X331373Y83368D01*
X331310Y83387D01*
X331246D01*
X331200Y83396D01*
X333697D01*
X331164D01*
X331018Y83387D01*
X330872Y83368D01*
X330736Y83341D01*
X330599Y83305D01*
X330371Y83204D01*
X330262Y83150D01*
X330171Y83095D01*
X330080Y83031D01*
X330007Y82977D01*
X329943Y82931D01*
X329889Y82885D01*
X329843Y82840D01*
X329816Y82813D01*
X329797Y82794D01*
X329788Y82785D01*
X329688Y82667D01*
X329606Y82539D01*
X329533Y82394D01*
X329469Y82257D01*
X329424Y82111D01*
X329378Y81965D01*
X329315Y81674D01*
X329287Y81546D01*
X329269Y81419D01*
X329260Y81309D01*
X329251Y81218D01*
X329242Y81136D01*
Y81027D01*
X329251Y80863D01*
X329260Y80699D01*
X329306Y80408D01*
X329342Y80271D01*
X329378Y80143D01*
X329415Y80025D01*
X329451Y79925D01*
X329488Y79825D01*
X329524Y79743D01*
X329560Y79670D01*
X329597Y79606D01*
X329624Y79560D01*
X329643Y79524D01*
X329661Y79506D01*
Y79497D01*
X329770Y79360D01*
X329879Y79242D01*
X329998Y79141D01*
X330116Y79050D01*
X330235Y78977D01*
X330362Y78913D01*
X330481Y78859D01*
X330590Y78822D01*
X330699Y78786D01*
X330800Y78768D01*
X330891Y78750D01*
X330963Y78731D01*
X331027D01*
X331082Y78722D01*
X331118D01*
X331273Y78731D01*
X331419Y78759D01*
X331556Y78795D01*
X331683Y78841D01*
X331911Y78959D01*
X332020Y79023D01*
X332111Y79096D01*
X332193Y79159D01*
X332275Y79223D01*
X332339Y79287D01*
X332385Y79342D01*
X332430Y79396D01*
X332457Y79433D01*
X332476Y79451D01*
X332485Y79460D01*
Y78795D01*
Y78658D01*
X332476Y78540D01*
X332467Y78449D01*
X332457Y78376D01*
X332439Y78312D01*
X332430Y78276D01*
X332421Y78258D01*
Y78249D01*
X332385Y78176D01*
X332348Y78112D01*
X332312Y78057D01*
X332275Y78012D01*
X332239Y77975D01*
X332211Y77957D01*
X332193Y77948D01*
X332184Y77939D01*
X332084Y77893D01*
X331975Y77857D01*
X331856Y77829D01*
X331738Y77811D01*
X331638Y77802D01*
X331556Y77793D01*
X331474D01*
X331346Y77802D01*
X331237Y77811D01*
X331146Y77839D01*
X331073Y77866D01*
X331009Y77884D01*
X330973Y77912D01*
X330945Y77921D01*
X330936Y77930D01*
X330891Y77966D01*
X330854Y78021D01*
X330809Y78130D01*
X330800Y78176D01*
X330790Y78221D01*
X330781Y78249D01*
Y78258D01*
X329397Y78422D01*
X329387Y78367D01*
Y78321D01*
Y78285D01*
Y78276D01*
X329397Y78167D01*
X329406Y78057D01*
X329460Y77857D01*
X329542Y77684D01*
X329633Y77538D01*
X329715Y77420D01*
X329797Y77337D01*
X329852Y77283D01*
X329861Y77274D01*
X329870Y77265D01*
X329971Y77192D01*
X330080Y77137D01*
X330207Y77082D01*
X330335Y77037D01*
X330608Y76964D01*
X330882Y76919D01*
X331009Y76900D01*
X331127Y76882D01*
X331237Y76873D01*
X331328D01*
X331410Y76864D01*
X331519D01*
X331738Y76873D01*
X331938Y76882D01*
X332111Y76909D01*
X332266Y76937D01*
X332385Y76955D01*
X332467Y76982D01*
X332521Y76991D01*
X332540Y77000D01*
X332685Y77055D01*
X332813Y77110D01*
X332922Y77174D01*
X333013Y77228D01*
X333077Y77274D01*
X333132Y77319D01*
X333168Y77347D01*
X333177Y77356D01*
X333268Y77447D01*
X333341Y77547D01*
X333405Y77656D01*
X333460Y77757D01*
X333505Y77848D01*
X333533Y77921D01*
X333551Y77966D01*
X333560Y77984D01*
X333587Y78066D01*
X333605Y78148D01*
X333642Y78340D01*
X333660Y78540D01*
X333678Y78741D01*
X333687Y78913D01*
X333697Y78986D01*
Y76864D01*
D01*
D01*
Y83396D01*
D02*
G37*
G36*
X342697D02*
Y78722D01*
X340957D01*
Y80125D01*
Y80335D01*
Y80526D01*
X340966Y80699D01*
X340975Y80854D01*
Y81000D01*
X340985Y81118D01*
X340994Y81237D01*
X341003Y81328D01*
X341012Y81410D01*
X341021Y81483D01*
X341030Y81537D01*
Y81583D01*
X341039Y81610D01*
X341048Y81637D01*
Y81656D01*
X341085Y81783D01*
X341130Y81893D01*
X341176Y81984D01*
X341221Y82047D01*
X341258Y82102D01*
X341294Y82139D01*
X341312Y82157D01*
X341321Y82166D01*
X341394Y82211D01*
X341467Y82248D01*
X341540Y82275D01*
X341604Y82293D01*
X341659Y82302D01*
X341713Y82312D01*
X341750D01*
X341850Y82302D01*
X341950Y82284D01*
X342041Y82248D01*
X342132Y82211D01*
X342205Y82175D01*
X342260Y82139D01*
X342305Y82120D01*
X342315Y82111D01*
X342697Y83159D01*
X342551Y83241D01*
X342415Y83296D01*
X342278Y83341D01*
X342151Y83368D01*
X342050Y83387D01*
X341968Y83396D01*
X342697D01*
X339745D01*
X341896D01*
X341786Y83387D01*
X341695Y83377D01*
X341604Y83350D01*
X341531Y83323D01*
X341467Y83296D01*
X341413Y83277D01*
X341385Y83259D01*
X341376Y83250D01*
X341285Y83186D01*
X341203Y83095D01*
X341112Y82995D01*
X341039Y82895D01*
X340966Y82794D01*
X340912Y82712D01*
X340875Y82658D01*
X340866Y82649D01*
Y83296D01*
X339745D01*
Y78722D01*
X342697D01*
Y83396D01*
D02*
G37*
G36*
X311796D02*
Y80152D01*
X311778Y80353D01*
X311732Y80535D01*
X311678Y80690D01*
X311605Y80818D01*
X311532Y80918D01*
X311477Y80991D01*
X311432Y81027D01*
X311413Y81045D01*
X311331Y81100D01*
X311249Y81164D01*
X311149Y81209D01*
X311040Y81264D01*
X310821Y81355D01*
X310594Y81437D01*
X310393Y81501D01*
X310302Y81519D01*
X310220Y81546D01*
X310156Y81565D01*
X310111Y81574D01*
X310074Y81583D01*
X310065D01*
X309892Y81628D01*
X309737Y81665D01*
X309600Y81701D01*
X309482Y81738D01*
X309373Y81765D01*
X309282Y81792D01*
X309209Y81820D01*
X309136Y81838D01*
X309081Y81865D01*
X309036Y81883D01*
X308999Y81893D01*
X308981Y81911D01*
X308945Y81920D01*
X308935Y81929D01*
X308899Y81965D01*
X308872Y82002D01*
X308835Y82075D01*
X308817Y82129D01*
Y82139D01*
Y82148D01*
X308826Y82202D01*
X308835Y82248D01*
X308890Y82330D01*
X308935Y82375D01*
X308945Y82394D01*
X308954D01*
X309045Y82439D01*
X309145Y82476D01*
X309254Y82494D01*
X309373Y82512D01*
X309473Y82521D01*
X309555Y82530D01*
X309637D01*
X309774Y82521D01*
X309892Y82512D01*
X309992Y82485D01*
X310074Y82457D01*
X310138Y82430D01*
X310184Y82412D01*
X310211Y82394D01*
X310220Y82385D01*
X310293Y82330D01*
X310348Y82266D01*
X310402Y82202D01*
X310439Y82129D01*
X310466Y82075D01*
X310484Y82029D01*
X310502Y81993D01*
Y81984D01*
X311641Y82193D01*
X311568Y82403D01*
X311468Y82585D01*
X311368Y82740D01*
X311259Y82858D01*
X311167Y82958D01*
X311085Y83031D01*
X311031Y83068D01*
X311022Y83086D01*
X311013D01*
X310922Y83141D01*
X310821Y83186D01*
X310603Y83268D01*
X310375Y83323D01*
X310147Y83359D01*
X310038Y83368D01*
X309938Y83377D01*
X309846Y83387D01*
X309774Y83396D01*
X309436D01*
X309273Y83377D01*
X309118Y83359D01*
X308972Y83332D01*
X308844Y83305D01*
X308726Y83268D01*
X308617Y83232D01*
X308516Y83195D01*
X308434Y83150D01*
X308362Y83113D01*
X308298Y83077D01*
X308252Y83049D01*
X308207Y83022D01*
X308179Y83004D01*
X308170Y82995D01*
X308161Y82986D01*
X308079Y82913D01*
X308006Y82831D01*
X307943Y82749D01*
X307897Y82658D01*
X307806Y82494D01*
X307751Y82339D01*
X307724Y82202D01*
X307715Y82139D01*
X307706Y82093D01*
X307697Y82047D01*
Y82020D01*
Y82002D01*
Y81993D01*
X307706Y81874D01*
X307724Y81765D01*
X307742Y81656D01*
X307779Y81555D01*
X307870Y81382D01*
X307970Y81237D01*
X308061Y81118D01*
X308152Y81036D01*
X308189Y81000D01*
X308207Y80981D01*
X308225Y80972D01*
X308234Y80963D01*
X308316Y80918D01*
X308425Y80863D01*
X308553Y80808D01*
X308689Y80763D01*
X308835Y80708D01*
X308990Y80663D01*
X309309Y80572D01*
X309464Y80526D01*
X309610Y80490D01*
X309737Y80453D01*
X309856Y80426D01*
X309956Y80408D01*
X310029Y80389D01*
X310074Y80371D01*
X310092D01*
X310202Y80344D01*
X310284Y80317D01*
X310357Y80289D01*
X310411Y80271D01*
X310448Y80244D01*
X310475Y80234D01*
X310493Y80216D01*
X310548Y80143D01*
X310575Y80071D01*
X310584Y80016D01*
Y79998D01*
Y79988D01*
X310575Y79916D01*
X310557Y79852D01*
X310530Y79797D01*
X310502Y79752D01*
X310475Y79715D01*
X310448Y79688D01*
X310430Y79670D01*
X310420Y79661D01*
X310320Y79606D01*
X310211Y79570D01*
X310092Y79533D01*
X309983Y79515D01*
X309883Y79506D01*
X309792Y79497D01*
X309719D01*
X309564Y79506D01*
X309436Y79524D01*
X309318Y79551D01*
X309227Y79588D01*
X309154Y79615D01*
X309100Y79642D01*
X309063Y79661D01*
X309054Y79670D01*
X308972Y79743D01*
X308908Y79834D01*
X308854Y79916D01*
X308808Y80007D01*
X308781Y80089D01*
X308762Y80152D01*
X308744Y80189D01*
Y80207D01*
X307533Y80025D01*
X307614Y79797D01*
X307715Y79588D01*
X307824Y79415D01*
X307943Y79269D01*
X308052Y79150D01*
X308152Y79068D01*
X308179Y79032D01*
X308207Y79014D01*
X308225Y79005D01*
X308234Y78996D01*
X308343Y78932D01*
X308453Y78868D01*
X308699Y78777D01*
X308945Y78713D01*
X309181Y78668D01*
X309291Y78649D01*
X309391Y78640D01*
X309482Y78631D01*
X309564D01*
X309628Y78622D01*
X307533D01*
D01*
X311796D01*
Y83396D01*
D02*
G37*
G36*
X288119Y83396D02*
Y81747D01*
X288110Y81902D01*
X288101Y82047D01*
X288083Y82157D01*
X288074Y82248D01*
X288055Y82312D01*
X288046Y82357D01*
Y82366D01*
X288019Y82476D01*
X287983Y82567D01*
X287946Y82658D01*
X287900Y82731D01*
X287864Y82794D01*
X287837Y82840D01*
X287819Y82867D01*
X287809Y82876D01*
X287737Y82958D01*
X287654Y83031D01*
X287573Y83095D01*
X287491Y83150D01*
X287418Y83195D01*
X287354Y83223D01*
X287317Y83241D01*
X287299Y83250D01*
X287172Y83296D01*
X287044Y83332D01*
X286926Y83359D01*
X286816Y83377D01*
X286716Y83386D01*
X286634Y83396D01*
X283947D01*
X286570D01*
X286406Y83386D01*
X286243Y83359D01*
X286097Y83323D01*
X285951Y83277D01*
X285814Y83214D01*
X285696Y83150D01*
X285577Y83077D01*
X285477Y83013D01*
X285386Y82940D01*
X285304Y82867D01*
X285231Y82803D01*
X285177Y82740D01*
X285131Y82694D01*
X285095Y82658D01*
X285076Y82630D01*
X285067Y82621D01*
Y83296D01*
X283947D01*
Y78722D01*
X285158D01*
Y80781D01*
Y80918D01*
Y81045D01*
X285168Y81164D01*
X285177Y81264D01*
Y81364D01*
X285186Y81446D01*
X285195Y81528D01*
X285204Y81592D01*
X285222Y81701D01*
X285231Y81774D01*
X285249Y81820D01*
Y81829D01*
X285286Y81929D01*
X285341Y82029D01*
X285395Y82102D01*
X285450Y82175D01*
X285505Y82221D01*
X285550Y82266D01*
X285577Y82284D01*
X285587Y82293D01*
X285687Y82348D01*
X285787Y82394D01*
X285878Y82421D01*
X285969Y82448D01*
X286042Y82457D01*
X286097Y82466D01*
X286151D01*
X286243Y82457D01*
X286325Y82448D01*
X286388Y82430D01*
X286452Y82403D01*
X286507Y82375D01*
X286543Y82357D01*
X286561Y82348D01*
X286570Y82339D01*
X286634Y82293D01*
X286680Y82239D01*
X286762Y82129D01*
X286789Y82075D01*
X286807Y82038D01*
X286825Y82011D01*
Y82002D01*
X286844Y81956D01*
X286853Y81902D01*
X286871Y81765D01*
X286889Y81601D01*
X286898Y81446D01*
X286908Y81291D01*
Y81227D01*
Y81164D01*
Y81118D01*
Y81082D01*
Y81054D01*
Y81045D01*
Y78722D01*
X288119D01*
Y83396D01*
D02*
G37*
G36*
X323994Y83396D02*
X323894D01*
X323730Y83387D01*
X323575Y83368D01*
X323420Y83332D01*
X323284Y83296D01*
X323147Y83250D01*
X323029Y83195D01*
X322910Y83131D01*
X322810Y83077D01*
X322719Y83013D01*
X322637Y82949D01*
X322564Y82895D01*
X322509Y82849D01*
X322464Y82813D01*
X322427Y82776D01*
X322409Y82758D01*
X322400Y82749D01*
X322300Y82621D01*
X322209Y82485D01*
X322127Y82348D01*
X322054Y82202D01*
X321999Y82047D01*
X321954Y81902D01*
X321881Y81619D01*
X321853Y81483D01*
X321835Y81364D01*
X321826Y81255D01*
X321817Y81164D01*
X321808Y81082D01*
Y81246D01*
Y81082D01*
D01*
Y80972D01*
X321817Y80799D01*
X321826Y80626D01*
X321853Y80471D01*
X321881Y80326D01*
X321908Y80180D01*
X321954Y80052D01*
X321990Y79934D01*
X322036Y79825D01*
X322072Y79724D01*
X322118Y79642D01*
X322154Y79570D01*
X322181Y79506D01*
X322218Y79460D01*
X322236Y79424D01*
X322245Y79405D01*
X322254Y79396D01*
X322373Y79260D01*
X322491Y79141D01*
X322628Y79041D01*
X322774Y78950D01*
X322919Y78877D01*
X323065Y78813D01*
X323211Y78759D01*
X323357Y78722D01*
X323484Y78686D01*
X323612Y78668D01*
X323730Y78649D01*
X323830Y78631D01*
X323912D01*
X323967Y78622D01*
X326071D01*
Y80909D01*
X326053Y81136D01*
X326026Y81355D01*
X325989Y81555D01*
X325944Y81747D01*
X325898Y81911D01*
X325844Y82066D01*
X325789Y82202D01*
X325734Y82321D01*
X325680Y82430D01*
X325634Y82512D01*
X325589Y82585D01*
X325552Y82639D01*
X325525Y82685D01*
X325507Y82703D01*
X325498Y82712D01*
X325388Y82831D01*
X325261Y82940D01*
X325133Y83031D01*
X325006Y83104D01*
X324869Y83177D01*
X324732Y83232D01*
X324605Y83277D01*
X324477Y83314D01*
X324359Y83341D01*
X324249Y83359D01*
X324149Y83377D01*
X324067Y83387D01*
X323994Y83396D01*
D02*
G37*
G36*
X299990Y83396D02*
X299889D01*
X299725Y83386D01*
X299570Y83368D01*
X299415Y83332D01*
X299279Y83296D01*
X299142Y83250D01*
X299024Y83195D01*
X298905Y83131D01*
X298805Y83077D01*
X298714Y83013D01*
X298632Y82949D01*
X298559Y82895D01*
X298504Y82849D01*
X298459Y82813D01*
X298423Y82776D01*
X298404Y82758D01*
X298395Y82749D01*
X298295Y82621D01*
X298204Y82485D01*
X298122Y82348D01*
X298049Y82202D01*
X297994Y82047D01*
X297949Y81902D01*
X297876Y81619D01*
X297849Y81483D01*
X297830Y81364D01*
X297821Y81255D01*
X297812Y81164D01*
X297803Y81082D01*
Y81082D01*
Y80972D01*
X297812Y80799D01*
X297821Y80626D01*
X297849Y80471D01*
X297876Y80326D01*
X297903Y80180D01*
X297949Y80052D01*
X297985Y79934D01*
X298031Y79825D01*
X298067Y79724D01*
X298113Y79642D01*
X298149Y79570D01*
X298177Y79506D01*
X298213Y79460D01*
X298231Y79424D01*
X298240Y79405D01*
X298250Y79396D01*
X298368Y79260D01*
X298486Y79141D01*
X298623Y79041D01*
X298769Y78950D01*
X298915Y78877D01*
X299060Y78813D01*
X299206Y78759D01*
X299352Y78722D01*
X299479Y78686D01*
X299607Y78668D01*
X299725Y78649D01*
X299826Y78631D01*
X299907D01*
X299962Y78622D01*
X302067D01*
Y80909D01*
X302048Y81136D01*
X302021Y81355D01*
X301985Y81555D01*
X301939Y81747D01*
X301893Y81911D01*
X301839Y82066D01*
X301784Y82202D01*
X301729Y82321D01*
X301675Y82430D01*
X301629Y82512D01*
X301584Y82585D01*
X301547Y82639D01*
X301520Y82685D01*
X301502Y82703D01*
X301493Y82712D01*
X301383Y82831D01*
X301256Y82940D01*
X301128Y83031D01*
X301001Y83104D01*
X300864Y83177D01*
X300727Y83232D01*
X300600Y83277D01*
X300472Y83314D01*
X300354Y83341D01*
X300244Y83359D01*
X300144Y83377D01*
X300062Y83386D01*
X299990Y83396D01*
D02*
G37*
G36*
X328267Y85026D02*
X327055D01*
Y83906D01*
X328267D01*
Y83296D01*
X327055D01*
Y78722D01*
X328267D01*
Y85026D01*
D02*
G37*
G36*
X304973Y83396D02*
X304672D01*
X304526Y83377D01*
X304380Y83368D01*
X304253Y83341D01*
X304125Y83323D01*
X304016Y83296D01*
X303916Y83259D01*
X303825Y83232D01*
X303752Y83204D01*
X303679Y83168D01*
X303624Y83141D01*
X303570Y83122D01*
X303533Y83095D01*
X303506Y83086D01*
X303497Y83068D01*
X303488D01*
X303333Y82931D01*
X303205Y82776D01*
X303096Y82612D01*
X303005Y82457D01*
X302941Y82312D01*
X302914Y82248D01*
X302896Y82193D01*
X302877Y82148D01*
X302868Y82111D01*
X302859Y82093D01*
Y82084D01*
X303943Y81883D01*
X303989Y81993D01*
X304034Y82084D01*
X304080Y82166D01*
X304134Y82230D01*
X304171Y82275D01*
X304207Y82302D01*
X304226Y82321D01*
X304235Y82330D01*
X304308Y82375D01*
X304390Y82412D01*
X304481Y82430D01*
X304563Y82448D01*
X304636Y82457D01*
X304690Y82466D01*
X304745D01*
X304909Y82457D01*
X305046Y82439D01*
X305155Y82421D01*
X305246Y82394D01*
X305310Y82357D01*
X305355Y82339D01*
X305383Y82321D01*
X305392Y82312D01*
X305455Y82248D01*
X305501Y82175D01*
X305528Y82093D01*
X305556Y82011D01*
X305565Y81929D01*
X305574Y81865D01*
Y81829D01*
Y81810D01*
Y81692D01*
X305510Y81665D01*
X305428Y81637D01*
X305255Y81583D01*
X305055Y81537D01*
X304863Y81492D01*
X304681Y81446D01*
X304599Y81428D01*
X304526Y81419D01*
X304472Y81410D01*
X304426Y81401D01*
X304399Y81392D01*
X304390D01*
X304171Y81346D01*
X303971Y81300D01*
X303807Y81255D01*
X303670Y81209D01*
X303561Y81164D01*
X303488Y81136D01*
X303442Y81118D01*
X303424Y81109D01*
X303306Y81045D01*
X303205Y80972D01*
X303114Y80890D01*
X303050Y80818D01*
X302987Y80754D01*
X302950Y80699D01*
X302923Y80663D01*
X302914Y80644D01*
X302850Y80526D01*
X302804Y80408D01*
X302777Y80298D01*
X302759Y80189D01*
X302741Y80098D01*
X302732Y80025D01*
Y79961D01*
X302741Y79852D01*
X302750Y79752D01*
X302795Y79560D01*
X302859Y79396D01*
X302932Y79260D01*
X303005Y79150D01*
X303069Y79068D01*
X303114Y79014D01*
X303132Y79005D01*
Y78996D01*
X303296Y78868D01*
X303479Y78777D01*
X303661Y78713D01*
X303843Y78668D01*
X303998Y78640D01*
X304071Y78631D01*
X304125D01*
X304180Y78622D01*
X302732Y78622D01*
X307022Y78622D01*
X304244D01*
X304390Y78631D01*
X304535Y78649D01*
X304663Y78668D01*
X304772Y78695D01*
X304863Y78722D01*
X304936Y78750D01*
X304982Y78759D01*
X305000Y78768D01*
X305128Y78832D01*
X305255Y78895D01*
X305364Y78977D01*
X305465Y79050D01*
X305547Y79114D01*
X305610Y79169D01*
X305647Y79205D01*
X305665Y79214D01*
X305674Y79178D01*
X305692Y79132D01*
X305701Y79096D01*
X305711Y79087D01*
Y79078D01*
X305738Y78996D01*
X305756Y78923D01*
X305774Y78859D01*
X305792Y78813D01*
X305811Y78777D01*
X305820Y78741D01*
X305829Y78731D01*
Y78722D01*
X307022D01*
X306968Y78841D01*
X306922Y78950D01*
X306886Y79050D01*
X306849Y79141D01*
X306831Y79214D01*
X306813Y79278D01*
X306804Y79314D01*
Y79324D01*
X306785Y79442D01*
X306776Y79588D01*
X306758Y79734D01*
Y79879D01*
X306749Y80007D01*
Y80116D01*
Y80162D01*
Y80189D01*
Y80207D01*
Y80216D01*
X306767Y81628D01*
Y81774D01*
X306758Y81902D01*
X306749Y82020D01*
X306740Y82129D01*
X306731Y82230D01*
X306713Y82321D01*
X306703Y82403D01*
X306685Y82466D01*
X306667Y82530D01*
X306658Y82576D01*
X306631Y82658D01*
X306612Y82694D01*
X306603Y82712D01*
X306530Y82813D01*
X306449Y82913D01*
X306357Y82995D01*
X306257Y83068D01*
X306175Y83122D01*
X306102Y83159D01*
X306057Y83186D01*
X306048Y83195D01*
X306038D01*
X305957Y83232D01*
X305874Y83259D01*
X305683Y83314D01*
X305483Y83350D01*
X305292Y83368D01*
X305109Y83387D01*
X305036D01*
X304973Y83396D01*
D02*
G37*
G36*
X297630Y83396D02*
Y78722D01*
D01*
D01*
Y83396D01*
D02*
G37*
G36*
X283291Y85026D02*
Y78722D01*
X280758Y85026D01*
X283291D01*
X276969D01*
X279410D01*
X276969Y78722D01*
D01*
X283291D01*
Y85026D01*
D02*
G37*
G36*
X336730Y83396D02*
X336630D01*
X336466Y83387D01*
X336311Y83368D01*
X336156Y83332D01*
X336019Y83296D01*
X335883Y83250D01*
X335764Y83195D01*
X335646Y83131D01*
X335546Y83077D01*
X335455Y83013D01*
X335373Y82949D01*
X335300Y82895D01*
X335245Y82849D01*
X335200Y82813D01*
X335163Y82776D01*
X335145Y82758D01*
X335136Y82749D01*
X335036Y82621D01*
X334945Y82485D01*
X334863Y82348D01*
X334790Y82202D01*
X334735Y82047D01*
X334689Y81902D01*
X334617Y81619D01*
X334589Y81483D01*
X334571Y81364D01*
X334562Y81255D01*
X334553Y81164D01*
X334544Y81082D01*
Y80972D01*
X334553Y80799D01*
X334562Y80626D01*
X334589Y80471D01*
X334617Y80326D01*
X334644Y80180D01*
X334689Y80052D01*
X334726Y79934D01*
X334771Y79825D01*
X334808Y79724D01*
X334853Y79642D01*
X334890Y79570D01*
X334917Y79506D01*
X334954Y79460D01*
X334972Y79424D01*
X334981Y79405D01*
X334990Y79396D01*
X335108Y79260D01*
X335227Y79141D01*
X335364Y79041D01*
X335509Y78950D01*
X335655Y78877D01*
X335801Y78813D01*
X335947Y78759D01*
X336092Y78722D01*
X336220Y78686D01*
X336348Y78668D01*
X336466Y78649D01*
X336566Y78631D01*
X336648D01*
X336703Y78622D01*
X338807D01*
Y80909D01*
X338789Y81136D01*
X338762Y81355D01*
X338725Y81555D01*
X338680Y81747D01*
X338634Y81911D01*
X338579Y82066D01*
X338525Y82202D01*
X338470Y82321D01*
X338416Y82430D01*
X338370Y82512D01*
X338324Y82585D01*
X338288Y82639D01*
X338261Y82685D01*
X338242Y82703D01*
X338233Y82712D01*
X338124Y82831D01*
X337996Y82940D01*
X337869Y83031D01*
X337741Y83104D01*
X337605Y83177D01*
X337468Y83232D01*
X337340Y83277D01*
X337213Y83314D01*
X337094Y83341D01*
X336985Y83359D01*
X336885Y83377D01*
X336803Y83387D01*
X336730Y83396D01*
D02*
G37*
G36*
X320988Y85145D02*
X315094D01*
D01*
X318219D01*
X317891Y85136D01*
X317599Y85099D01*
X317472Y85072D01*
X317344Y85045D01*
X317226Y85017D01*
X317125Y84990D01*
X317034Y84953D01*
X316943Y84926D01*
X316879Y84899D01*
X316816Y84881D01*
X316770Y84853D01*
X316734Y84844D01*
X316715Y84826D01*
X316706D01*
X316424Y84662D01*
X316305Y84562D01*
X316187Y84471D01*
X316078Y84370D01*
X315978Y84270D01*
X315886Y84170D01*
X315804Y84079D01*
X315741Y83988D01*
X315677Y83906D01*
X315622Y83833D01*
X315577Y83769D01*
X315549Y83714D01*
X315522Y83678D01*
X315513Y83651D01*
X315504Y83642D01*
X315431Y83496D01*
X315367Y83350D01*
X315267Y83049D01*
X315194Y82749D01*
X315148Y82485D01*
X315130Y82357D01*
X315112Y82248D01*
X315103Y82148D01*
Y82056D01*
X315094Y81993D01*
Y81893D01*
X315112Y81555D01*
X315148Y81246D01*
X315212Y80963D01*
X315240Y80827D01*
X315276Y80708D01*
X315313Y80599D01*
X315340Y80499D01*
X315376Y80417D01*
X315404Y80344D01*
X315422Y80289D01*
X315440Y80244D01*
X315458Y80216D01*
Y80207D01*
X315613Y79934D01*
X315786Y79697D01*
X315968Y79488D01*
X316151Y79324D01*
X316233Y79251D01*
X316315Y79187D01*
X316378Y79132D01*
X316442Y79096D01*
X316488Y79059D01*
X316533Y79032D01*
X316551Y79023D01*
X316561Y79014D01*
X316706Y78941D01*
X316843Y78877D01*
X317144Y78777D01*
X317435Y78704D01*
X317699Y78658D01*
X317827Y78640D01*
X317936Y78622D01*
X318036Y78613D01*
X318127D01*
X318191Y78604D01*
X318291D01*
X318583Y78613D01*
X318856Y78649D01*
X319121Y78695D01*
X319348Y78750D01*
X319448Y78777D01*
X319539Y78804D01*
X319621Y78832D01*
X319694Y78850D01*
X319749Y78868D01*
X319785Y78886D01*
X319813Y78895D01*
X319822D01*
X320095Y79005D01*
X320323Y79123D01*
X320523Y79242D01*
X320696Y79342D01*
X320824Y79433D01*
X320870Y79469D01*
X320915Y79506D01*
X320942Y79533D01*
X320970Y79551D01*
X320988Y79570D01*
Y78604D01*
D01*
D01*
Y85145D01*
D02*
G37*
G36*
X331410Y76864D02*
D01*
X329242D01*
X331410D01*
D02*
G37*
G36*
X316041Y73032D02*
D01*
Y68440D01*
X316032Y68659D01*
X316005Y68850D01*
X315959Y69023D01*
X315914Y69169D01*
X315868Y69287D01*
X315823Y69369D01*
X315795Y69424D01*
X315786Y69442D01*
X315686Y69588D01*
X315568Y69715D01*
X315449Y69825D01*
X315340Y69916D01*
X315240Y69989D01*
X315158Y70043D01*
X315103Y70080D01*
X315094Y70089D01*
X315085D01*
X314994Y70135D01*
X314902Y70180D01*
X314684Y70262D01*
X314456Y70335D01*
X314237Y70408D01*
X314137Y70435D01*
X314037Y70463D01*
X313946Y70490D01*
X313873Y70508D01*
X313809Y70526D01*
X313764Y70535D01*
X313727Y70544D01*
X313718D01*
X313554Y70590D01*
X313408Y70626D01*
X313272Y70663D01*
X313144Y70699D01*
X313044Y70736D01*
X312944Y70772D01*
X312862Y70809D01*
X312789Y70836D01*
X312725Y70863D01*
X312680Y70891D01*
X312634Y70909D01*
X312607Y70927D01*
X312561Y70954D01*
X312552Y70964D01*
X312488Y71027D01*
X312443Y71091D01*
X312416Y71155D01*
X312397Y71219D01*
X312379Y71264D01*
X312370Y71310D01*
Y71337D01*
Y71346D01*
X312379Y71437D01*
X312397Y71510D01*
X312434Y71583D01*
X312470Y71638D01*
X312507Y71683D01*
X312543Y71711D01*
X312561Y71729D01*
X312570Y71738D01*
X312698Y71820D01*
X312835Y71874D01*
X312980Y71920D01*
X313117Y71947D01*
X313235Y71966D01*
X313336Y71975D01*
X313427D01*
X313618Y71966D01*
X313782Y71938D01*
X313919Y71902D01*
X314028Y71865D01*
X314119Y71829D01*
X314183Y71793D01*
X314219Y71765D01*
X314228Y71756D01*
X314319Y71665D01*
X314402Y71556D01*
X314465Y71446D01*
X314511Y71328D01*
X314547Y71228D01*
X314565Y71146D01*
X314584Y71082D01*
Y71073D01*
Y71064D01*
X315859Y71109D01*
X315850Y71273D01*
X315823Y71419D01*
X315786Y71565D01*
X315741Y71692D01*
X315695Y71820D01*
X315640Y71938D01*
X315586Y72039D01*
X315531Y72139D01*
X315467Y72221D01*
X315413Y72294D01*
X315358Y72357D01*
X315313Y72412D01*
X315276Y72448D01*
X315249Y72476D01*
X315230Y72494D01*
X315221Y72503D01*
X315103Y72594D01*
X314975Y72676D01*
X314839Y72749D01*
X314693Y72813D01*
X314547Y72858D01*
X314402Y72904D01*
X314110Y72968D01*
X313973Y72986D01*
X313855Y73004D01*
X313737Y73013D01*
X313636Y73022D01*
X313554Y73032D01*
X316041D01*
X313445D01*
X313181Y73022D01*
X312944Y72995D01*
X312734Y72959D01*
X312552Y72922D01*
X312470Y72895D01*
X312397Y72877D01*
X312343Y72858D01*
X312288Y72840D01*
X312251Y72822D01*
X312224Y72813D01*
X312206Y72804D01*
X312197D01*
X312015Y72713D01*
X311860Y72613D01*
X311723Y72503D01*
X311614Y72403D01*
X311523Y72312D01*
X311468Y72239D01*
X311422Y72184D01*
X311413Y72175D01*
Y72166D01*
X311322Y72011D01*
X311259Y71847D01*
X311213Y71692D01*
X311186Y71556D01*
X311167Y71437D01*
X311149Y71346D01*
Y71310D01*
Y71282D01*
Y71273D01*
Y71264D01*
X311158Y71127D01*
X311176Y70991D01*
X311204Y70872D01*
X311240Y70754D01*
X311331Y70535D01*
X311441Y70344D01*
X311486Y70262D01*
X311541Y70198D01*
X311586Y70135D01*
X311632Y70080D01*
X311668Y70043D01*
X311696Y70016D01*
X311714Y69998D01*
X311723Y69989D01*
X311805Y69925D01*
X311905Y69861D01*
X312006Y69797D01*
X312124Y69743D01*
X312352Y69634D01*
X312589Y69542D01*
X312707Y69506D01*
X312807Y69469D01*
X312908Y69442D01*
X312989Y69415D01*
X313053Y69397D01*
X313108Y69378D01*
X313144Y69369D01*
X313153D01*
X313299Y69333D01*
X313427Y69296D01*
X313545Y69269D01*
X313654Y69242D01*
X313746Y69214D01*
X313828Y69196D01*
X313900Y69169D01*
X313964Y69151D01*
X314019Y69142D01*
X314064Y69123D01*
X314128Y69105D01*
X314165Y69087D01*
X314174D01*
X314292Y69041D01*
X314383Y68996D01*
X314465Y68950D01*
X314529Y68905D01*
X314575Y68868D01*
X314602Y68841D01*
X314620Y68823D01*
X314629Y68814D01*
X314675Y68750D01*
X314711Y68686D01*
X314729Y68622D01*
X314748Y68568D01*
X314757Y68513D01*
X314766Y68467D01*
Y68440D01*
Y68431D01*
X314757Y68303D01*
X314720Y68194D01*
X314666Y68085D01*
X314611Y67994D01*
X314547Y67921D01*
X314502Y67866D01*
X314465Y67830D01*
X314447Y67821D01*
X314319Y67739D01*
X314174Y67675D01*
X314019Y67629D01*
X313873Y67602D01*
X313737Y67584D01*
X313627Y67566D01*
X313527D01*
X313317Y67575D01*
X313135Y67611D01*
X312980Y67657D01*
X312844Y67711D01*
X312734Y67766D01*
X312662Y67812D01*
X312616Y67848D01*
X312598Y67857D01*
X312479Y67985D01*
X312388Y68121D01*
X312306Y68276D01*
X312251Y68431D01*
X312206Y68568D01*
X312170Y68677D01*
X312160Y68713D01*
Y68750D01*
X312151Y68768D01*
Y68777D01*
X310912Y68659D01*
D01*
X310940Y68467D01*
X310976Y68285D01*
X311031Y68112D01*
X311076Y67957D01*
X311140Y67812D01*
X311204Y67675D01*
X311268Y67556D01*
X311331Y67447D01*
X311395Y67356D01*
X311459Y67274D01*
X311514Y67201D01*
X311568Y67137D01*
X311605Y67092D01*
X311641Y67064D01*
X311659Y67046D01*
X311668Y67037D01*
X311796Y66937D01*
X311933Y66855D01*
X312078Y66782D01*
X312233Y66718D01*
X312379Y66673D01*
X312534Y66627D01*
X312835Y66563D01*
X312971Y66536D01*
X313099Y66518D01*
X313208Y66509D01*
X313308Y66500D01*
X313390Y66491D01*
X316041D01*
Y73032D01*
D02*
G37*
G36*
X343991Y71282D02*
Y66609D01*
X342251D01*
Y68012D01*
Y68221D01*
Y68413D01*
X342260Y68586D01*
X342269Y68741D01*
Y68887D01*
X342278Y69005D01*
X342287Y69123D01*
X342296Y69214D01*
X342305Y69296D01*
X342315Y69369D01*
X342324Y69424D01*
Y69469D01*
X342333Y69497D01*
X342342Y69524D01*
Y69542D01*
X342378Y69670D01*
X342424Y69779D01*
X342469Y69870D01*
X342515Y69934D01*
X342551Y69989D01*
X342588Y70025D01*
X342606Y70043D01*
X342615Y70052D01*
X342688Y70098D01*
X342761Y70135D01*
X342834Y70162D01*
X342898Y70180D01*
X342952Y70189D01*
X343007Y70198D01*
X343043D01*
X343144Y70189D01*
X343244Y70171D01*
X343335Y70135D01*
X343426Y70098D01*
X343499Y70062D01*
X343553Y70025D01*
X343599Y70007D01*
X343608Y69998D01*
X343991Y71046D01*
X343845Y71127D01*
X343708Y71182D01*
X343572Y71228D01*
X343444Y71255D01*
X343344Y71273D01*
X343262Y71282D01*
X343189D01*
X343080Y71273D01*
X342989Y71264D01*
X342898Y71237D01*
X342825Y71210D01*
X342761Y71182D01*
X342706Y71164D01*
X342679Y71146D01*
X342670Y71137D01*
X342579Y71073D01*
X342497Y70982D01*
X342406Y70882D01*
X342333Y70781D01*
X342260Y70681D01*
X342205Y70599D01*
X342169Y70544D01*
X342160Y70535D01*
Y71182D01*
X341039D01*
Y66609D01*
X343991D01*
Y71282D01*
D02*
G37*
G36*
X346350D02*
X346250D01*
X346086Y71273D01*
X345931Y71255D01*
X345776Y71219D01*
X345640Y71182D01*
X345503Y71137D01*
X345385Y71082D01*
X345266Y71018D01*
X345166Y70964D01*
X345075Y70900D01*
X344993Y70836D01*
X344920Y70781D01*
X344865Y70736D01*
X344820Y70699D01*
X344783Y70663D01*
X344765Y70645D01*
X344756Y70636D01*
X344656Y70508D01*
X344565Y70371D01*
X344483Y70235D01*
X344410Y70089D01*
X344355Y69934D01*
X344310Y69788D01*
X344237Y69506D01*
X344209Y69369D01*
X344191Y69251D01*
X344182Y69142D01*
X344173Y69050D01*
X344164Y68968D01*
Y68978D01*
Y68859D01*
X344173Y68686D01*
X344182Y68513D01*
X344209Y68358D01*
X344237Y68212D01*
X344264Y68067D01*
X344310Y67939D01*
X344346Y67821D01*
X344392Y67711D01*
X344428Y67611D01*
X344474Y67529D01*
X344510Y67456D01*
X344537Y67392D01*
X344574Y67347D01*
X344592Y67310D01*
X344601Y67292D01*
X344610Y67283D01*
X344729Y67146D01*
X344847Y67028D01*
X344984Y66928D01*
X345129Y66837D01*
X345275Y66764D01*
X345421Y66700D01*
X345567Y66645D01*
X345713Y66609D01*
X345840Y66572D01*
X345968Y66554D01*
X346086Y66536D01*
X346186Y66518D01*
X346268D01*
X346323Y66509D01*
X348427D01*
Y68795D01*
X348409Y69023D01*
X348382Y69242D01*
X348345Y69442D01*
X348300Y69634D01*
X348254Y69797D01*
X348200Y69952D01*
X348145Y70089D01*
X348090Y70207D01*
X348036Y70317D01*
X347990Y70399D01*
X347944Y70472D01*
X347908Y70526D01*
X347881Y70572D01*
X347863Y70590D01*
X347853Y70599D01*
X347744Y70718D01*
X347617Y70827D01*
X347489Y70918D01*
X347361Y70991D01*
X347225Y71064D01*
X347088Y71118D01*
X346961Y71164D01*
X346833Y71200D01*
X346715Y71228D01*
X346605Y71246D01*
X346505Y71264D01*
X346423Y71273D01*
X346350Y71282D01*
D02*
G37*
G36*
X363659Y71282D02*
Y68905D01*
X363650Y69096D01*
X363632Y69278D01*
X363596Y69442D01*
X363559Y69606D01*
X363504Y69752D01*
X363450Y69898D01*
X363386Y70025D01*
X363331Y70144D01*
X363267Y70244D01*
X363204Y70344D01*
X363149Y70417D01*
X363094Y70490D01*
X363058Y70535D01*
X363022Y70581D01*
X363003Y70599D01*
X362994Y70608D01*
X362867Y70727D01*
X362730Y70827D01*
X362593Y70918D01*
X362448Y71000D01*
X362302Y71064D01*
X362165Y71118D01*
X362029Y71164D01*
X361892Y71200D01*
X361773Y71228D01*
X361655Y71246D01*
X361555Y71264D01*
X361464Y71273D01*
X361391Y71282D01*
X363659D01*
X361291D01*
X361045Y71273D01*
X360817Y71237D01*
X360607Y71191D01*
X360425Y71137D01*
X360352Y71100D01*
X360279Y71073D01*
X360216Y71055D01*
X360170Y71027D01*
X360125Y71009D01*
X360097Y70991D01*
X360079Y70982D01*
X360070D01*
X359879Y70854D01*
X359715Y70718D01*
X359569Y70572D01*
X359450Y70435D01*
X359359Y70308D01*
X359286Y70207D01*
X359259Y70171D01*
X359250Y70144D01*
X359232Y70125D01*
Y70116D01*
X359132Y69907D01*
X359068Y69697D01*
X359013Y69506D01*
X358977Y69333D01*
X358959Y69178D01*
X358949Y69114D01*
Y69060D01*
X358940Y69023D01*
Y68959D01*
X358949Y68677D01*
X358986Y68413D01*
X359031Y68185D01*
X359059Y68085D01*
X359086Y67994D01*
X359113Y67912D01*
X359141Y67839D01*
X359168Y67775D01*
X359186Y67720D01*
X359205Y67675D01*
X359223Y67647D01*
X359232Y67629D01*
Y67620D01*
X359359Y67429D01*
X359496Y67265D01*
X359642Y67119D01*
X359778Y67001D01*
X359906Y66910D01*
X360006Y66846D01*
X360043Y66818D01*
X360070Y66800D01*
X360088Y66791D01*
X360097D01*
X360316Y66700D01*
X360525Y66627D01*
X360726Y66582D01*
X360917Y66545D01*
X361072Y66527D01*
X361136Y66518D01*
X361191D01*
X361236Y66509D01*
X358940Y66509D01*
D01*
X363659Y66509D01*
Y71282D01*
D02*
G37*
G36*
X340019Y72913D02*
Y68431D01*
X340010Y68631D01*
X339973Y68814D01*
X339919Y68968D01*
X339864Y69114D01*
X339809Y69223D01*
X339755Y69305D01*
X339718Y69360D01*
X339709Y69378D01*
X339581Y69524D01*
X339445Y69643D01*
X339290Y69743D01*
X339153Y69816D01*
X339026Y69879D01*
X338916Y69925D01*
X338880Y69934D01*
X338853Y69943D01*
X338835Y69952D01*
X338825D01*
X338971Y70034D01*
X339099Y70116D01*
X339208Y70217D01*
X339299Y70298D01*
X339363Y70381D01*
X339418Y70444D01*
X339454Y70490D01*
X339463Y70508D01*
X339545Y70654D01*
X339609Y70790D01*
X339645Y70927D01*
X339682Y71055D01*
X339700Y71164D01*
X339709Y71246D01*
Y71301D01*
Y71310D01*
Y71319D01*
X339700Y71465D01*
X339682Y71610D01*
X339645Y71729D01*
X339609Y71838D01*
X339572Y71929D01*
X339536Y72002D01*
X339518Y72039D01*
X339509Y72057D01*
X339436Y72175D01*
X339354Y72275D01*
X339272Y72366D01*
X339199Y72448D01*
X339126Y72503D01*
X339071Y72549D01*
X339035Y72576D01*
X339026Y72585D01*
X338916Y72658D01*
X338798Y72713D01*
X338689Y72758D01*
X338589Y72795D01*
X338497Y72822D01*
X338434Y72840D01*
X338388Y72849D01*
X338370D01*
X338215Y72868D01*
X338042Y72886D01*
X337860Y72895D01*
X337678Y72904D01*
X337514Y72913D01*
X334744D01*
Y66609D01*
X337477D01*
X337632Y66618D01*
X337905D01*
X338015Y66627D01*
X338188D01*
X338251Y66636D01*
X338343D01*
X338379Y66645D01*
X338416D01*
X338598Y66673D01*
X338762Y66718D01*
X338907Y66764D01*
X339035Y66818D01*
X339135Y66864D01*
X339208Y66910D01*
X339254Y66937D01*
X339272Y66946D01*
X339399Y67046D01*
X339499Y67156D01*
X339600Y67256D01*
X339673Y67365D01*
X339736Y67456D01*
X339782Y67529D01*
X339809Y67575D01*
X339818Y67593D01*
X339882Y67748D01*
X339937Y67893D01*
X339973Y68039D01*
X339991Y68167D01*
X340010Y68276D01*
X340019Y68358D01*
Y66609D01*
D01*
D01*
Y72913D01*
D02*
G37*
G36*
X328759D02*
Y68431D01*
X328750Y68631D01*
X328713Y68814D01*
X328659Y68968D01*
X328604Y69114D01*
X328549Y69223D01*
X328495Y69305D01*
X328458Y69360D01*
X328449Y69378D01*
X328322Y69524D01*
X328185Y69643D01*
X328030Y69743D01*
X327893Y69816D01*
X327766Y69879D01*
X327657Y69925D01*
X327620Y69934D01*
X327593Y69943D01*
X327574Y69952D01*
X327565D01*
X327711Y70034D01*
X327839Y70116D01*
X327948Y70217D01*
X328039Y70298D01*
X328103Y70381D01*
X328158Y70444D01*
X328194Y70490D01*
X328203Y70508D01*
X328285Y70654D01*
X328349Y70790D01*
X328385Y70927D01*
X328422Y71055D01*
X328440Y71164D01*
X328449Y71246D01*
Y71301D01*
Y71310D01*
Y71319D01*
X328440Y71465D01*
X328422Y71610D01*
X328385Y71729D01*
X328349Y71838D01*
X328312Y71929D01*
X328276Y72002D01*
X328258Y72039D01*
X328249Y72057D01*
X328176Y72175D01*
X328094Y72275D01*
X328012Y72366D01*
X327939Y72448D01*
X327866Y72503D01*
X327811Y72549D01*
X327775Y72576D01*
X327766Y72585D01*
X327657Y72658D01*
X327538Y72713D01*
X327429Y72758D01*
X327329Y72795D01*
X327238Y72822D01*
X327174Y72840D01*
X327128Y72849D01*
X327110D01*
X326955Y72868D01*
X326782Y72886D01*
X326600Y72895D01*
X326418Y72904D01*
X326254Y72913D01*
X323484D01*
Y66609D01*
X326217D01*
X326372Y66618D01*
X326645D01*
X326755Y66627D01*
X326928D01*
X326992Y66636D01*
X327083D01*
X327119Y66645D01*
X327155D01*
X327338Y66673D01*
X327502Y66718D01*
X327647Y66764D01*
X327775Y66818D01*
X327875Y66864D01*
X327948Y66910D01*
X327994Y66937D01*
X328012Y66946D01*
X328139Y67046D01*
X328240Y67156D01*
X328340Y67256D01*
X328413Y67365D01*
X328476Y67456D01*
X328522Y67529D01*
X328549Y67575D01*
X328558Y67593D01*
X328622Y67748D01*
X328677Y67893D01*
X328713Y68039D01*
X328731Y68167D01*
X328750Y68276D01*
X328759Y68358D01*
Y66609D01*
D01*
D01*
Y72913D01*
D02*
G37*
G36*
X353383Y71282D02*
X349092D01*
X351033D01*
X350887Y71264D01*
X350741Y71255D01*
X350614Y71228D01*
X350486Y71210D01*
X350377Y71182D01*
X350277Y71146D01*
X350186Y71118D01*
X350113Y71091D01*
X350040Y71055D01*
X349985Y71027D01*
X349931Y71009D01*
X349894Y70982D01*
X349867Y70973D01*
X349858Y70954D01*
X349849D01*
X349694Y70818D01*
X349566Y70663D01*
X349457Y70499D01*
X349366Y70344D01*
X349302Y70198D01*
X349275Y70135D01*
X349256Y70080D01*
X349238Y70034D01*
X349229Y69998D01*
X349220Y69980D01*
Y69971D01*
X350304Y69770D01*
X350349Y69879D01*
X350395Y69971D01*
X350441Y70052D01*
X350495Y70116D01*
X350532Y70162D01*
X350568Y70189D01*
X350586Y70207D01*
X350595Y70217D01*
X350668Y70262D01*
X350750Y70298D01*
X350841Y70317D01*
X350923Y70335D01*
X350996Y70344D01*
X351051Y70353D01*
X351106D01*
X351270Y70344D01*
X351406Y70326D01*
X351516Y70308D01*
X351607Y70280D01*
X351671Y70244D01*
X351716Y70226D01*
X351743Y70207D01*
X351752Y70198D01*
X351816Y70135D01*
X351862Y70062D01*
X351889Y69980D01*
X351917Y69898D01*
X351926Y69816D01*
X351935Y69752D01*
Y69715D01*
Y69697D01*
Y69579D01*
X351871Y69551D01*
X351789Y69524D01*
X351616Y69469D01*
X351415Y69424D01*
X351224Y69378D01*
X351042Y69333D01*
X350960Y69315D01*
X350887Y69305D01*
X350832Y69296D01*
X350787Y69287D01*
X350760Y69278D01*
X350750D01*
X350532Y69233D01*
X350331Y69187D01*
X350167Y69142D01*
X350031Y69096D01*
X349921Y69050D01*
X349849Y69023D01*
X349803Y69005D01*
X349785Y68996D01*
X349666Y68932D01*
X349566Y68859D01*
X349475Y68777D01*
X349411Y68704D01*
X349347Y68641D01*
X349311Y68586D01*
X349284Y68549D01*
X349275Y68531D01*
X349211Y68413D01*
X349165Y68294D01*
X349138Y68185D01*
X349120Y68076D01*
X349101Y67985D01*
X349092Y67912D01*
Y67912D01*
Y67848D01*
X349101Y67739D01*
X349111Y67638D01*
X349156Y67447D01*
X349220Y67283D01*
X349293Y67146D01*
X349366Y67037D01*
X349429Y66955D01*
X349475Y66900D01*
X349493Y66891D01*
Y66882D01*
X349657Y66755D01*
X349839Y66664D01*
X350022Y66600D01*
X350204Y66554D01*
X350359Y66527D01*
X350431Y66518D01*
X350486D01*
X350541Y66509D01*
X350640D01*
X350605D01*
X350750Y66518D01*
X350896Y66536D01*
X351024Y66554D01*
X351133Y66582D01*
X351224Y66609D01*
X351297Y66636D01*
X351343Y66645D01*
X351361Y66654D01*
X351488Y66718D01*
X351616Y66782D01*
X351725Y66864D01*
X351825Y66937D01*
X351907Y67001D01*
X351971Y67055D01*
X352008Y67092D01*
X352026Y67101D01*
X352035Y67064D01*
X352053Y67019D01*
X352062Y66983D01*
X352071Y66973D01*
Y66964D01*
X352099Y66882D01*
X352117Y66809D01*
X352135Y66746D01*
X352153Y66700D01*
X352171Y66664D01*
X352181Y66627D01*
X352190Y66618D01*
Y66609D01*
X353383D01*
X353328Y66727D01*
X353283Y66837D01*
X353246Y66937D01*
X353210Y67028D01*
X353192Y67101D01*
X353174Y67165D01*
X353165Y67201D01*
Y67210D01*
X353146Y67329D01*
X353137Y67474D01*
X353119Y67620D01*
Y67766D01*
X353110Y67893D01*
Y68003D01*
Y68048D01*
Y68076D01*
Y68094D01*
Y68103D01*
X353128Y69515D01*
Y69661D01*
X353119Y69788D01*
X353110Y69907D01*
X353101Y70016D01*
X353092Y70116D01*
X353073Y70207D01*
X353064Y70289D01*
X353046Y70353D01*
X353028Y70417D01*
X353019Y70463D01*
X352991Y70544D01*
X352973Y70581D01*
X352964Y70599D01*
X352891Y70699D01*
X352809Y70800D01*
X352718Y70882D01*
X352618Y70954D01*
X352536Y71009D01*
X352463Y71046D01*
X352417Y71073D01*
X352408Y71082D01*
X352399D01*
X352317Y71118D01*
X352235Y71146D01*
X352044Y71200D01*
X351844Y71237D01*
X351652Y71255D01*
X351470Y71273D01*
X351397D01*
X351333Y71282D01*
X353383D01*
D01*
D02*
G37*
G36*
X287919Y72913D02*
Y67675D01*
X284329D01*
X287782Y71920D01*
Y72913D01*
X283172D01*
Y71847D01*
X286115D01*
X282790Y67757D01*
Y66609D01*
X287919D01*
Y72913D01*
D02*
G37*
G36*
X322136Y72913D02*
X319621D01*
X320861D01*
Y69415D01*
Y69278D01*
Y69151D01*
X320851Y69032D01*
Y68923D01*
X320842Y68832D01*
Y68741D01*
X320833Y68659D01*
Y68586D01*
X320815Y68476D01*
X320806Y68395D01*
X320797Y68349D01*
Y68331D01*
X320769Y68212D01*
X320724Y68112D01*
X320669Y68021D01*
X320615Y67939D01*
X320560Y67875D01*
X320514Y67830D01*
X320478Y67802D01*
X320469Y67793D01*
X320359Y67720D01*
X320223Y67666D01*
X320095Y67629D01*
X319959Y67602D01*
X319840Y67584D01*
X319749Y67575D01*
X319658D01*
X319467Y67584D01*
X319303Y67611D01*
X319157Y67647D01*
X319029Y67693D01*
X318938Y67730D01*
X318865Y67766D01*
X318829Y67793D01*
X318811Y67802D01*
X318710Y67893D01*
X318629Y68003D01*
X318556Y68103D01*
X318510Y68203D01*
X318474Y68294D01*
X318446Y68367D01*
X318428Y68413D01*
Y68431D01*
X318419Y68486D01*
X318410Y68540D01*
Y68613D01*
X318401Y68695D01*
X318392Y68868D01*
Y69050D01*
X318383Y69214D01*
Y69287D01*
Y69360D01*
Y69415D01*
Y69451D01*
Y69479D01*
Y69488D01*
Y72913D01*
X317107D01*
Y69351D01*
X317116Y69169D01*
Y68996D01*
X317125Y68841D01*
X317134Y68695D01*
X317144Y68568D01*
X317153Y68449D01*
X317171Y68340D01*
X317180Y68249D01*
X317189Y68167D01*
X317198Y68094D01*
X317207Y68039D01*
X317216Y67994D01*
Y67966D01*
X317226Y67948D01*
Y67939D01*
X317271Y67802D01*
X317317Y67675D01*
X317380Y67556D01*
X317435Y67456D01*
X317490Y67365D01*
X317535Y67292D01*
X317572Y67256D01*
X317581Y67238D01*
X317690Y67119D01*
X317809Y67010D01*
X317936Y66919D01*
X318055Y66837D01*
X318155Y66773D01*
X318246Y66727D01*
X318301Y66700D01*
X318310Y66691D01*
X318319D01*
X318410Y66654D01*
X318510Y66627D01*
X318738Y66572D01*
X318966Y66536D01*
X319184Y66518D01*
X319285Y66509D01*
X319385Y66500D01*
X319467D01*
X319549Y66491D01*
X317107D01*
X319694D01*
X319959Y66500D01*
X320195Y66518D01*
X320405Y66554D01*
X320578Y66591D01*
X320651Y66600D01*
X320724Y66618D01*
X320778Y66636D01*
X320824Y66654D01*
X320861Y66664D01*
X320888Y66673D01*
X320897Y66682D01*
X320906D01*
X321070Y66755D01*
X321216Y66846D01*
X321343Y66928D01*
X321453Y67010D01*
X321535Y67083D01*
X321598Y67137D01*
X321635Y67174D01*
X321644Y67192D01*
X321744Y67320D01*
X321826Y67456D01*
X321890Y67584D01*
X321945Y67711D01*
X321981Y67821D01*
X322008Y67912D01*
X322018Y67939D01*
Y67966D01*
X322027Y67975D01*
Y67985D01*
X322045Y68085D01*
X322063Y68194D01*
X322081Y68313D01*
X322090Y68431D01*
X322109Y68704D01*
X322127Y68968D01*
Y69087D01*
Y69205D01*
X322136Y69315D01*
Y66491D01*
D01*
D01*
Y72913D01*
D02*
G37*
G36*
X281997Y72913D02*
X280722D01*
Y69415D01*
Y69278D01*
Y69151D01*
X280713Y69032D01*
Y68923D01*
X280704Y68832D01*
Y68741D01*
X280695Y68659D01*
Y68586D01*
X280676Y68476D01*
X280667Y68395D01*
X280658Y68349D01*
Y68331D01*
X280631Y68212D01*
X280585Y68112D01*
X280531Y68021D01*
X280476Y67939D01*
X280421Y67875D01*
X280376Y67830D01*
X280339Y67802D01*
X280330Y67793D01*
X280221Y67720D01*
X280084Y67666D01*
X279957Y67629D01*
X279820Y67602D01*
X279701Y67584D01*
X279610Y67575D01*
X279519D01*
X279328Y67584D01*
X279164Y67611D01*
X279018Y67647D01*
X278891Y67693D01*
X278800Y67730D01*
X278727Y67766D01*
X278690Y67793D01*
X278672Y67802D01*
X278572Y67893D01*
X278490Y68003D01*
X278417Y68103D01*
X278371Y68203D01*
X278335Y68294D01*
X278308Y68367D01*
X278289Y68413D01*
Y68431D01*
X278280Y68486D01*
X278271Y68540D01*
Y68613D01*
X278262Y68695D01*
X278253Y68868D01*
Y69050D01*
X278244Y69214D01*
Y69287D01*
Y69360D01*
Y69415D01*
Y69451D01*
Y69479D01*
Y69488D01*
Y72913D01*
X276969D01*
Y69351D01*
X276978Y69169D01*
Y68996D01*
X276987Y68841D01*
X276996Y68695D01*
X277005Y68568D01*
X277014Y68449D01*
X277032Y68340D01*
X277041Y68249D01*
X277050Y68167D01*
X277060Y68094D01*
X277069Y68039D01*
X277078Y67994D01*
Y67966D01*
X277087Y67948D01*
Y67939D01*
X277133Y67802D01*
X277178Y67675D01*
X277242Y67556D01*
X277296Y67456D01*
X277351Y67365D01*
X277397Y67292D01*
X277433Y67256D01*
X277442Y67238D01*
X277552Y67119D01*
X277670Y67010D01*
X277798Y66919D01*
X277916Y66837D01*
X278016Y66773D01*
X278107Y66727D01*
X278162Y66700D01*
X278171Y66691D01*
X278180D01*
X278271Y66654D01*
X278371Y66627D01*
X278599Y66572D01*
X278827Y66536D01*
X279046Y66518D01*
X279146Y66509D01*
X279246Y66500D01*
X279328D01*
X279410Y66491D01*
X276969D01*
X281997D01*
Y72913D01*
D02*
G37*
G36*
X368743Y71182D02*
X366661D01*
X367531D01*
Y69251D01*
Y69078D01*
Y68923D01*
X367522Y68777D01*
X367513Y68650D01*
Y68531D01*
X367504Y68431D01*
X367495Y68349D01*
X367485Y68267D01*
X367476Y68203D01*
X367467Y68158D01*
X367458Y68112D01*
Y68076D01*
X367440Y68030D01*
Y68021D01*
X367404Y67930D01*
X367349Y67848D01*
X367294Y67784D01*
X367239Y67720D01*
X367185Y67666D01*
X367139Y67629D01*
X367112Y67611D01*
X367103Y67602D01*
X367012Y67547D01*
X366912Y67511D01*
X366820Y67474D01*
X366729Y67456D01*
X366656Y67447D01*
X366602Y67438D01*
X366547D01*
X366447Y67447D01*
X366365Y67456D01*
X366283Y67474D01*
X366219Y67502D01*
X366164Y67520D01*
X366128Y67538D01*
X366101Y67547D01*
X366092Y67556D01*
X366028Y67611D01*
X365982Y67666D01*
X365937Y67720D01*
X365909Y67775D01*
X365882Y67830D01*
X365864Y67866D01*
X365855Y67893D01*
Y67903D01*
X365846Y67948D01*
X365837Y68012D01*
X365827Y68094D01*
X365818Y68176D01*
X365809Y68367D01*
X365800Y68577D01*
X365791Y68768D01*
Y68850D01*
Y68923D01*
Y68987D01*
Y69032D01*
Y69069D01*
Y69078D01*
Y71182D01*
X364579D01*
Y68285D01*
X364588Y68058D01*
X364607Y67857D01*
X364634Y67684D01*
X364661Y67538D01*
X364689Y67420D01*
X364716Y67338D01*
X364734Y67292D01*
X364743Y67274D01*
X364816Y67146D01*
X364898Y67028D01*
X364980Y66937D01*
X365071Y66855D01*
X365144Y66791D01*
X365217Y66746D01*
X365253Y66718D01*
X365272Y66709D01*
X365408Y66645D01*
X365554Y66591D01*
X365691Y66554D01*
X365827Y66536D01*
X365937Y66518D01*
X366019Y66509D01*
X364579D01*
X366101D01*
X366265Y66518D01*
X366420Y66536D01*
X366565Y66572D01*
X366693Y66609D01*
X366802Y66645D01*
X366884Y66682D01*
X366939Y66700D01*
X366957Y66709D01*
X367103Y66791D01*
X367230Y66891D01*
X367349Y66983D01*
X367440Y67083D01*
X367522Y67165D01*
X367577Y67228D01*
X367613Y67274D01*
X367622Y67292D01*
Y66609D01*
X368743D01*
Y66527D01*
Y71182D01*
D02*
G37*
G36*
X358494Y72913D02*
Y66609D01*
X356818Y69506D01*
X358385Y71182D01*
X356900D01*
X355488Y69570D01*
Y72913D01*
X354276D01*
Y66609D01*
X358494D01*
Y72913D01*
D02*
G37*
G36*
X307405D02*
X304891D01*
Y66609D01*
X310165D01*
Y69442D01*
Y66609D01*
X307277D01*
X307523Y66618D01*
X307751Y66627D01*
X307943Y66645D01*
X308097Y66673D01*
X308225Y66700D01*
X308325Y66718D01*
X308352Y66727D01*
X308380D01*
X308389Y66737D01*
X308398D01*
X308598Y66809D01*
X308781Y66891D01*
X308926Y66973D01*
X309054Y67055D01*
X309154Y67128D01*
X309227Y67183D01*
X309273Y67219D01*
X309291Y67238D01*
X309446Y67411D01*
X309582Y67593D01*
X309701Y67784D01*
X309792Y67957D01*
X309865Y68121D01*
X309901Y68185D01*
X309919Y68240D01*
X309938Y68294D01*
X309956Y68331D01*
X309965Y68349D01*
Y68358D01*
X310029Y68577D01*
X310083Y68805D01*
X310120Y69023D01*
X310138Y69233D01*
X310147Y69333D01*
X310156Y69424D01*
Y69497D01*
X310165Y69570D01*
Y69697D01*
X310156Y70016D01*
X310129Y70298D01*
X310120Y70435D01*
X310102Y70554D01*
X310083Y70672D01*
X310065Y70772D01*
X310038Y70863D01*
X310020Y70945D01*
X310001Y71018D01*
X309992Y71073D01*
X309974Y71118D01*
X309965Y71155D01*
X309956Y71173D01*
Y71182D01*
X309874Y71401D01*
X309774Y71601D01*
X309673Y71774D01*
X309573Y71920D01*
X309491Y72039D01*
X309418Y72130D01*
X309373Y72184D01*
X309364Y72202D01*
X309355D01*
X309200Y72348D01*
X309045Y72467D01*
X308881Y72567D01*
X308735Y72649D01*
X308608Y72713D01*
X308498Y72758D01*
X308462Y72767D01*
X308434Y72776D01*
X308416Y72786D01*
X308407D01*
X308234Y72831D01*
X308043Y72858D01*
X307842Y72886D01*
X307651Y72895D01*
X307478Y72904D01*
X307405Y72913D01*
D02*
G37*
G36*
X296145Y72913D02*
X293631D01*
Y66609D01*
X298905D01*
Y69542D01*
Y66609D01*
X296018D01*
X296264Y66618D01*
X296491Y66627D01*
X296683Y66645D01*
X296837Y66673D01*
X296965Y66700D01*
X297065Y66718D01*
X297093Y66727D01*
X297120D01*
X297129Y66737D01*
X297138D01*
X297339Y66809D01*
X297521Y66891D01*
X297666Y66973D01*
X297794Y67055D01*
X297894Y67128D01*
X297967Y67183D01*
X298013Y67219D01*
X298031Y67238D01*
X298186Y67411D01*
X298322Y67593D01*
X298441Y67784D01*
X298532Y67957D01*
X298605Y68121D01*
X298641Y68185D01*
X298659Y68240D01*
X298678Y68294D01*
X298696Y68331D01*
X298705Y68349D01*
Y68358D01*
X298769Y68577D01*
X298823Y68805D01*
X298860Y69023D01*
X298878Y69233D01*
X298887Y69333D01*
X298896Y69424D01*
Y69497D01*
X298905Y69570D01*
Y69697D01*
X298896Y70016D01*
X298869Y70298D01*
X298860Y70435D01*
X298842Y70554D01*
X298823Y70672D01*
X298805Y70772D01*
X298778Y70863D01*
X298760Y70945D01*
X298741Y71018D01*
X298732Y71073D01*
X298714Y71118D01*
X298705Y71155D01*
X298696Y71173D01*
Y71182D01*
X298614Y71401D01*
X298514Y71601D01*
X298413Y71774D01*
X298313Y71920D01*
X298231Y72039D01*
X298158Y72130D01*
X298113Y72184D01*
X298104Y72202D01*
X298095D01*
X297940Y72348D01*
X297785Y72467D01*
X297621Y72567D01*
X297475Y72649D01*
X297348Y72713D01*
X297238Y72758D01*
X297202Y72767D01*
X297175Y72776D01*
X297156Y72786D01*
X297147D01*
X296974Y72831D01*
X296783Y72858D01*
X296582Y72886D01*
X296391Y72895D01*
X296218Y72904D01*
X296145Y72913D01*
D02*
G37*
G36*
X372186Y72804D02*
D01*
Y66509D01*
X371230D01*
X371421Y66518D01*
X371603Y66536D01*
X371767Y66563D01*
X371904Y66600D01*
X372022Y66627D01*
X372113Y66654D01*
X372168Y66673D01*
X372177Y66682D01*
X372186D01*
X372077Y67620D01*
X371968Y67584D01*
X371867Y67556D01*
X371785Y67538D01*
X371712Y67529D01*
X371658Y67520D01*
X371621Y67511D01*
X371585D01*
X371503Y67520D01*
X371439Y67538D01*
X371403Y67556D01*
X371385Y67566D01*
X371330Y67620D01*
X371303Y67666D01*
X371284Y67702D01*
X371275Y67720D01*
Y67739D01*
X371266Y67775D01*
Y67857D01*
Y67966D01*
X371257Y68076D01*
Y68185D01*
Y68276D01*
Y68313D01*
Y68340D01*
Y68358D01*
Y68367D01*
Y70217D01*
X372086D01*
Y71182D01*
X371257D01*
Y72804D01*
X370045Y72093D01*
Y71182D01*
X369490D01*
Y70217D01*
X370045D01*
Y68221D01*
Y68103D01*
Y68003D01*
Y67903D01*
X370055Y67821D01*
Y67675D01*
X370064Y67556D01*
X370073Y67465D01*
Y67411D01*
X370082Y67374D01*
Y67365D01*
X370100Y67265D01*
X370127Y67174D01*
X370155Y67092D01*
X370182Y67028D01*
X370209Y66973D01*
X370228Y66937D01*
X370237Y66910D01*
X370246Y66900D01*
X370301Y66837D01*
X370364Y66782D01*
X370492Y66691D01*
X370546Y66664D01*
X370592Y66636D01*
X370628Y66627D01*
X370637Y66618D01*
X370738Y66582D01*
X370838Y66554D01*
X370938Y66536D01*
X371029Y66527D01*
X371111Y66518D01*
X371175Y66509D01*
X369490D01*
X372186D01*
Y72804D01*
D02*
G37*
G36*
X334143Y66609D02*
D01*
Y65652D01*
X329114D01*
Y64869D01*
X334143D01*
Y66609D01*
D02*
G37*
G36*
X304289D02*
D01*
Y65652D01*
X299261Y65652D01*
Y64869D01*
X304289Y64869D01*
Y66609D01*
D02*
G37*
G36*
X293029Y66609D02*
D01*
Y65652D01*
X288001D01*
Y64869D01*
X293029D01*
Y66609D01*
D02*
G37*
G36*
X296947Y61032D02*
X294897D01*
X294733Y61022D01*
X294578Y61004D01*
X294423Y60968D01*
X294287Y60931D01*
X294159Y60877D01*
X294041Y60822D01*
X293940Y60767D01*
X293840Y60703D01*
X293758Y60640D01*
X293676Y60585D01*
X293613Y60530D01*
X293567Y60476D01*
X293521Y60439D01*
X293494Y60403D01*
X293476Y60385D01*
X293467Y60376D01*
X293357Y60221D01*
X293266Y60039D01*
X293184Y59847D01*
X293111Y59647D01*
X293057Y59437D01*
X293002Y59219D01*
X292966Y59009D01*
X292929Y58799D01*
X292911Y58599D01*
X292893Y58417D01*
X292875Y58244D01*
X292865Y58098D01*
X292856Y57980D01*
Y61032D01*
Y57807D01*
X292865Y57479D01*
X292884Y57178D01*
X292911Y56896D01*
X292947Y56640D01*
X292984Y56413D01*
X293029Y56203D01*
X293084Y56021D01*
X293139Y55857D01*
X293184Y55720D01*
X293239Y55593D01*
X293285Y55493D01*
X293330Y55411D01*
X293357Y55356D01*
X293385Y55310D01*
X293403Y55283D01*
X293412Y55274D01*
X293521Y55146D01*
X293640Y55046D01*
X293758Y54946D01*
X293886Y54873D01*
X294004Y54800D01*
X294132Y54746D01*
X294250Y54700D01*
X294369Y54664D01*
X294478Y54627D01*
X294578Y54609D01*
X294669Y54591D01*
X294742Y54582D01*
X294806D01*
X294861Y54572D01*
X292856D01*
X296947D01*
X294897D01*
X295061Y54582D01*
X295216Y54600D01*
X295371Y54636D01*
X295507Y54673D01*
X295635Y54718D01*
X295753Y54773D01*
X295853Y54837D01*
X295954Y54900D01*
X296036Y54955D01*
X296118Y55019D01*
X296182Y55074D01*
X296236Y55119D01*
X296273Y55156D01*
X296300Y55192D01*
X296318Y55210D01*
X296327Y55219D01*
X296437Y55374D01*
X296528Y55556D01*
X296619Y55748D01*
X296683Y55957D01*
X296746Y56167D01*
X296792Y56376D01*
X296837Y56595D01*
X296874Y56805D01*
X296892Y57005D01*
X296910Y57187D01*
X296929Y57360D01*
X296938Y57506D01*
X296947Y57624D01*
Y57797D01*
X296938Y58125D01*
X296919Y58426D01*
X296892Y58699D01*
X296847Y58954D01*
X296801Y59191D01*
X296755Y59401D01*
X296692Y59592D01*
X296637Y59756D01*
X296582Y59911D01*
X296528Y60029D01*
X296473Y60139D01*
X296427Y60230D01*
X296382Y60294D01*
X296355Y60339D01*
X296336Y60366D01*
X296327Y60376D01*
X296227Y60494D01*
X296118Y60594D01*
X295999Y60676D01*
X295881Y60758D01*
X295762Y60822D01*
X295644Y60868D01*
X295535Y60913D01*
X295416Y60949D01*
X295307Y60977D01*
X295216Y60995D01*
X295125Y61013D01*
X295052Y61022D01*
X294988Y61032D01*
X296947D01*
D02*
G37*
G36*
X292364Y59264D02*
X291125D01*
X290251Y56923D01*
X290196Y56786D01*
X290160Y56659D01*
X290142Y56613D01*
X290132Y56577D01*
X290123Y56549D01*
Y56540D01*
X290114Y56495D01*
X290096Y56440D01*
X290051Y56303D01*
X290032Y56249D01*
X290014Y56194D01*
X290005Y56158D01*
X289996Y56148D01*
X289750Y56923D01*
X288884Y59264D01*
X287618D01*
X289458Y54691D01*
X287618D01*
X292364D01*
X290551D01*
X292364Y59264D01*
D02*
G37*
G36*
X300846Y61032D02*
X299862D01*
X299771Y60822D01*
X299652Y60631D01*
X299525Y60448D01*
X299397Y60303D01*
X299288Y60184D01*
X299188Y60093D01*
X299151Y60057D01*
X299124Y60029D01*
X299106Y60020D01*
X299097Y60011D01*
X298896Y59865D01*
X298705Y59738D01*
X298532Y59638D01*
X298377Y59565D01*
X298250Y59510D01*
X298158Y59465D01*
X298122Y59456D01*
X298095Y59446D01*
X298085Y59437D01*
X298076D01*
Y54691D01*
Y58344D01*
X298404Y58472D01*
X298696Y58608D01*
X298833Y58681D01*
X298960Y58763D01*
X299078Y58836D01*
X299188Y58909D01*
X299288Y58982D01*
X299379Y59045D01*
X299452Y59100D01*
X299516Y59155D01*
X299570Y59200D01*
X299607Y59228D01*
X299625Y59246D01*
X299634Y59255D01*
Y54691D01*
X300846D01*
Y61032D01*
D02*
G37*
G36*
X279811Y60995D02*
X276969D01*
Y54691D01*
X282635D01*
X281861Y55921D01*
X281779Y56048D01*
X281697Y56176D01*
X281624Y56285D01*
X281551Y56385D01*
X281487Y56476D01*
X281432Y56568D01*
X281323Y56704D01*
X281241Y56814D01*
X281186Y56887D01*
X281141Y56932D01*
X281132Y56941D01*
X281032Y57050D01*
X280913Y57151D01*
X280804Y57233D01*
X280695Y57315D01*
X280603Y57378D01*
X280531Y57424D01*
X280476Y57460D01*
X280467Y57469D01*
X280458D01*
X280612Y57497D01*
X280749Y57533D01*
X280877Y57570D01*
X281004Y57615D01*
X281114Y57661D01*
X281214Y57706D01*
X281314Y57752D01*
X281396Y57807D01*
X281469Y57852D01*
X281533Y57898D01*
X281587Y57943D01*
X281624Y57980D01*
X281660Y58007D01*
X281687Y58034D01*
X281697Y58043D01*
X281706Y58052D01*
X281779Y58144D01*
X281842Y58235D01*
X281952Y58435D01*
X282025Y58627D01*
X282070Y58818D01*
X282106Y58982D01*
X282116Y59045D01*
Y59109D01*
X282125Y59155D01*
Y59200D01*
Y59219D01*
Y59228D01*
X282116Y59428D01*
X282079Y59619D01*
X282034Y59783D01*
X281988Y59929D01*
X281933Y60048D01*
X281888Y60139D01*
X281870Y60166D01*
X281852Y60193D01*
X281842Y60202D01*
Y60212D01*
X281733Y60366D01*
X281615Y60494D01*
X281496Y60594D01*
X281378Y60685D01*
X281268Y60740D01*
X281186Y60786D01*
X281132Y60813D01*
X281123Y60822D01*
X281114D01*
X281022Y60849D01*
X280922Y60877D01*
X280695Y60922D01*
X280449Y60949D01*
X280212Y60977D01*
X280093D01*
X279993Y60986D01*
X279893D01*
X279811Y60995D01*
D02*
G37*
G36*
X285149Y59364D02*
X285049D01*
X284885Y59355D01*
X284730Y59337D01*
X284575Y59301D01*
X284439Y59264D01*
X284302Y59219D01*
X284184Y59164D01*
X284065Y59100D01*
X283965Y59045D01*
X283874Y58982D01*
X283792Y58918D01*
X283719Y58863D01*
X283664Y58818D01*
X283619Y58781D01*
X283582Y58745D01*
X283564Y58727D01*
X283555Y58718D01*
X283455Y58590D01*
X283364Y58453D01*
X283282Y58317D01*
X283209Y58171D01*
X283154Y58016D01*
X283109Y57870D01*
X283036Y57588D01*
X283008Y57451D01*
X282990Y57333D01*
X282981Y57223D01*
X282972Y57132D01*
X282963Y57050D01*
Y56941D01*
X282972Y56768D01*
X282981Y56595D01*
X283008Y56440D01*
X283036Y56294D01*
X283063Y56148D01*
X283109Y56021D01*
X283145Y55903D01*
X283191Y55793D01*
X283227Y55693D01*
X283273Y55611D01*
X283309Y55538D01*
X283336Y55474D01*
X283373Y55429D01*
X283391Y55392D01*
X283400Y55374D01*
X283409Y55365D01*
X283528Y55228D01*
X283646Y55110D01*
X283783Y55010D01*
X283928Y54919D01*
X284074Y54846D01*
X284220Y54782D01*
X284366Y54727D01*
X284512Y54691D01*
X284639Y54655D01*
X284767Y54636D01*
X284885Y54618D01*
X284985Y54600D01*
X285067D01*
X285122Y54591D01*
X282963D01*
X287226D01*
Y56877D01*
X287208Y57105D01*
X287181Y57324D01*
X287144Y57524D01*
X287099Y57715D01*
X287053Y57879D01*
X286999Y58034D01*
X286944Y58171D01*
X286889Y58289D01*
X286835Y58399D01*
X286789Y58481D01*
X286743Y58554D01*
X286707Y58608D01*
X286680Y58654D01*
X286662Y58672D01*
X286652Y58681D01*
X286543Y58799D01*
X286416Y58909D01*
X286288Y59000D01*
X286160Y59073D01*
X286024Y59146D01*
X285887Y59200D01*
X285760Y59246D01*
X285632Y59282D01*
X285514Y59310D01*
X285404Y59328D01*
X285304Y59346D01*
X285222Y59355D01*
X285149Y59364D01*
D02*
G37*
G36*
X305774Y49959D02*
X305683D01*
X305528Y49949D01*
X305383Y49940D01*
X305100Y49895D01*
X304863Y49822D01*
X304754Y49786D01*
X304654Y49740D01*
X304563Y49703D01*
X304490Y49658D01*
X304417Y49622D01*
X304362Y49594D01*
X304317Y49558D01*
X304289Y49540D01*
X304271Y49531D01*
X304262Y49521D01*
X304162Y49430D01*
X304071Y49339D01*
X303989Y49230D01*
X303916Y49111D01*
X303807Y48875D01*
X303715Y48647D01*
X303688Y48528D01*
X303661Y48428D01*
X303633Y48337D01*
X303624Y48255D01*
X303606Y48182D01*
Y48137D01*
X303597Y48100D01*
Y48091D01*
X304800Y47973D01*
X304818Y48155D01*
X304854Y48310D01*
X304891Y48446D01*
X304936Y48547D01*
X304973Y48629D01*
X305009Y48683D01*
X305036Y48720D01*
X305046Y48729D01*
X305137Y48802D01*
X305237Y48856D01*
X305337Y48902D01*
X305437Y48929D01*
X305519Y48947D01*
X305592Y48957D01*
X305656D01*
X305792Y48947D01*
X305911Y48920D01*
X306011Y48884D01*
X306102Y48847D01*
X306166Y48811D01*
X306221Y48774D01*
X306248Y48747D01*
X306257Y48738D01*
X306330Y48647D01*
X306385Y48547D01*
X306421Y48446D01*
X306449Y48346D01*
X306467Y48255D01*
X306476Y48173D01*
Y48127D01*
Y48118D01*
Y48109D01*
X306467Y47973D01*
X306439Y47845D01*
X306394Y47718D01*
X306348Y47608D01*
X306303Y47508D01*
X306257Y47435D01*
X306230Y47390D01*
X306221Y47371D01*
X306184Y47317D01*
X306130Y47253D01*
X306057Y47171D01*
X305984Y47098D01*
X305820Y46925D01*
X305656Y46752D01*
X305492Y46588D01*
X305419Y46515D01*
X305346Y46460D01*
X305292Y46406D01*
X305255Y46369D01*
X305228Y46342D01*
X305219Y46333D01*
X305036Y46160D01*
X304872Y45996D01*
X304718Y45841D01*
X304581Y45704D01*
X304453Y45568D01*
X304344Y45440D01*
X304244Y45331D01*
X304162Y45221D01*
X304089Y45130D01*
X304025Y45048D01*
X303971Y44985D01*
X303934Y44921D01*
X303898Y44884D01*
X303879Y44848D01*
X303861Y44830D01*
Y44821D01*
X303743Y44611D01*
X303652Y44392D01*
X303579Y44192D01*
X303524Y44010D01*
X303488Y43846D01*
X303479Y43782D01*
X303469Y43727D01*
X303460Y43682D01*
X303451Y43645D01*
Y43618D01*
X307687D01*
Y44739D01*
X305282D01*
X305355Y44857D01*
X305437Y44957D01*
X305474Y45003D01*
X305501Y45039D01*
X305519Y45057D01*
X305528Y45067D01*
X305565Y45103D01*
X305601Y45149D01*
X305711Y45249D01*
X305829Y45367D01*
X305947Y45486D01*
X306066Y45595D01*
X306166Y45686D01*
X306203Y45722D01*
X306230Y45750D01*
X306248Y45759D01*
X306257Y45768D01*
X306458Y45959D01*
X306622Y46114D01*
X306758Y46260D01*
X306868Y46369D01*
X306949Y46460D01*
X307004Y46524D01*
X307041Y46570D01*
X307050Y46579D01*
X307168Y46734D01*
X307268Y46879D01*
X307350Y47016D01*
X307414Y47135D01*
X307469Y47235D01*
X307505Y47317D01*
X307523Y47362D01*
X307533Y47381D01*
X307587Y47526D01*
X307624Y47672D01*
X307651Y47809D01*
X307669Y47936D01*
X307678Y48036D01*
X307687Y48118D01*
Y48191D01*
X307678Y48328D01*
X307660Y48465D01*
X307642Y48592D01*
X307605Y48711D01*
X307514Y48920D01*
X307423Y49102D01*
X307369Y49184D01*
X307323Y49248D01*
X307277Y49312D01*
X307232Y49357D01*
X307195Y49394D01*
X307177Y49430D01*
X307159Y49439D01*
X307150Y49448D01*
X307050Y49540D01*
X306931Y49622D01*
X306822Y49685D01*
X306694Y49740D01*
X306458Y49831D01*
X306221Y49895D01*
X306111Y49913D01*
X306011Y49931D01*
X305920Y49940D01*
X305838Y49949D01*
X305774Y49959D01*
D02*
G37*
G36*
X300873D02*
X300782D01*
X300627Y49949D01*
X300481Y49940D01*
X300199Y49895D01*
X299962Y49822D01*
X299853Y49786D01*
X299753Y49740D01*
X299661Y49703D01*
X299589Y49658D01*
X299516Y49622D01*
X299461Y49594D01*
X299415Y49558D01*
X299388Y49540D01*
X299370Y49531D01*
X299361Y49521D01*
X299261Y49430D01*
X299170Y49339D01*
X299088Y49230D01*
X299015Y49111D01*
X298905Y48875D01*
X298814Y48647D01*
X298787Y48528D01*
X298760Y48428D01*
X298732Y48337D01*
X298723Y48255D01*
X298705Y48182D01*
Y48137D01*
X298696Y48100D01*
Y48091D01*
X299898Y47973D01*
X299917Y48155D01*
X299953Y48310D01*
X299990Y48446D01*
X300035Y48547D01*
X300072Y48629D01*
X300108Y48683D01*
X300135Y48720D01*
X300144Y48729D01*
X300235Y48802D01*
X300336Y48856D01*
X300436Y48902D01*
X300536Y48929D01*
X300618Y48947D01*
X300691Y48957D01*
X300755D01*
X300891Y48947D01*
X301010Y48920D01*
X301110Y48884D01*
X301201Y48847D01*
X301265Y48811D01*
X301320Y48774D01*
X301347Y48747D01*
X301356Y48738D01*
X301429Y48647D01*
X301483Y48547D01*
X301520Y48446D01*
X301547Y48346D01*
X301566Y48255D01*
X301575Y48173D01*
Y48127D01*
Y48118D01*
Y48109D01*
X301566Y47973D01*
X301538Y47845D01*
X301493Y47718D01*
X301447Y47608D01*
X301401Y47508D01*
X301356Y47435D01*
X301329Y47390D01*
X301320Y47371D01*
X301283Y47317D01*
X301228Y47253D01*
X301155Y47171D01*
X301083Y47098D01*
X300919Y46925D01*
X300755Y46752D01*
X300591Y46588D01*
X300518Y46515D01*
X300445Y46460D01*
X300390Y46406D01*
X300354Y46369D01*
X300326Y46342D01*
X300317Y46333D01*
X300135Y46160D01*
X299971Y45996D01*
X299816Y45841D01*
X299680Y45704D01*
X299552Y45568D01*
X299443Y45440D01*
X299343Y45331D01*
X299261Y45221D01*
X299188Y45130D01*
X299124Y45048D01*
X299069Y44985D01*
X299033Y44921D01*
X298996Y44884D01*
X298978Y44848D01*
X298960Y44830D01*
Y44821D01*
X298842Y44611D01*
X298750Y44392D01*
X298678Y44192D01*
X298623Y44010D01*
X298587Y43846D01*
X298577Y43782D01*
X298568Y43727D01*
X298559Y43682D01*
X298550Y43645D01*
Y43618D01*
X302786D01*
Y44739D01*
X300381D01*
X300454Y44857D01*
X300536Y44957D01*
X300572Y45003D01*
X300600Y45039D01*
X300618Y45057D01*
X300627Y45067D01*
X300664Y45103D01*
X300700Y45149D01*
X300809Y45249D01*
X300928Y45367D01*
X301046Y45486D01*
X301165Y45595D01*
X301265Y45686D01*
X301301Y45722D01*
X301329Y45750D01*
X301347Y45759D01*
X301356Y45768D01*
X301556Y45959D01*
X301720Y46114D01*
X301857Y46260D01*
X301966Y46369D01*
X302048Y46460D01*
X302103Y46524D01*
X302139Y46570D01*
X302149Y46579D01*
X302267Y46734D01*
X302367Y46879D01*
X302449Y47016D01*
X302513Y47135D01*
X302568Y47235D01*
X302604Y47317D01*
X302622Y47362D01*
X302631Y47381D01*
X302686Y47526D01*
X302723Y47672D01*
X302750Y47809D01*
X302768Y47936D01*
X302777Y48036D01*
X302786Y48118D01*
Y48191D01*
X302777Y48328D01*
X302759Y48465D01*
X302741Y48592D01*
X302704Y48711D01*
X302613Y48920D01*
X302522Y49102D01*
X302467Y49184D01*
X302422Y49248D01*
X302376Y49312D01*
X302331Y49357D01*
X302294Y49394D01*
X302276Y49430D01*
X302258Y49439D01*
X302249Y49448D01*
X302149Y49540D01*
X302030Y49622D01*
X301921Y49685D01*
X301793Y49740D01*
X301556Y49831D01*
X301320Y49895D01*
X301210Y49913D01*
X301110Y49931D01*
X301019Y49940D01*
X300937Y49949D01*
X300873Y49959D01*
D02*
G37*
G36*
X291071D02*
X290980D01*
X290825Y49949D01*
X290679Y49940D01*
X290397Y49895D01*
X290160Y49822D01*
X290051Y49786D01*
X289950Y49740D01*
X289859Y49703D01*
X289786Y49658D01*
X289713Y49622D01*
X289659Y49594D01*
X289613Y49558D01*
X289586Y49540D01*
X289568Y49531D01*
X289559Y49521D01*
X289458Y49430D01*
X289367Y49339D01*
X289285Y49230D01*
X289212Y49111D01*
X289103Y48875D01*
X289012Y48647D01*
X288985Y48528D01*
X288957Y48428D01*
X288930Y48337D01*
X288921Y48255D01*
X288903Y48182D01*
Y48137D01*
X288894Y48100D01*
Y48091D01*
X290096Y47973D01*
X290114Y48155D01*
X290151Y48310D01*
X290187Y48446D01*
X290233Y48547D01*
X290269Y48629D01*
X290305Y48683D01*
X290333Y48720D01*
X290342Y48729D01*
X290433Y48802D01*
X290533Y48856D01*
X290634Y48902D01*
X290734Y48929D01*
X290816Y48947D01*
X290889Y48957D01*
X290952D01*
X291089Y48947D01*
X291207Y48920D01*
X291308Y48884D01*
X291399Y48847D01*
X291462Y48811D01*
X291517Y48774D01*
X291545Y48747D01*
X291554Y48738D01*
X291627Y48647D01*
X291681Y48547D01*
X291718Y48446D01*
X291745Y48346D01*
X291763Y48255D01*
X291772Y48173D01*
Y48127D01*
Y48118D01*
Y48109D01*
X291763Y47973D01*
X291736Y47845D01*
X291690Y47718D01*
X291645Y47608D01*
X291599Y47508D01*
X291554Y47435D01*
X291526Y47390D01*
X291517Y47371D01*
X291481Y47317D01*
X291426Y47253D01*
X291353Y47171D01*
X291280Y47098D01*
X291116Y46925D01*
X290952Y46752D01*
X290788Y46588D01*
X290716Y46515D01*
X290643Y46460D01*
X290588Y46406D01*
X290551Y46369D01*
X290524Y46342D01*
X290515Y46333D01*
X290333Y46160D01*
X290169Y45996D01*
X290014Y45841D01*
X289877Y45704D01*
X289750Y45568D01*
X289640Y45440D01*
X289540Y45331D01*
X289458Y45221D01*
X289385Y45130D01*
X289322Y45048D01*
X289267Y44985D01*
X289231Y44921D01*
X289194Y44884D01*
X289176Y44848D01*
X289158Y44830D01*
Y44821D01*
X289039Y44611D01*
X288948Y44392D01*
X288875Y44192D01*
X288821Y44010D01*
X288784Y43846D01*
X288775Y43782D01*
X288766Y43727D01*
X288757Y43682D01*
X288748Y43645D01*
Y43618D01*
X292984D01*
Y44739D01*
X290579D01*
X290652Y44857D01*
X290734Y44957D01*
X290770Y45003D01*
X290797Y45039D01*
X290816Y45057D01*
X290825Y45067D01*
X290861Y45103D01*
X290898Y45149D01*
X291007Y45249D01*
X291125Y45367D01*
X291244Y45486D01*
X291362Y45595D01*
X291462Y45686D01*
X291499Y45722D01*
X291526Y45750D01*
X291545Y45759D01*
X291554Y45768D01*
X291754Y45959D01*
X291918Y46114D01*
X292055Y46260D01*
X292164Y46369D01*
X292246Y46460D01*
X292301Y46524D01*
X292337Y46570D01*
X292346Y46579D01*
X292465Y46734D01*
X292565Y46879D01*
X292647Y47016D01*
X292711Y47135D01*
X292765Y47235D01*
X292802Y47317D01*
X292820Y47362D01*
X292829Y47381D01*
X292884Y47526D01*
X292920Y47672D01*
X292947Y47809D01*
X292966Y47936D01*
X292975Y48036D01*
X292984Y48118D01*
Y48191D01*
X292975Y48328D01*
X292957Y48465D01*
X292938Y48592D01*
X292902Y48711D01*
X292811Y48920D01*
X292720Y49102D01*
X292665Y49184D01*
X292619Y49248D01*
X292574Y49312D01*
X292528Y49357D01*
X292492Y49394D01*
X292474Y49430D01*
X292456Y49439D01*
X292446Y49448D01*
X292346Y49540D01*
X292228Y49622D01*
X292118Y49685D01*
X291991Y49740D01*
X291754Y49831D01*
X291517Y49895D01*
X291408Y49913D01*
X291308Y49931D01*
X291216Y49940D01*
X291135Y49949D01*
X291071Y49959D01*
D02*
G37*
G36*
X283719D02*
X283628D01*
X283473Y49949D01*
X283327Y49940D01*
X283045Y49895D01*
X282808Y49822D01*
X282699Y49786D01*
X282598Y49740D01*
X282507Y49703D01*
X282435Y49658D01*
X282362Y49622D01*
X282307Y49594D01*
X282261Y49558D01*
X282234Y49540D01*
X282216Y49531D01*
X282207Y49521D01*
X282106Y49430D01*
X282015Y49339D01*
X281933Y49230D01*
X281861Y49111D01*
X281751Y48875D01*
X281660Y48647D01*
X281633Y48528D01*
X281606Y48428D01*
X281578Y48337D01*
X281569Y48255D01*
X281551Y48182D01*
Y48137D01*
X281542Y48100D01*
Y48091D01*
X282744Y47973D01*
X282763Y48155D01*
X282799Y48310D01*
X282835Y48446D01*
X282881Y48547D01*
X282917Y48629D01*
X282954Y48683D01*
X282981Y48720D01*
X282990Y48729D01*
X283081Y48802D01*
X283182Y48856D01*
X283282Y48902D01*
X283382Y48929D01*
X283464Y48947D01*
X283537Y48957D01*
X283601D01*
X283737Y48947D01*
X283856Y48920D01*
X283956Y48884D01*
X284047Y48847D01*
X284111Y48811D01*
X284165Y48774D01*
X284193Y48747D01*
X284202Y48738D01*
X284275Y48647D01*
X284329Y48547D01*
X284366Y48446D01*
X284393Y48346D01*
X284411Y48255D01*
X284420Y48173D01*
Y48127D01*
Y48118D01*
Y48109D01*
X284411Y47973D01*
X284384Y47845D01*
X284338Y47718D01*
X284293Y47608D01*
X284247Y47508D01*
X284202Y47435D01*
X284174Y47390D01*
X284165Y47371D01*
X284129Y47317D01*
X284074Y47253D01*
X284001Y47171D01*
X283928Y47098D01*
X283765Y46925D01*
X283601Y46752D01*
X283437Y46588D01*
X283364Y46515D01*
X283291Y46460D01*
X283236Y46406D01*
X283200Y46369D01*
X283172Y46342D01*
X283163Y46333D01*
X282981Y46160D01*
X282817Y45996D01*
X282662Y45841D01*
X282526Y45704D01*
X282398Y45568D01*
X282289Y45440D01*
X282189Y45331D01*
X282106Y45221D01*
X282034Y45130D01*
X281970Y45048D01*
X281915Y44985D01*
X281879Y44921D01*
X281842Y44884D01*
X281824Y44848D01*
X281806Y44830D01*
Y44821D01*
X281687Y44611D01*
X281596Y44392D01*
X281523Y44192D01*
X281469Y44010D01*
X281432Y43846D01*
X281423Y43782D01*
X281414Y43727D01*
X281405Y43682D01*
X281396Y43645D01*
Y43618D01*
X285632D01*
Y44739D01*
X283227D01*
X283300Y44857D01*
X283382Y44957D01*
X283418Y45003D01*
X283446Y45039D01*
X283464Y45057D01*
X283473Y45067D01*
X283509Y45103D01*
X283546Y45149D01*
X283655Y45249D01*
X283774Y45367D01*
X283892Y45486D01*
X284011Y45595D01*
X284111Y45686D01*
X284147Y45722D01*
X284174Y45750D01*
X284193Y45759D01*
X284202Y45768D01*
X284402Y45959D01*
X284566Y46114D01*
X284703Y46260D01*
X284812Y46369D01*
X284894Y46460D01*
X284949Y46524D01*
X284985Y46570D01*
X284994Y46579D01*
X285113Y46734D01*
X285213Y46879D01*
X285295Y47016D01*
X285359Y47135D01*
X285414Y47235D01*
X285450Y47317D01*
X285468Y47362D01*
X285477Y47381D01*
X285532Y47526D01*
X285568Y47672D01*
X285596Y47809D01*
X285614Y47936D01*
X285623Y48036D01*
X285632Y48118D01*
Y48191D01*
X285623Y48328D01*
X285605Y48465D01*
X285587Y48592D01*
X285550Y48711D01*
X285459Y48920D01*
X285368Y49102D01*
X285313Y49184D01*
X285268Y49248D01*
X285222Y49312D01*
X285177Y49357D01*
X285140Y49394D01*
X285122Y49430D01*
X285104Y49439D01*
X285095Y49448D01*
X284994Y49540D01*
X284876Y49622D01*
X284767Y49685D01*
X284639Y49740D01*
X284402Y49831D01*
X284165Y49895D01*
X284056Y49913D01*
X283956Y49931D01*
X283865Y49940D01*
X283783Y49949D01*
X283719Y49959D01*
D02*
G37*
G36*
X279738D02*
X278754D01*
X278663Y49749D01*
X278544Y49558D01*
X278417Y49376D01*
X278289Y49230D01*
X278180Y49111D01*
X278080Y49020D01*
X278044Y48984D01*
X278016Y48957D01*
X277998Y48947D01*
X277989Y48938D01*
X277788Y48792D01*
X277597Y48665D01*
X277424Y48565D01*
X277269Y48492D01*
X277142Y48437D01*
X277050Y48392D01*
X277014Y48383D01*
X276987Y48373D01*
X276978Y48364D01*
X276969D01*
Y47271D01*
X277296Y47399D01*
X277588Y47535D01*
X277725Y47608D01*
X277852Y47690D01*
X277971Y47763D01*
X278080Y47836D01*
X278180Y47909D01*
X278271Y47973D01*
X278344Y48027D01*
X278408Y48082D01*
X278463Y48127D01*
X278499Y48155D01*
X278517Y48173D01*
X278526Y48182D01*
Y43618D01*
X279738D01*
Y49959D01*
D02*
G37*
G36*
X288538Y50032D02*
X287627D01*
X286069Y43509D01*
X286962D01*
X288538Y50032D01*
D02*
G37*
G36*
X295936Y49959D02*
X295844D01*
X295680Y49949D01*
X295526Y49931D01*
X295371Y49895D01*
X295234Y49858D01*
X295107Y49804D01*
X294988Y49749D01*
X294888Y49694D01*
X294788Y49631D01*
X294706Y49567D01*
X294624Y49512D01*
X294560Y49458D01*
X294514Y49403D01*
X294469Y49367D01*
X294442Y49330D01*
X294423Y49312D01*
X294414Y49303D01*
X294305Y49148D01*
X294214Y48966D01*
X294132Y48774D01*
X294059Y48574D01*
X294004Y48364D01*
X293950Y48146D01*
X293913Y47936D01*
X293877Y47727D01*
X293858Y47526D01*
X293840Y47344D01*
X293822Y47171D01*
X293813Y47025D01*
X293804Y46907D01*
Y46734D01*
X293813Y46406D01*
X293831Y46105D01*
X293858Y45823D01*
X293895Y45568D01*
X293931Y45340D01*
X293977Y45130D01*
X294032Y44948D01*
X294086Y44784D01*
X294132Y44647D01*
X294186Y44520D01*
X294232Y44420D01*
X294278Y44338D01*
X294305Y44283D01*
X294332Y44238D01*
X294350Y44210D01*
X294359Y44201D01*
X294469Y44074D01*
X294587Y43973D01*
X294706Y43873D01*
X294833Y43800D01*
X294952Y43727D01*
X295079Y43673D01*
X295198Y43627D01*
X295316Y43591D01*
X295425Y43554D01*
X295526Y43536D01*
X295617Y43518D01*
X295690Y43509D01*
X295753D01*
X295808Y43500D01*
X295844D01*
X296008Y43509D01*
X296163Y43527D01*
X296318Y43563D01*
X296455Y43600D01*
X296582Y43645D01*
X296701Y43700D01*
X296801Y43764D01*
X296901Y43828D01*
X296983Y43882D01*
X297065Y43946D01*
X297129Y44001D01*
X297184Y44046D01*
X297220Y44083D01*
X297247Y44119D01*
X297266Y44137D01*
X297275Y44146D01*
X297384Y44301D01*
X297475Y44484D01*
X297566Y44675D01*
X297630Y44884D01*
X297694Y45094D01*
X297739Y45303D01*
X297785Y45522D01*
X297821Y45732D01*
X297839Y45932D01*
X297858Y46114D01*
X297876Y46287D01*
X297885Y46433D01*
X297894Y46551D01*
Y46725D01*
X297885Y47052D01*
X297867Y47353D01*
X297839Y47627D01*
X297794Y47881D01*
X297748Y48118D01*
X297703Y48328D01*
X297639Y48519D01*
X297584Y48683D01*
X297530Y48838D01*
X297475Y48957D01*
X297420Y49066D01*
X297375Y49157D01*
X297329Y49221D01*
X297302Y49266D01*
X297284Y49294D01*
X297275Y49303D01*
X297175Y49421D01*
X297065Y49521D01*
X296947Y49603D01*
X296828Y49685D01*
X296710Y49749D01*
X296591Y49795D01*
X296482Y49840D01*
X296364Y49877D01*
X296254Y49904D01*
X296163Y49922D01*
X296072Y49940D01*
X295999Y49949D01*
X295936Y49959D01*
D02*
G37*
%LPD*%
G36*
X291472Y82448D02*
X291617Y82412D01*
X291736Y82357D01*
X291845Y82293D01*
X291927Y82230D01*
X291982Y82175D01*
X292027Y82139D01*
X292036Y82120D01*
X292091Y82047D01*
X292137Y81975D01*
X292210Y81792D01*
X292255Y81610D01*
X292291Y81419D01*
X292310Y81255D01*
X292319Y81173D01*
X292328Y81109D01*
Y81054D01*
Y81018D01*
Y80991D01*
Y80981D01*
X292319Y80735D01*
X292282Y80517D01*
X292237Y80335D01*
X292182Y80189D01*
X292127Y80071D01*
X292082Y79988D01*
X292046Y79943D01*
X292036Y79925D01*
X291918Y79806D01*
X291800Y79724D01*
X291681Y79661D01*
X291572Y79624D01*
X291472Y79597D01*
X291399Y79588D01*
X291344Y79579D01*
X291326D01*
X291235Y79588D01*
X291144Y79597D01*
X290980Y79651D01*
X290843Y79724D01*
X290725Y79815D01*
X290634Y79897D01*
X290570Y79970D01*
X290533Y80025D01*
X290515Y80034D01*
Y80043D01*
X290479Y80107D01*
X290451Y80180D01*
X290397Y80344D01*
X290360Y80526D01*
X290342Y80699D01*
X290324Y80854D01*
Y80918D01*
X290315Y80981D01*
Y81027D01*
Y81073D01*
Y81091D01*
Y81100D01*
X290324Y81337D01*
X290360Y81546D01*
X290406Y81719D01*
X290460Y81865D01*
X290506Y81975D01*
X290551Y82056D01*
X290588Y82102D01*
X290597Y82120D01*
X290716Y82239D01*
X290834Y82321D01*
X290952Y82385D01*
X291071Y82421D01*
X291162Y82448D01*
X291244Y82457D01*
X291299Y82466D01*
X291317D01*
X291472Y82448D01*
D02*
G37*
G36*
X292419Y78722D02*
X293540D01*
Y78622D01*
X290980D01*
X291125Y78631D01*
X291262Y78649D01*
X291399Y78677D01*
X291517Y78713D01*
X291608Y78750D01*
X291690Y78777D01*
X291736Y78795D01*
X291754Y78804D01*
X291891Y78886D01*
X292018Y78977D01*
X292137Y79078D01*
X292228Y79169D01*
X292310Y79251D01*
X292373Y79324D01*
X292410Y79369D01*
X292419Y79387D01*
Y78722D01*
D02*
G37*
G36*
X331638Y82448D02*
X331774Y82412D01*
X331902Y82357D01*
X332011Y82293D01*
X332093Y82230D01*
X332157Y82175D01*
X332202Y82139D01*
X332211Y82120D01*
X332312Y81975D01*
X332385Y81810D01*
X332430Y81637D01*
X332467Y81464D01*
X332485Y81309D01*
X332494Y81237D01*
X332503Y81182D01*
Y81127D01*
Y81091D01*
Y81073D01*
Y81063D01*
X332494Y80827D01*
X332457Y80617D01*
X332403Y80444D01*
X332348Y80298D01*
X332294Y80189D01*
X332239Y80107D01*
X332202Y80061D01*
X332193Y80043D01*
X332075Y79925D01*
X331947Y79843D01*
X331829Y79779D01*
X331711Y79743D01*
X331601Y79715D01*
X331519Y79706D01*
X331465Y79697D01*
X331446D01*
X331300Y79715D01*
X331164Y79752D01*
X331046Y79806D01*
X330945Y79870D01*
X330863Y79925D01*
X330809Y79979D01*
X330763Y80016D01*
X330754Y80034D01*
X330663Y80180D01*
X330599Y80344D01*
X330544Y80517D01*
X330517Y80690D01*
X330499Y80845D01*
X330490Y80918D01*
Y80972D01*
X330481Y81018D01*
Y81063D01*
Y81082D01*
Y81091D01*
X330490Y81337D01*
X330526Y81546D01*
X330572Y81719D01*
X330617Y81865D01*
X330672Y81975D01*
X330708Y82056D01*
X330745Y82102D01*
X330754Y82120D01*
X330863Y82239D01*
X330982Y82321D01*
X331109Y82385D01*
X331219Y82421D01*
X331319Y82448D01*
X331401Y82457D01*
X331455Y82466D01*
X331474D01*
X331638Y82448D01*
D02*
G37*
G36*
X311796Y78622D02*
X309719D01*
X309901Y78631D01*
X310074Y78640D01*
X310238Y78668D01*
X310393Y78695D01*
X310530Y78722D01*
X310657Y78768D01*
X310776Y78804D01*
X310876Y78850D01*
X310967Y78886D01*
X311049Y78932D01*
X311113Y78968D01*
X311167Y78996D01*
X311213Y79032D01*
X311240Y79050D01*
X311259Y79059D01*
X311268Y79068D01*
X311359Y79159D01*
X311441Y79251D01*
X311514Y79342D01*
X311577Y79433D01*
X311623Y79524D01*
X311668Y79615D01*
X311732Y79779D01*
X311769Y79934D01*
X311778Y79998D01*
X311787Y80043D01*
X311796Y80089D01*
Y78622D01*
D02*
G37*
G36*
X324104Y82457D02*
X324222Y82421D01*
X324331Y82375D01*
X324423Y82330D01*
X324495Y82275D01*
X324550Y82230D01*
X324587Y82193D01*
X324596Y82184D01*
X324678Y82075D01*
X324750Y81947D01*
X324796Y81810D01*
X324832Y81683D01*
X324851Y81574D01*
X324860Y81473D01*
X324869Y81437D01*
Y81419D01*
Y81401D01*
Y81392D01*
X323065D01*
X323074Y81565D01*
X323101Y81719D01*
X323138Y81856D01*
X323193Y81965D01*
X323238Y82056D01*
X323284Y82120D01*
X323311Y82166D01*
X323320Y82175D01*
X323420Y82275D01*
X323530Y82348D01*
X323639Y82394D01*
X323739Y82430D01*
X323830Y82448D01*
X323903Y82466D01*
X323967D01*
X324104Y82457D01*
D02*
G37*
G36*
X326071Y78622D02*
X324022D01*
X324286Y78640D01*
X324532Y78677D01*
X324741Y78731D01*
X324923Y78795D01*
X325006Y78832D01*
X325069Y78859D01*
X325133Y78886D01*
X325179Y78913D01*
X325215Y78941D01*
X325252Y78950D01*
X325261Y78968D01*
X325270D01*
X325443Y79114D01*
X325598Y79269D01*
X325725Y79442D01*
X325825Y79606D01*
X325907Y79752D01*
X325935Y79815D01*
X325962Y79870D01*
X325980Y79916D01*
X325998Y79952D01*
X326008Y79970D01*
Y79979D01*
X324805Y80180D01*
X324760Y80061D01*
X324714Y79952D01*
X324669Y79870D01*
X324614Y79797D01*
X324577Y79743D01*
X324541Y79706D01*
X324514Y79688D01*
X324504Y79679D01*
X324432Y79624D01*
X324350Y79588D01*
X324268Y79560D01*
X324195Y79542D01*
X324131Y79533D01*
X324076Y79524D01*
X324031D01*
X323885Y79533D01*
X323748Y79570D01*
X323621Y79615D01*
X323521Y79670D01*
X323439Y79724D01*
X323384Y79770D01*
X323338Y79806D01*
X323329Y79815D01*
X323238Y79934D01*
X323174Y80071D01*
X323120Y80216D01*
X323083Y80344D01*
X323065Y80471D01*
X323056Y80563D01*
X323047Y80599D01*
Y80626D01*
Y80644D01*
Y80654D01*
X326071D01*
Y78622D01*
D02*
G37*
G36*
X300099Y82457D02*
X300217Y82421D01*
X300326Y82375D01*
X300418Y82330D01*
X300490Y82275D01*
X300545Y82230D01*
X300582Y82193D01*
X300591Y82184D01*
X300673Y82075D01*
X300746Y81947D01*
X300791Y81810D01*
X300828Y81683D01*
X300846Y81574D01*
X300855Y81473D01*
X300864Y81437D01*
Y81419D01*
Y81401D01*
Y81392D01*
X299060D01*
X299069Y81564D01*
X299097Y81719D01*
X299133Y81856D01*
X299188Y81965D01*
X299233Y82056D01*
X299279Y82120D01*
X299306Y82166D01*
X299315Y82175D01*
X299415Y82275D01*
X299525Y82348D01*
X299634Y82394D01*
X299734Y82430D01*
X299826Y82448D01*
X299898Y82466D01*
X299962D01*
X300099Y82457D01*
D02*
G37*
G36*
X302067Y78622D02*
X300017D01*
X300281Y78640D01*
X300527Y78677D01*
X300736Y78731D01*
X300919Y78795D01*
X301001Y78832D01*
X301064Y78859D01*
X301128Y78886D01*
X301174Y78913D01*
X301210Y78941D01*
X301247Y78950D01*
X301256Y78968D01*
X301265D01*
X301438Y79114D01*
X301593Y79269D01*
X301720Y79442D01*
X301821Y79606D01*
X301903Y79752D01*
X301930Y79815D01*
X301957Y79870D01*
X301975Y79916D01*
X301994Y79952D01*
X302003Y79970D01*
Y79979D01*
X300800Y80180D01*
X300755Y80061D01*
X300709Y79952D01*
X300664Y79870D01*
X300609Y79797D01*
X300572Y79743D01*
X300536Y79706D01*
X300509Y79688D01*
X300500Y79679D01*
X300427Y79624D01*
X300345Y79588D01*
X300263Y79560D01*
X300190Y79542D01*
X300126Y79533D01*
X300072Y79524D01*
X300026D01*
X299880Y79533D01*
X299744Y79570D01*
X299616Y79615D01*
X299516Y79670D01*
X299434Y79724D01*
X299379Y79770D01*
X299334Y79806D01*
X299324Y79815D01*
X299233Y79934D01*
X299170Y80071D01*
X299115Y80216D01*
X299078Y80344D01*
X299060Y80471D01*
X299051Y80563D01*
X299042Y80599D01*
Y80626D01*
Y80644D01*
Y80654D01*
X302067D01*
Y78622D01*
D02*
G37*
G36*
X305574Y80663D02*
Y80517D01*
X305565Y80389D01*
X305556Y80289D01*
X305547Y80207D01*
X305538Y80152D01*
X305528Y80107D01*
X305519Y80089D01*
Y80080D01*
X305492Y79998D01*
X305446Y79916D01*
X305401Y79852D01*
X305355Y79788D01*
X305310Y79743D01*
X305273Y79706D01*
X305246Y79688D01*
X305237Y79679D01*
X305128Y79606D01*
X305009Y79560D01*
X304909Y79524D01*
X304809Y79497D01*
X304727Y79478D01*
X304663Y79469D01*
X304608D01*
X304508Y79478D01*
X304408Y79497D01*
X304326Y79524D01*
X304262Y79560D01*
X304198Y79597D01*
X304162Y79624D01*
X304134Y79642D01*
X304125Y79651D01*
X304062Y79724D01*
X304016Y79797D01*
X303989Y79870D01*
X303971Y79943D01*
X303952Y79998D01*
X303943Y80043D01*
Y80080D01*
Y80089D01*
X303952Y80180D01*
X303980Y80262D01*
X304016Y80335D01*
X304062Y80398D01*
X304098Y80444D01*
X304134Y80480D01*
X304162Y80499D01*
X304171Y80508D01*
X304244Y80544D01*
X304335Y80590D01*
X304444Y80626D01*
X304554Y80654D01*
X304663Y80681D01*
X304745Y80699D01*
X304781Y80708D01*
X304809Y80717D01*
X304827D01*
X305009Y80754D01*
X305155Y80790D01*
X305292Y80827D01*
X305392Y80854D01*
X305474Y80881D01*
X305528Y80890D01*
X305565Y80909D01*
X305574D01*
Y80663D01*
D02*
G37*
G36*
X280959Y81218D02*
X279219D01*
X280075Y83560D01*
X280959Y81218D01*
D02*
G37*
G36*
X281915Y78722D02*
X278317D01*
X278836Y80152D01*
X281369D01*
X281915Y78722D01*
D02*
G37*
G36*
X336839Y82457D02*
X336958Y82421D01*
X337067Y82375D01*
X337158Y82330D01*
X337231Y82275D01*
X337286Y82230D01*
X337322Y82193D01*
X337331Y82184D01*
X337413Y82075D01*
X337486Y81947D01*
X337532Y81810D01*
X337568Y81683D01*
X337586Y81574D01*
X337596Y81473D01*
X337605Y81437D01*
Y81419D01*
Y81401D01*
Y81392D01*
X335801D01*
X335810Y81565D01*
X335837Y81719D01*
X335874Y81856D01*
X335928Y81965D01*
X335974Y82056D01*
X336019Y82120D01*
X336047Y82166D01*
X336056Y82175D01*
X336156Y82275D01*
X336265Y82348D01*
X336375Y82394D01*
X336475Y82430D01*
X336566Y82448D01*
X336639Y82466D01*
X336703D01*
X336839Y82457D01*
D02*
G37*
G36*
X338807Y78622D02*
X336757D01*
X337022Y78640D01*
X337268Y78677D01*
X337477Y78731D01*
X337659Y78795D01*
X337741Y78832D01*
X337805Y78859D01*
X337869Y78886D01*
X337914Y78913D01*
X337951Y78941D01*
X337987Y78950D01*
X337996Y78968D01*
X338005D01*
X338179Y79114D01*
X338334Y79269D01*
X338461Y79442D01*
X338561Y79606D01*
X338643Y79752D01*
X338670Y79815D01*
X338698Y79870D01*
X338716Y79916D01*
X338734Y79952D01*
X338743Y79970D01*
Y79979D01*
X337541Y80180D01*
X337495Y80061D01*
X337450Y79952D01*
X337404Y79870D01*
X337350Y79797D01*
X337313Y79743D01*
X337277Y79706D01*
X337249Y79688D01*
X337240Y79679D01*
X337167Y79624D01*
X337085Y79588D01*
X337003Y79560D01*
X336930Y79542D01*
X336867Y79533D01*
X336812Y79524D01*
X336767D01*
X336621Y79533D01*
X336484Y79570D01*
X336357Y79615D01*
X336256Y79670D01*
X336174Y79724D01*
X336120Y79770D01*
X336074Y79806D01*
X336065Y79815D01*
X335974Y79934D01*
X335910Y80071D01*
X335856Y80216D01*
X335819Y80344D01*
X335801Y80471D01*
X335792Y80563D01*
X335783Y80599D01*
Y80626D01*
Y80644D01*
Y80654D01*
X338807D01*
Y78622D01*
D02*
G37*
G36*
X320988Y82102D02*
X318246D01*
Y81036D01*
X319704D01*
Y80225D01*
X319594Y80143D01*
X319476Y80071D01*
X319357Y80007D01*
X319248Y79952D01*
X319157Y79906D01*
X319075Y79870D01*
X319029Y79852D01*
X319020Y79843D01*
X319011D01*
X318865Y79788D01*
X318720Y79752D01*
X318583Y79724D01*
X318465Y79706D01*
X318355Y79697D01*
X318282Y79688D01*
X318210D01*
X318064Y79697D01*
X317918Y79715D01*
X317790Y79743D01*
X317663Y79779D01*
X317435Y79870D01*
X317344Y79916D01*
X317253Y79970D01*
X317171Y80025D01*
X317098Y80071D01*
X317043Y80125D01*
X316989Y80162D01*
X316952Y80198D01*
X316925Y80225D01*
X316907Y80244D01*
X316898Y80253D01*
X316816Y80362D01*
X316734Y80490D01*
X316670Y80617D01*
X316615Y80754D01*
X316524Y81036D01*
X316470Y81309D01*
X316451Y81437D01*
X316433Y81565D01*
X316424Y81665D01*
X316415Y81765D01*
X316406Y81838D01*
Y81902D01*
Y81938D01*
Y81947D01*
X316415Y82139D01*
X316424Y82312D01*
X316451Y82485D01*
X316479Y82639D01*
X316515Y82776D01*
X316561Y82904D01*
X316606Y83022D01*
X316652Y83131D01*
X316688Y83223D01*
X316734Y83305D01*
X316779Y83368D01*
X316816Y83423D01*
X316843Y83469D01*
X316870Y83496D01*
X316879Y83514D01*
X316888Y83523D01*
X316989Y83614D01*
X317089Y83705D01*
X317198Y83769D01*
X317308Y83833D01*
X317417Y83888D01*
X317526Y83933D01*
X317736Y83997D01*
X317836Y84015D01*
X317927Y84033D01*
X318009Y84043D01*
X318082Y84052D01*
X318137Y84061D01*
X318219D01*
X318419Y84052D01*
X318592Y84015D01*
X318747Y83979D01*
X318884Y83924D01*
X318984Y83878D01*
X319066Y83833D01*
X319111Y83797D01*
X319130Y83787D01*
X319257Y83678D01*
X319366Y83560D01*
X319458Y83441D01*
X319521Y83323D01*
X319576Y83214D01*
X319612Y83131D01*
X319631Y83077D01*
X319640Y83068D01*
Y83059D01*
X320906Y83296D01*
X320870Y83450D01*
X320815Y83605D01*
X320760Y83742D01*
X320687Y83869D01*
X320624Y83997D01*
X320551Y84106D01*
X320478Y84206D01*
X320405Y84298D01*
X320332Y84380D01*
X320268Y84452D01*
X320214Y84516D01*
X320159Y84562D01*
X320113Y84598D01*
X320077Y84635D01*
X320059Y84644D01*
X320050Y84653D01*
X319922Y84744D01*
X319785Y84817D01*
X319640Y84881D01*
X319485Y84935D01*
X319184Y85026D01*
X318893Y85081D01*
X318756Y85108D01*
X318629Y85118D01*
X318510Y85127D01*
X318410Y85136D01*
X318328Y85145D01*
X320988D01*
Y82102D01*
D02*
G37*
G36*
X316041Y66491D02*
X313509D01*
X313800Y66500D01*
X314064Y66527D01*
X314301Y66563D01*
X314402Y66582D01*
X314502Y66609D01*
X314584Y66627D01*
X314657Y66645D01*
X314720Y66664D01*
X314775Y66682D01*
X314821Y66700D01*
X314848Y66709D01*
X314866Y66718D01*
X314875D01*
X315076Y66818D01*
X315240Y66928D01*
X315394Y67037D01*
X315513Y67156D01*
X315604Y67256D01*
X315677Y67347D01*
X315713Y67401D01*
X315732Y67411D01*
Y67420D01*
X315832Y67602D01*
X315914Y67775D01*
X315968Y67948D01*
X316005Y68112D01*
X316023Y68240D01*
X316032Y68303D01*
X316041Y68349D01*
Y66491D01*
D02*
G37*
G36*
X346460Y70344D02*
X346578Y70308D01*
X346687Y70262D01*
X346778Y70217D01*
X346851Y70162D01*
X346906Y70116D01*
X346942Y70080D01*
X346952Y70071D01*
X347034Y69961D01*
X347106Y69834D01*
X347152Y69697D01*
X347188Y69570D01*
X347207Y69460D01*
X347216Y69360D01*
X347225Y69324D01*
Y69305D01*
Y69287D01*
Y69278D01*
X345421D01*
X345430Y69451D01*
X345458Y69606D01*
X345494Y69743D01*
X345549Y69852D01*
X345594Y69943D01*
X345640Y70007D01*
X345667Y70052D01*
X345676Y70062D01*
X345776Y70162D01*
X345886Y70235D01*
X345995Y70280D01*
X346095Y70317D01*
X346186Y70335D01*
X346259Y70353D01*
X346323D01*
X346460Y70344D01*
D02*
G37*
G36*
X348427Y66509D02*
X346378D01*
X346642Y66527D01*
X346888Y66563D01*
X347097Y66618D01*
X347280Y66682D01*
X347361Y66718D01*
X347425Y66746D01*
X347489Y66773D01*
X347535Y66800D01*
X347571Y66828D01*
X347607Y66837D01*
X347617Y66855D01*
X347626D01*
X347799Y67001D01*
X347954Y67156D01*
X348081Y67329D01*
X348181Y67493D01*
X348263Y67638D01*
X348291Y67702D01*
X348318Y67757D01*
X348336Y67802D01*
X348355Y67839D01*
X348364Y67857D01*
Y67866D01*
X347161Y68067D01*
X347115Y67948D01*
X347070Y67839D01*
X347024Y67757D01*
X346970Y67684D01*
X346933Y67629D01*
X346897Y67593D01*
X346869Y67575D01*
X346860Y67566D01*
X346788Y67511D01*
X346706Y67474D01*
X346624Y67447D01*
X346551Y67429D01*
X346487Y67420D01*
X346432Y67411D01*
X346387D01*
X346241Y67420D01*
X346104Y67456D01*
X345977Y67502D01*
X345877Y67556D01*
X345795Y67611D01*
X345740Y67657D01*
X345694Y67693D01*
X345685Y67702D01*
X345594Y67821D01*
X345530Y67957D01*
X345476Y68103D01*
X345439Y68230D01*
X345421Y68358D01*
X345412Y68449D01*
X345403Y68486D01*
Y68513D01*
Y68531D01*
Y68540D01*
X348427D01*
Y66509D01*
D02*
G37*
G36*
X361473Y70280D02*
X361628Y70244D01*
X361755Y70180D01*
X361874Y70116D01*
X361965Y70052D01*
X362038Y69989D01*
X362074Y69952D01*
X362092Y69934D01*
X362202Y69788D01*
X362284Y69615D01*
X362338Y69442D01*
X362384Y69278D01*
X362402Y69132D01*
X362411Y69060D01*
Y69005D01*
X362420Y68959D01*
Y68923D01*
Y68905D01*
Y68896D01*
X362402Y68659D01*
X362366Y68440D01*
X362320Y68267D01*
X362256Y68112D01*
X362193Y68003D01*
X362147Y67912D01*
X362111Y67866D01*
X362092Y67848D01*
X361965Y67730D01*
X361837Y67638D01*
X361701Y67584D01*
X361573Y67538D01*
X361464Y67511D01*
X361382Y67502D01*
X361345Y67493D01*
X361300D01*
X361127Y67511D01*
X360972Y67547D01*
X360835Y67602D01*
X360726Y67675D01*
X360626Y67739D01*
X360553Y67793D01*
X360516Y67830D01*
X360498Y67848D01*
X360389Y67994D01*
X360316Y68167D01*
X360261Y68340D01*
X360216Y68513D01*
X360197Y68659D01*
X360188Y68722D01*
Y68786D01*
X360179Y68832D01*
Y68868D01*
Y68887D01*
Y68896D01*
X360197Y69132D01*
X360234Y69342D01*
X360279Y69524D01*
X360343Y69670D01*
X360398Y69779D01*
X360453Y69870D01*
X360489Y69916D01*
X360498Y69934D01*
X360626Y70052D01*
X360762Y70144D01*
X360899Y70207D01*
X361027Y70253D01*
X361136Y70280D01*
X361218Y70289D01*
X361254Y70298D01*
X361300D01*
X361473Y70280D01*
D02*
G37*
G36*
X363659Y66509D02*
X361300D01*
X361491Y66518D01*
X361664Y66536D01*
X361837Y66572D01*
X361992Y66618D01*
X362147Y66664D01*
X362284Y66718D01*
X362411Y66782D01*
X362530Y66846D01*
X362630Y66910D01*
X362721Y66973D01*
X362803Y67028D01*
X362867Y67074D01*
X362921Y67119D01*
X362958Y67156D01*
X362976Y67174D01*
X362985Y67183D01*
X363104Y67320D01*
X363204Y67456D01*
X363295Y67593D01*
X363377Y67739D01*
X363441Y67884D01*
X363495Y68030D01*
X363541Y68167D01*
X363577Y68303D01*
X363605Y68422D01*
X363623Y68540D01*
X363641Y68641D01*
X363650Y68732D01*
X363659Y68805D01*
Y66509D01*
D02*
G37*
G36*
X337386Y71856D02*
X337623D01*
X337678Y71847D01*
X337778D01*
X337814Y71838D01*
X337823D01*
X337933Y71820D01*
X338033Y71793D01*
X338115Y71756D01*
X338188Y71720D01*
X338233Y71683D01*
X338279Y71647D01*
X338297Y71629D01*
X338306Y71619D01*
X338361Y71547D01*
X338397Y71465D01*
X338434Y71392D01*
X338452Y71319D01*
X338461Y71246D01*
X338470Y71191D01*
Y71155D01*
Y71146D01*
X338461Y71036D01*
X338443Y70936D01*
X338406Y70854D01*
X338379Y70781D01*
X338343Y70718D01*
X338306Y70681D01*
X338288Y70654D01*
X338279Y70645D01*
X338206Y70581D01*
X338124Y70535D01*
X338042Y70499D01*
X337960Y70472D01*
X337878Y70444D01*
X337823Y70435D01*
X337787Y70426D01*
X337732D01*
X337678Y70417D01*
X337395D01*
X337240Y70408D01*
X336019D01*
Y71865D01*
X337286D01*
X337386Y71856D01*
D02*
G37*
G36*
X337468Y69351D02*
X337577Y69342D01*
X337687D01*
X337778Y69333D01*
X337860Y69324D01*
X337924Y69315D01*
X337987Y69305D01*
X338033Y69296D01*
X338106Y69287D01*
X338151Y69269D01*
X338160D01*
X338251Y69233D01*
X338334Y69187D01*
X338406Y69142D01*
X338461Y69087D01*
X338507Y69050D01*
X338534Y69014D01*
X338552Y68987D01*
X338561Y68978D01*
X338607Y68896D01*
X338643Y68814D01*
X338670Y68741D01*
X338689Y68659D01*
X338698Y68595D01*
X338707Y68540D01*
Y68504D01*
Y68495D01*
X338698Y68376D01*
X338680Y68267D01*
X338652Y68176D01*
X338616Y68103D01*
X338579Y68039D01*
X338552Y67994D01*
X338534Y67966D01*
X338525Y67957D01*
X338452Y67893D01*
X338379Y67839D01*
X338297Y67793D01*
X338224Y67757D01*
X338160Y67739D01*
X338106Y67720D01*
X338069Y67711D01*
X338060D01*
X338024Y67702D01*
X337969D01*
X337851Y67693D01*
X337705Y67684D01*
X337559D01*
X337422Y67675D01*
X336019D01*
Y69360D01*
X337340D01*
X337468Y69351D01*
D02*
G37*
G36*
X326126Y71856D02*
X326363D01*
X326418Y71847D01*
X326518D01*
X326554Y71838D01*
X326563D01*
X326673Y71820D01*
X326773Y71793D01*
X326855Y71756D01*
X326928Y71720D01*
X326973Y71683D01*
X327019Y71647D01*
X327037Y71629D01*
X327046Y71619D01*
X327101Y71547D01*
X327137Y71465D01*
X327174Y71392D01*
X327192Y71319D01*
X327201Y71246D01*
X327210Y71191D01*
Y71155D01*
Y71146D01*
X327201Y71036D01*
X327183Y70936D01*
X327146Y70854D01*
X327119Y70781D01*
X327083Y70718D01*
X327046Y70681D01*
X327028Y70654D01*
X327019Y70645D01*
X326946Y70581D01*
X326864Y70535D01*
X326782Y70499D01*
X326700Y70472D01*
X326618Y70444D01*
X326563Y70435D01*
X326527Y70426D01*
X326472D01*
X326418Y70417D01*
X326135D01*
X325980Y70408D01*
X324760D01*
Y71865D01*
X326026D01*
X326126Y71856D01*
D02*
G37*
G36*
X326208Y69351D02*
X326317Y69342D01*
X326427D01*
X326518Y69333D01*
X326600Y69324D01*
X326663Y69315D01*
X326727Y69305D01*
X326773Y69296D01*
X326846Y69287D01*
X326891Y69269D01*
X326900D01*
X326992Y69233D01*
X327074Y69187D01*
X327146Y69142D01*
X327201Y69087D01*
X327247Y69050D01*
X327274Y69014D01*
X327292Y68987D01*
X327301Y68978D01*
X327347Y68896D01*
X327383Y68814D01*
X327411Y68741D01*
X327429Y68659D01*
X327438Y68595D01*
X327447Y68540D01*
Y68504D01*
Y68495D01*
X327438Y68376D01*
X327420Y68267D01*
X327392Y68176D01*
X327356Y68103D01*
X327320Y68039D01*
X327292Y67994D01*
X327274Y67966D01*
X327265Y67957D01*
X327192Y67893D01*
X327119Y67839D01*
X327037Y67793D01*
X326964Y67757D01*
X326900Y67739D01*
X326846Y67720D01*
X326809Y67711D01*
X326800D01*
X326764Y67702D01*
X326709D01*
X326591Y67693D01*
X326445Y67684D01*
X326299D01*
X326163Y67675D01*
X324760D01*
Y69360D01*
X326080D01*
X326208Y69351D01*
D02*
G37*
G36*
X351935Y68549D02*
Y68404D01*
X351926Y68276D01*
X351917Y68176D01*
X351907Y68094D01*
X351898Y68039D01*
X351889Y67994D01*
X351880Y67975D01*
Y67966D01*
X351853Y67884D01*
X351807Y67802D01*
X351762Y67739D01*
X351716Y67675D01*
X351671Y67629D01*
X351634Y67593D01*
X351607Y67575D01*
X351598Y67566D01*
X351488Y67493D01*
X351370Y67447D01*
X351270Y67411D01*
X351169Y67383D01*
X351087Y67365D01*
X351024Y67356D01*
X350969D01*
X350869Y67365D01*
X350769Y67383D01*
X350687Y67411D01*
X350623Y67447D01*
X350559Y67484D01*
X350523Y67511D01*
X350495Y67529D01*
X350486Y67538D01*
X350422Y67611D01*
X350377Y67684D01*
X350349Y67757D01*
X350331Y67830D01*
X350313Y67884D01*
X350304Y67930D01*
Y67966D01*
Y67975D01*
X350313Y68067D01*
X350340Y68149D01*
X350377Y68221D01*
X350422Y68285D01*
X350459Y68331D01*
X350495Y68367D01*
X350523Y68385D01*
X350532Y68395D01*
X350605Y68431D01*
X350696Y68476D01*
X350805Y68513D01*
X350914Y68540D01*
X351024Y68568D01*
X351106Y68586D01*
X351142Y68595D01*
X351169Y68604D01*
X351188D01*
X351370Y68641D01*
X351516Y68677D01*
X351652Y68713D01*
X351752Y68741D01*
X351835Y68768D01*
X351889Y68777D01*
X351926Y68795D01*
X351935D01*
Y68549D01*
D02*
G37*
G36*
X281997Y66491D02*
X279556D01*
X279820Y66500D01*
X280057Y66518D01*
X280266Y66554D01*
X280439Y66591D01*
X280512Y66600D01*
X280585Y66618D01*
X280640Y66636D01*
X280685Y66654D01*
X280722Y66664D01*
X280749Y66673D01*
X280758Y66682D01*
X280767D01*
X280931Y66755D01*
X281077Y66846D01*
X281205Y66928D01*
X281314Y67010D01*
X281396Y67083D01*
X281460Y67137D01*
X281496Y67174D01*
X281505Y67192D01*
X281606Y67320D01*
X281687Y67456D01*
X281751Y67584D01*
X281806Y67711D01*
X281842Y67821D01*
X281870Y67912D01*
X281879Y67939D01*
Y67966D01*
X281888Y67975D01*
Y67985D01*
X281906Y68085D01*
X281924Y68194D01*
X281943Y68313D01*
X281952Y68431D01*
X281970Y68704D01*
X281988Y68968D01*
Y69087D01*
Y69205D01*
X281997Y69315D01*
Y66491D01*
D02*
G37*
G36*
X357191Y66609D02*
X355488D01*
Y68067D01*
X356034Y68659D01*
X357191Y66609D01*
D02*
G37*
G36*
X307114Y71838D02*
X307223D01*
X307314Y71829D01*
X307396D01*
X307478Y71820D01*
X307542D01*
X307642Y71802D01*
X307715Y71793D01*
X307760Y71783D01*
X307769D01*
X307897Y71747D01*
X308006Y71701D01*
X308106Y71656D01*
X308198Y71601D01*
X308261Y71556D01*
X308316Y71519D01*
X308343Y71492D01*
X308352Y71483D01*
X308434Y71392D01*
X308507Y71292D01*
X308571Y71191D01*
X308626Y71100D01*
X308662Y71009D01*
X308689Y70936D01*
X308708Y70891D01*
X308717Y70882D01*
Y70872D01*
X308762Y70709D01*
X308799Y70535D01*
X308817Y70344D01*
X308835Y70162D01*
X308844Y70007D01*
X308854Y69934D01*
Y69870D01*
Y69825D01*
Y69788D01*
Y69761D01*
Y69752D01*
X308844Y69497D01*
X308835Y69260D01*
X308808Y69069D01*
X308790Y68905D01*
X308762Y68768D01*
X308753Y68713D01*
X308735Y68677D01*
X308726Y68641D01*
Y68613D01*
X308717Y68604D01*
Y68595D01*
X308662Y68449D01*
X308617Y68322D01*
X308553Y68221D01*
X308507Y68139D01*
X308462Y68076D01*
X308425Y68030D01*
X308398Y68003D01*
X308389Y67994D01*
X308307Y67930D01*
X308225Y67875D01*
X308143Y67830D01*
X308061Y67793D01*
X307988Y67766D01*
X307933Y67748D01*
X307897Y67730D01*
X307879D01*
X307779Y67711D01*
X307660Y67702D01*
X307533Y67684D01*
X307405D01*
X307287Y67675D01*
X306166D01*
Y71847D01*
X306995D01*
X307114Y71838D01*
D02*
G37*
G36*
X295853Y71838D02*
X295963D01*
X296054Y71829D01*
X296136D01*
X296218Y71820D01*
X296282D01*
X296382Y71802D01*
X296455Y71793D01*
X296500Y71783D01*
X296510D01*
X296637Y71747D01*
X296746Y71701D01*
X296847Y71656D01*
X296938Y71601D01*
X297001Y71556D01*
X297056Y71519D01*
X297083Y71492D01*
X297093Y71483D01*
X297175Y71392D01*
X297247Y71292D01*
X297311Y71191D01*
X297366Y71100D01*
X297402Y71009D01*
X297430Y70936D01*
X297448Y70891D01*
X297457Y70881D01*
Y70872D01*
X297502Y70709D01*
X297539Y70535D01*
X297557Y70344D01*
X297575Y70162D01*
X297584Y70007D01*
X297593Y69934D01*
Y69870D01*
Y69825D01*
Y69788D01*
Y69761D01*
Y69752D01*
X297584Y69497D01*
X297575Y69260D01*
X297548Y69069D01*
X297530Y68905D01*
X297502Y68768D01*
X297493Y68713D01*
X297475Y68677D01*
X297466Y68641D01*
Y68613D01*
X297457Y68604D01*
Y68595D01*
X297402Y68449D01*
X297357Y68322D01*
X297293Y68221D01*
X297247Y68139D01*
X297202Y68076D01*
X297165Y68030D01*
X297138Y68003D01*
X297129Y67994D01*
X297047Y67930D01*
X296965Y67875D01*
X296883Y67830D01*
X296801Y67793D01*
X296728Y67766D01*
X296673Y67748D01*
X296637Y67730D01*
X296619D01*
X296519Y67711D01*
X296400Y67702D01*
X296273Y67684D01*
X296145D01*
X296027Y67675D01*
X294906D01*
Y71847D01*
X295735D01*
X295853Y71838D01*
D02*
G37*
G36*
X294979Y60020D02*
X295052Y60011D01*
X295116Y59984D01*
X295170Y59957D01*
X295216Y59929D01*
X295252Y59911D01*
X295270Y59893D01*
X295280Y59884D01*
X295334Y59820D01*
X295389Y59738D01*
X295434Y59647D01*
X295480Y59556D01*
X295507Y59465D01*
X295535Y59392D01*
X295544Y59346D01*
X295553Y59337D01*
Y59328D01*
X295571Y59246D01*
X295589Y59146D01*
X295608Y59027D01*
X295626Y58909D01*
X295644Y58663D01*
X295653Y58408D01*
X295662Y58289D01*
Y58171D01*
X295671Y58071D01*
Y57980D01*
Y57907D01*
Y57843D01*
Y57807D01*
Y57797D01*
Y57597D01*
X295662Y57406D01*
Y57233D01*
X295653Y57078D01*
X295644Y56932D01*
X295635Y56805D01*
X295617Y56686D01*
X295608Y56586D01*
X295599Y56495D01*
X295580Y56422D01*
X295571Y56358D01*
X295562Y56303D01*
X295553Y56267D01*
Y56230D01*
X295544Y56221D01*
Y56212D01*
X295507Y56085D01*
X295462Y55985D01*
X295416Y55893D01*
X295380Y55830D01*
X295343Y55775D01*
X295307Y55739D01*
X295289Y55720D01*
X295280Y55711D01*
X295216Y55666D01*
X295152Y55629D01*
X295088Y55611D01*
X295024Y55593D01*
X294979Y55584D01*
X294933Y55575D01*
X294897D01*
X294815Y55584D01*
X294742Y55593D01*
X294678Y55620D01*
X294624Y55647D01*
X294578Y55666D01*
X294542Y55693D01*
X294524Y55702D01*
X294514Y55711D01*
X294460Y55775D01*
X294405Y55857D01*
X294359Y55948D01*
X294314Y56039D01*
X294287Y56121D01*
X294259Y56194D01*
X294250Y56240D01*
X294241Y56258D01*
X294223Y56349D01*
X294205Y56449D01*
X294186Y56559D01*
X294177Y56677D01*
X294159Y56932D01*
X294150Y57187D01*
X294141Y57306D01*
Y57424D01*
X294132Y57524D01*
Y57615D01*
Y57688D01*
Y57752D01*
Y57788D01*
Y57797D01*
Y57998D01*
X294141Y58189D01*
Y58353D01*
X294150Y58517D01*
X294159Y58654D01*
X294168Y58790D01*
X294177Y58900D01*
X294196Y59009D01*
X294205Y59100D01*
X294214Y59173D01*
X294223Y59237D01*
X294232Y59291D01*
X294241Y59328D01*
Y59364D01*
X294250Y59373D01*
Y59383D01*
X294287Y59510D01*
X294332Y59619D01*
X294369Y59701D01*
X294414Y59774D01*
X294451Y59820D01*
X294478Y59856D01*
X294496Y59874D01*
X294505Y59884D01*
X294569Y59929D01*
X294642Y59966D01*
X294706Y59993D01*
X294769Y60011D01*
X294815Y60020D01*
X294861Y60029D01*
X294897D01*
X294979Y60020D01*
D02*
G37*
G36*
X279784Y59920D02*
X279984D01*
X280066Y59911D01*
X280121D01*
X280148Y59902D01*
X280157D01*
X280266Y59874D01*
X280366Y59838D01*
X280449Y59802D01*
X280512Y59756D01*
X280567Y59711D01*
X280612Y59683D01*
X280631Y59656D01*
X280640Y59647D01*
X280695Y59574D01*
X280740Y59483D01*
X280767Y59401D01*
X280795Y59319D01*
X280804Y59246D01*
X280813Y59191D01*
Y59155D01*
Y59137D01*
X280804Y59036D01*
X280795Y58945D01*
X280767Y58863D01*
X280749Y58790D01*
X280722Y58736D01*
X280695Y58699D01*
X280685Y58672D01*
X280676Y58663D01*
X280622Y58599D01*
X280567Y58544D01*
X280449Y58463D01*
X280403Y58435D01*
X280357Y58417D01*
X280330Y58399D01*
X280321D01*
X280275Y58390D01*
X280203Y58371D01*
X280130Y58362D01*
X280048Y58353D01*
X279856Y58344D01*
X279665Y58335D01*
X279483Y58326D01*
X278244D01*
Y59929D01*
X279701D01*
X279784Y59920D01*
D02*
G37*
G36*
X278781Y57315D02*
X278891Y57306D01*
X278982Y57287D01*
X279055Y57278D01*
X279100Y57260D01*
X279128Y57251D01*
X279137D01*
X279210Y57214D01*
X279282Y57178D01*
X279346Y57132D01*
X279410Y57096D01*
X279455Y57050D01*
X279492Y57014D01*
X279510Y56996D01*
X279519Y56987D01*
X279556Y56941D01*
X279601Y56896D01*
X279701Y56759D01*
X279811Y56613D01*
X279929Y56449D01*
X280030Y56303D01*
X280075Y56230D01*
X280112Y56176D01*
X280148Y56130D01*
X280175Y56094D01*
X280184Y56067D01*
X280193Y56057D01*
X281104Y54691D01*
X278244D01*
Y57324D01*
X278654D01*
X278781Y57315D01*
D02*
G37*
G36*
X285259Y58426D02*
X285377Y58390D01*
X285486Y58344D01*
X285577Y58298D01*
X285650Y58244D01*
X285705Y58198D01*
X285741Y58162D01*
X285751Y58153D01*
X285833Y58043D01*
X285905Y57916D01*
X285951Y57779D01*
X285987Y57652D01*
X286006Y57542D01*
X286015Y57442D01*
X286024Y57406D01*
Y57388D01*
Y57369D01*
Y57360D01*
X284220D01*
X284229Y57533D01*
X284257Y57688D01*
X284293Y57825D01*
X284348Y57934D01*
X284393Y58025D01*
X284439Y58089D01*
X284466Y58135D01*
X284475Y58144D01*
X284575Y58244D01*
X284685Y58317D01*
X284794Y58362D01*
X284894Y58399D01*
X284985Y58417D01*
X285058Y58435D01*
X285122D01*
X285259Y58426D01*
D02*
G37*
G36*
X287226Y54591D02*
X285177D01*
X285441Y54609D01*
X285687Y54645D01*
X285896Y54700D01*
X286079Y54764D01*
X286160Y54800D01*
X286224Y54828D01*
X286288Y54855D01*
X286334Y54882D01*
X286370Y54910D01*
X286406Y54919D01*
X286416Y54937D01*
X286425D01*
X286598Y55083D01*
X286753Y55238D01*
X286880Y55411D01*
X286980Y55575D01*
X287062Y55720D01*
X287090Y55784D01*
X287117Y55839D01*
X287135Y55884D01*
X287154Y55921D01*
X287163Y55939D01*
Y55948D01*
X285960Y56148D01*
X285914Y56030D01*
X285869Y55921D01*
X285823Y55839D01*
X285769Y55766D01*
X285732Y55711D01*
X285696Y55675D01*
X285669Y55657D01*
X285659Y55647D01*
X285587Y55593D01*
X285505Y55556D01*
X285423Y55529D01*
X285350Y55511D01*
X285286Y55502D01*
X285231Y55493D01*
X285186D01*
X285040Y55502D01*
X284903Y55538D01*
X284776Y55584D01*
X284676Y55638D01*
X284594Y55693D01*
X284539Y55739D01*
X284493Y55775D01*
X284484Y55784D01*
X284393Y55903D01*
X284329Y56039D01*
X284275Y56185D01*
X284238Y56313D01*
X284220Y56440D01*
X284211Y56531D01*
X284202Y56568D01*
Y56595D01*
Y56613D01*
Y56622D01*
X287226D01*
Y54591D01*
D02*
G37*
G36*
X295926Y48947D02*
X295999Y48938D01*
X296063Y48911D01*
X296118Y48884D01*
X296163Y48856D01*
X296200Y48838D01*
X296218Y48820D01*
X296227Y48811D01*
X296282Y48747D01*
X296336Y48665D01*
X296382Y48574D01*
X296427Y48483D01*
X296455Y48392D01*
X296482Y48319D01*
X296491Y48273D01*
X296500Y48264D01*
Y48255D01*
X296519Y48173D01*
X296537Y48073D01*
X296555Y47954D01*
X296573Y47836D01*
X296591Y47590D01*
X296601Y47335D01*
X296610Y47216D01*
Y47098D01*
X296619Y46998D01*
Y46907D01*
Y46834D01*
Y46770D01*
Y46734D01*
Y46725D01*
Y46524D01*
X296610Y46333D01*
Y46160D01*
X296601Y46005D01*
X296591Y45859D01*
X296582Y45732D01*
X296564Y45613D01*
X296555Y45513D01*
X296546Y45422D01*
X296528Y45349D01*
X296519Y45285D01*
X296510Y45230D01*
X296500Y45194D01*
Y45158D01*
X296491Y45149D01*
Y45139D01*
X296455Y45012D01*
X296409Y44912D01*
X296364Y44821D01*
X296327Y44757D01*
X296291Y44702D01*
X296254Y44666D01*
X296236Y44647D01*
X296227Y44638D01*
X296163Y44593D01*
X296099Y44556D01*
X296036Y44538D01*
X295972Y44520D01*
X295926Y44511D01*
X295881Y44502D01*
X295844D01*
X295762Y44511D01*
X295690Y44520D01*
X295626Y44547D01*
X295571Y44575D01*
X295526Y44593D01*
X295489Y44620D01*
X295471Y44629D01*
X295462Y44638D01*
X295407Y44702D01*
X295353Y44784D01*
X295307Y44875D01*
X295261Y44966D01*
X295234Y45048D01*
X295207Y45121D01*
X295198Y45167D01*
X295188Y45185D01*
X295170Y45276D01*
X295152Y45376D01*
X295134Y45486D01*
X295125Y45604D01*
X295107Y45859D01*
X295097Y46114D01*
X295088Y46233D01*
Y46351D01*
X295079Y46451D01*
Y46542D01*
Y46615D01*
Y46679D01*
Y46716D01*
Y46725D01*
Y46925D01*
X295088Y47116D01*
Y47280D01*
X295097Y47444D01*
X295107Y47581D01*
X295116Y47718D01*
X295125Y47827D01*
X295143Y47936D01*
X295152Y48027D01*
X295161Y48100D01*
X295170Y48164D01*
X295179Y48219D01*
X295188Y48255D01*
Y48292D01*
X295198Y48301D01*
Y48310D01*
X295234Y48437D01*
X295280Y48547D01*
X295316Y48629D01*
X295362Y48701D01*
X295398Y48747D01*
X295425Y48783D01*
X295444Y48802D01*
X295453Y48811D01*
X295516Y48856D01*
X295589Y48893D01*
X295653Y48920D01*
X295717Y48938D01*
X295762Y48947D01*
X295808Y48957D01*
X295844D01*
X295926Y48947D01*
D02*
G37*
%LPC*%
G36*
X432212Y72454D02*
X431140D01*
X430885Y71200D01*
X431957D01*
X432212Y72454D01*
D02*
G37*
G36*
X424966Y71149D02*
X424958D01*
X424951Y71142D01*
X424929Y71134D01*
X424900Y71127D01*
X424864Y71113D01*
X424820Y71098D01*
X424769Y71083D01*
X424711Y71069D01*
X424645Y71047D01*
X424565Y71032D01*
X424484Y71011D01*
X424390Y70989D01*
X424288Y70967D01*
X424186Y70945D01*
X424069Y70930D01*
X423945Y70908D01*
X423931D01*
X423887Y70901D01*
X423814Y70886D01*
X423734Y70872D01*
X423646Y70857D01*
X423559Y70836D01*
X423479Y70814D01*
X423406Y70784D01*
X423398D01*
X423376Y70770D01*
X423347Y70755D01*
X423318Y70733D01*
X423231Y70675D01*
X423158Y70588D01*
Y70580D01*
X423143Y70566D01*
X423136Y70537D01*
X423121Y70500D01*
X423107Y70456D01*
X423092Y70413D01*
X423085Y70354D01*
X423077Y70296D01*
Y70289D01*
Y70252D01*
X423085Y70209D01*
X423099Y70150D01*
X423121Y70085D01*
X423158Y70019D01*
X423202Y69946D01*
X423260Y69880D01*
X423267Y69873D01*
X423296Y69859D01*
X423340Y69829D01*
X423398Y69800D01*
X423479Y69771D01*
X423573Y69742D01*
X423683Y69727D01*
X423814Y69720D01*
X423872D01*
X423945Y69727D01*
X424025Y69742D01*
X424127Y69757D01*
X424229Y69786D01*
X424339Y69822D01*
X424448Y69873D01*
X424463Y69880D01*
X424492Y69902D01*
X424543Y69939D01*
X424601Y69990D01*
X424667Y70048D01*
X424740Y70121D01*
X424798Y70209D01*
X424856Y70303D01*
X424864Y70311D01*
X424871Y70340D01*
X424885Y70391D01*
X424907Y70456D01*
X424929Y70544D01*
X424944Y70646D01*
X424951Y70770D01*
X424958Y70916D01*
X424966Y71149D01*
D02*
G37*
G36*
X416291Y72541D02*
X416247D01*
X416218Y72534D01*
X416137Y72527D01*
X416043Y72505D01*
X415926Y72469D01*
X415802Y72417D01*
X415686Y72344D01*
X415569Y72250D01*
X415554Y72235D01*
X415525Y72199D01*
X415474Y72133D01*
X415423Y72046D01*
X415365Y71944D01*
X415314Y71812D01*
X415270Y71659D01*
X415248Y71492D01*
X417297D01*
Y71499D01*
Y71513D01*
X417289Y71535D01*
Y71565D01*
X417275Y71652D01*
X417253Y71747D01*
X417216Y71863D01*
X417180Y71973D01*
X417122Y72082D01*
X417056Y72177D01*
Y72184D01*
X417041Y72191D01*
X417005Y72235D01*
X416939Y72294D01*
X416852Y72359D01*
X416743Y72425D01*
X416611Y72483D01*
X416458Y72527D01*
X416378Y72534D01*
X416291Y72541D01*
D02*
G37*
%LPD*%
D10*
X487716Y67764D02*
G03*
X490453Y65028I2736J0D01*
G01*
Y328768D02*
G03*
X487716Y326031I0J-2736D01*
G01*
X524016Y87843D02*
Y305953D01*
X558976Y91071D02*
X582283D01*
X487717Y67764D02*
Y326031D01*
X582283Y91071D02*
Y302725D01*
X490472Y65008D02*
X558976D01*
Y328787D01*
X490472D02*
X558976D01*
Y302725D02*
X582283D01*
X524016Y87843D02*
X539764D01*
Y305953D01*
X524016D02*
X539764D01*
X555433Y65008D02*
Y328787D01*
X409449Y41732D02*
Y67716D01*
Y41732D02*
X435433D01*
Y67716D01*
X409449D02*
X435433D01*
D11*
X275221Y110332D02*
G03*
X275252Y109469I49275J1331D01*
G01*
X314726Y167048D02*
G03*
X314468Y166425I623J-623D01*
G01*
X315785Y99688D02*
G03*
X317963Y99310I1967J4876D01*
G01*
X316662Y102017D02*
G03*
X317560Y101501I1225J1092D01*
G01*
X316116Y103154D02*
G03*
X316662Y102017I2502J501D01*
G01*
X316484Y132798D02*
G03*
X317107Y132543I619J622D01*
G01*
X316226Y133420D02*
G03*
X316484Y132798I877J-0D01*
G01*
X316226Y166425D02*
G03*
X315349Y167306I-881J0D01*
G01*
X318583Y99321D02*
G03*
X318848Y99336I-348J8685D01*
G01*
X319686Y101402D02*
G03*
X319738Y101408I-242J2010D01*
G01*
X319586Y101392D02*
G03*
X319686Y101402I-168J2246D01*
G01*
X319538Y101389D02*
G03*
X319586Y101392I-145J2584D01*
G01*
X329737Y119556D02*
G03*
X328058Y118545I3830J-8256D01*
G01*
X333526Y118029D02*
G03*
X332900Y118079I-603J-3579D01*
G01*
X332695Y120148D02*
G03*
X331314Y120034I75J-9382D01*
G01*
X337295Y115617D02*
G03*
X337105Y114538I7930J-1955D01*
G01*
X337614Y116580D02*
G03*
X337439Y116113I5665J-2399D01*
G01*
X337439Y116113D02*
G03*
X337295Y115617I6479J-2143D01*
G01*
X338284Y100615D02*
G03*
X340264Y99478I3872J4451D01*
G01*
X340744Y110754D02*
G03*
X339442Y110065I3461J-8116D01*
G01*
X340843Y117202D02*
G03*
X339165Y114538I1865J-3035D01*
G01*
X340191Y119265D02*
G03*
X339345Y118767I2411J-5058D01*
G01*
Y118767D02*
G03*
X338062Y117426I2906J-4064D01*
G01*
X340671Y119473D02*
G03*
X340191Y119265I2438J-6290D01*
G01*
X342472Y101238D02*
G03*
X342910Y101188I1210J8703D01*
G01*
X343368Y101158D02*
G03*
X343848Y101148I474J11306D01*
G01*
X342910Y101188D02*
G03*
X343368Y101158I876J9930D01*
G01*
X341658Y101397D02*
G03*
X342055Y101307I1713J6661D01*
G01*
X340929Y101636D02*
G03*
X341658Y101397I2165J5385D01*
G01*
X342962Y109444D02*
G03*
X342355Y109276I2538J-10361D01*
G01*
X343616Y109586D02*
G03*
X342962Y109444I2383J-12531D01*
G01*
X341793Y109082D02*
G03*
X341279Y108863I2675J-6984D01*
G01*
X342355Y109276D02*
G03*
X341793Y109082I2630J-8523D01*
G01*
X343141Y111500D02*
G03*
X342282Y111289I3196J-14890D01*
G01*
X344058Y111672D02*
G03*
X343141Y111500I2852J-17725D01*
G01*
X342282Y111289D02*
G03*
X341483Y111040I3443J-12467D01*
G01*
X342965Y120025D02*
G03*
X342335Y119929I1537J-12158D01*
G01*
X343059Y117939D02*
G03*
X342619Y117860I1365J-8875D01*
G01*
X343633Y120094D02*
G03*
X342965Y120025I1128J-14269D01*
G01*
X343528Y118000D02*
G03*
X343059Y117939I1142J-10527D01*
G01*
X344024Y118044D02*
G03*
X343528Y118000I847J-12422D01*
G01*
X342335Y119929D02*
G03*
X341742Y119805I1855J-10329D01*
G01*
X341742Y119805D02*
G03*
X341188Y119653I2100J-8756D01*
G01*
X341824Y117649D02*
G03*
X341469Y117518I1718J-5185D01*
G01*
X342208Y117763D02*
G03*
X341824Y117649I1641J-6222D01*
G01*
X342619Y117860D02*
G03*
X342208Y117763I1527J-7446D01*
G01*
X342463Y130759D02*
G03*
X344053Y131598I-90J2096D01*
G01*
X342463Y132543D02*
G03*
X342648Y132639I-116J447D01*
G01*
X342081Y141367D02*
G03*
X342703Y141625I0J877D01*
G01*
D02*
G03*
X342958Y142248I-622J619D01*
G01*
X341200Y142248D02*
G03*
X341458Y141625I881J0D01*
G01*
D02*
G03*
X342081Y141367I623J623D01*
G01*
X343216Y165479D02*
G03*
X342958Y164856I623J-623D01*
G01*
X343512Y167478D02*
G03*
X341877Y166801I0J-2312D01*
G01*
X344695Y99210D02*
G03*
X346638Y99688I-1223J9150D01*
G01*
X345062Y109793D02*
G03*
X344316Y109703I1804J-18001D01*
G01*
X345854Y109858D02*
G03*
X345062Y109793I1344J-21368D01*
G01*
X346071Y111901D02*
G03*
X345035Y111806I1767J-24788D01*
G01*
X347166Y111959D02*
G03*
X346071Y111901I976J-29094D01*
G01*
X345081Y120148D02*
G03*
X344338Y120135I-31J-19427D01*
G01*
X347813Y102311D02*
G03*
X349441Y103460I-5625J9693D01*
G01*
X352084Y131640D02*
G03*
X352343Y131017I881J0D01*
G01*
X352965Y132521D02*
G03*
X352343Y132264I0J-881D01*
G01*
Y132263D02*
G03*
X352084Y131640I623J-623D01*
G01*
X352343Y131017D02*
G03*
X352965Y130759I623J623D01*
G01*
X366800Y165368D02*
G03*
X366821Y165611I-185J138D01*
G01*
X369343Y166862D02*
G03*
X368268Y167478I-1004J-507D01*
G01*
X375651Y132777D02*
G03*
X375909Y133398I-619J622D01*
G01*
X375028Y132521D02*
G03*
X375651Y132777I4J877D01*
G01*
X376999Y131448D02*
G03*
X377667Y133096I-1648J1627D01*
G01*
X378544Y165724D02*
G03*
X377667Y164843I4J-881D01*
G01*
X378221Y167478D02*
G03*
X376586Y166801I0J-2312D01*
G01*
X405377Y133075D02*
G03*
X407689Y130759I2316J0D01*
G01*
X407394Y132794D02*
G03*
X408017Y132538I619J622D01*
G01*
X407135Y133415D02*
G03*
X407394Y132794I877J-0D01*
G01*
X410845Y119527D02*
G03*
X408990Y118469I3269J-7888D01*
G01*
X414113Y120148D02*
G03*
X412565Y120018I36J-9714D01*
G01*
X417999Y115096D02*
G03*
X417193Y116774I-3951J-864D01*
G01*
X417291Y119492D02*
G03*
X416357Y119856I-2482J-4984D01*
G01*
X417732Y131025D02*
G03*
X417982Y131657I-630J616D01*
G01*
X417982Y131657D02*
G03*
X417105Y132538I-881J0D01*
G01*
X417105Y130759D02*
G03*
X417732Y131025I-4J881D01*
G01*
X420095Y115483D02*
G03*
X419784Y116576I-7919J-1666D01*
G01*
X420282Y114244D02*
G03*
X420095Y115483I-10787J-994D01*
G01*
X433474Y120034D02*
G03*
X431909Y119556I1101J-6401D01*
G01*
X436209Y117769D02*
G03*
X434321Y118079I-1740J-4685D01*
G01*
X443687Y119401D02*
G03*
X441912Y118276I3668J-7753D01*
G01*
X447171Y118058D02*
G03*
X446737Y118071I-428J-7286D01*
G01*
X450076Y116543D02*
G03*
X449905Y116812I-2723J-1541D01*
G01*
X450228Y116242D02*
G03*
X450076Y116543I-3394J-1533D01*
G01*
X450363Y115909D02*
G03*
X450228Y116242I-4231J-1518D01*
G01*
X449289Y119856D02*
G03*
X447270Y120148I-1930J-6227D01*
G01*
X449238Y117454D02*
G03*
X448960Y117617I-1623J-2439D01*
G01*
X450131Y119492D02*
G03*
X449289Y119856I-2289J-4131D01*
G01*
X447965Y117957D02*
G03*
X447581Y118020I-1036J-5116D01*
G01*
X448323Y117869D02*
G03*
X447965Y117957I-1237J-4256D01*
G01*
X448655Y117756D02*
G03*
X448323Y117869I-1391J-3532D01*
G01*
X448960Y117617D02*
G03*
X448655Y117756I-1514J-2931D01*
G01*
X450803Y112679D02*
G03*
X450767Y113762I-15451J30D01*
G01*
X452820Y114244D02*
G03*
X452653Y115483I-11911J-980D01*
G01*
X450659Y114718D02*
G03*
X450578Y115147I-7988J-1281D01*
G01*
X452653Y115483D02*
G03*
X452373Y116576I-8639J-1629D01*
G01*
X450578Y115147D02*
G03*
X450480Y115544I-6503J-1406D01*
G01*
X450722Y114256D02*
G03*
X450659Y114718I-9740J-1091D01*
G01*
X275207Y111182D02*
G03*
X275221Y110332I43094J314D01*
G01*
X276825Y103162D02*
G03*
X278726Y101043I6131J3588D01*
G01*
X277304Y111542D02*
G03*
X277891Y106280I19442J-493D01*
G01*
X294335Y106292D02*
G03*
X294906Y111542I-19144J4737D01*
G01*
X296509Y106238D02*
G03*
X297004Y111458I-24318J4940D01*
G01*
X313834Y105311D02*
G03*
X313964Y102684I22855J-185D01*
G01*
X313964D02*
G03*
X314526Y100813I4827J430D01*
G01*
X315932Y105134D02*
G03*
X316116Y103154I8532J-203D01*
G01*
X327420Y115456D02*
G03*
X326300Y113946I7574J-6788D01*
G01*
X330416Y117718D02*
G03*
X328826Y116774I2982J-6834D01*
G01*
X336484Y104715D02*
G03*
X336966Y102403I5429J-73D01*
G01*
X338582Y104920D02*
G03*
X339992Y102143I3208J-119D01*
G01*
X342055Y101307D02*
G03*
X342472Y101238I1486J7617D01*
G01*
X341469Y117518D02*
G03*
X341142Y117369I1770J-4314D01*
G01*
X341877Y166801D02*
G03*
X341200Y165166I1635J-1635D01*
G01*
X343839Y165737D02*
G03*
X343216Y165479I0J-881D01*
G01*
X349831Y116333D02*
G03*
X348153Y117613I-3006J-2202D01*
G01*
X352408Y115792D02*
G03*
X351065Y118146I-5516J-1587D01*
G01*
X352827Y112679D02*
G03*
X352407Y115792I-10816J127D01*
G01*
X350716Y111978D02*
G03*
X350561Y114408I-17354J111D01*
G01*
X369200Y165632D02*
G03*
X369343Y166862I-860J724D01*
G01*
X384473Y105944D02*
G03*
X385879Y103280I7128J2057D01*
G01*
Y115973D02*
G03*
X384473Y113338I5493J-4623D01*
G01*
X395865Y103280D02*
G03*
X397283Y105944I-5824J4809D01*
G01*
X397283Y113338D02*
G03*
X395865Y115973I-7021J-2079D01*
G01*
X407135Y165166D02*
G03*
X406458Y166801I-2312J0D01*
G01*
X417193Y116774D02*
G03*
X415733Y117756I-2555J-2223D01*
G01*
X420344Y112859D02*
G03*
X420282Y114244I-14662J34D01*
G01*
X430163Y118507D02*
G03*
X428195Y116657I8167J-10657D01*
G01*
X437468Y116812D02*
G03*
X436209Y117769I-2225J-1621D01*
G01*
X438328Y112679D02*
G03*
X438135Y115133I-13447J178D01*
G01*
X449905Y116812D02*
G03*
X449238Y117454I-2075J-1489D01*
G01*
X452373Y116576D02*
G03*
X451981Y117524I-6276J-2042D01*
G01*
X452876Y112859D02*
G03*
X452820Y114244I-16273J44D01*
G01*
X450767Y113762D02*
G03*
X450722Y114256I-11785J-823D01*
G01*
X275298Y108592D02*
G03*
X275756Y105747I14659J897D01*
G01*
X277891Y106280D02*
G03*
X279612Y103112I7017J1759D01*
G01*
X292657Y103125D02*
G03*
X294335Y106292I-5491J4938D01*
G01*
X340810Y108617D02*
G03*
X338582Y104920I1833J-3625D01*
G01*
X440259Y116476D02*
G03*
X438249Y119246I-4899J-1441D01*
G01*
X382581Y114097D02*
G03*
X382581Y105168I15149J-4465D01*
G01*
X384473Y113338D02*
G03*
X384473Y105944I13553J-3697D01*
G01*
X397283D02*
G03*
X397283Y113338I-13091J3697D01*
G01*
X399276Y105181D02*
G03*
X399276Y114059I-15183J4439D01*
G01*
X278726Y101043D02*
G03*
X281739Y99608I5427J7514D01*
G01*
X281739Y99608D02*
G03*
X286103Y99080I4053J15182D01*
G01*
X279612Y103112D02*
G03*
X282377Y101559I4152J4156D01*
G01*
X289892Y101559D02*
G03*
X292657Y103125I-1291J5507D01*
G01*
X314526Y100813D02*
G03*
X315785Y99688I2292J1299D01*
G01*
X317560Y101501D02*
G03*
X318773Y101383I1144J5488D01*
G01*
X314468Y133075D02*
G03*
X316779Y130759I2316J0D01*
G01*
X315349Y167306D02*
G03*
X314726Y167048I0J-881D01*
G01*
X328826Y116774D02*
G03*
X327420Y115456I6031J-7843D01*
G01*
X331314Y120034D02*
G03*
X329737Y119556I1089J-6433D01*
G01*
X332141Y118079D02*
G03*
X330416Y117718I-7J-4267D01*
G01*
X340264Y99478D02*
G03*
X342740Y99080I2417J7124D01*
G01*
X346638Y99688D02*
G03*
X348631Y100645I-3751J10369D01*
G01*
X342740Y99080D02*
G03*
X344695Y99210I27J14350D01*
G01*
X345920Y101471D02*
G03*
X347813Y102311I-2914J9125D01*
G01*
X339992Y102143D02*
G03*
X340929Y101636I2642J3762D01*
G01*
X347578Y109909D02*
G03*
X345854Y109858I-44J-27294D01*
G01*
X344316Y109703D02*
G03*
X343616Y109586I2144J-15067D01*
G01*
X341279Y108863D02*
G03*
X340810Y108617I2693J-5711D01*
G01*
X345035Y111806D02*
G03*
X344058Y111672I2384J-21011D01*
G01*
X348321Y111978D02*
G03*
X347166Y111959I-14J-33969D01*
G01*
X350561Y114408D02*
G03*
X349831Y116333I-4306J-531D01*
G01*
X341142Y117369D02*
G03*
X340843Y117202I1808J-3591D01*
G01*
X351065Y118146D02*
G03*
X348665Y119632I-4262J-4205D01*
G01*
D02*
G03*
X345081Y120148I-3325J-10390D01*
G01*
X348153Y117613D02*
G03*
X345102Y118079I-2730J-7655D01*
G01*
X344338Y120135D02*
G03*
X343633Y120094I612J-16684D01*
G01*
X345102Y118079D02*
G03*
X344024Y118044I-27J-15758D01*
G01*
X341188Y119653D02*
G03*
X340670Y119473I2288J-7418D01*
G01*
X375359Y130759D02*
G03*
X376999Y131448I-8J2316D01*
G01*
X385879Y103280D02*
G03*
X388056Y101677I4375J3664D01*
G01*
X393687Y101677D02*
G03*
X395865Y103280I-2197J5266D01*
G01*
X394619Y119430D02*
G03*
X390884Y120148I-3613J-8727D01*
G01*
X410232Y117072D02*
G03*
X407039Y114227I8458J-12708D01*
G01*
X415733Y117756D02*
G03*
X413530Y118079I-2029J-6166D01*
G01*
X416357Y119856D02*
G03*
X414113Y120148I-2141J-7695D01*
G01*
X412565Y120018D02*
G03*
X410845Y119527I1211J-7502D01*
G01*
X405377Y164843D02*
G03*
X404500Y165724I-881J0D01*
G01*
X406458Y166801D02*
G03*
X404823Y167478I-1635J-1635D01*
G01*
X438135Y115133D02*
G03*
X437468Y116812I-4098J-657D01*
G01*
X438249Y119246D02*
G03*
X434892Y120148I-3161J-5065D01*
G01*
X434892Y120148D02*
G03*
X433474Y120034I40J-9428D01*
G01*
X431909Y119556D02*
G03*
X430163Y118507I3879J-8432D01*
G01*
X450480Y115544D02*
G03*
X450363Y115909I-5259J-1480D01*
G01*
X447270Y120148D02*
G03*
X445499Y119980I21J-9651D01*
G01*
X451981Y117524D02*
G03*
X450131Y119492I-4100J-2001D01*
G01*
X447581Y118020D02*
G03*
X447171Y118058I-771J-6123D01*
G01*
X445499Y119980D02*
G03*
X443687Y119401I1462J-7705D01*
G01*
X282377Y101559D02*
G03*
X286115Y101140I3576J15000D01*
G01*
X275756Y105747D02*
G03*
X276825Y103162I10215J2715D01*
G01*
X291440Y99919D02*
G03*
X294788Y102344I-2651J7184D01*
G01*
X336966Y102403D02*
G03*
X338284Y100615I4830J2181D01*
G01*
X338062Y117426D02*
G03*
X337614Y116580I4569J-2962D01*
G01*
X348631Y100645D02*
G03*
X350729Y102181I-7260J12120D01*
G01*
X343848Y101148D02*
G03*
X345920Y101471I28J6629D01*
G01*
X349441Y103460D02*
G03*
X350729Y104690I-9517J11262D01*
G01*
X341483Y111040D02*
G03*
X340744Y110754I3616J-10417D01*
G01*
X376586Y166801D02*
G03*
X375909Y165166I1635J-1635D01*
G01*
X366821Y165611D02*
G03*
X366611Y165737I-206J-105D01*
G01*
X384406Y101845D02*
G03*
X387234Y99789I5735J4915D01*
G01*
X382581Y105168D02*
G03*
X384406Y101845I9173J2875D01*
G01*
X388056Y117550D02*
G03*
X385879Y115973I2233J-5374D01*
G01*
X384393Y117395D02*
G03*
X382581Y114097I7107J-6053D01*
G01*
X390884Y101148D02*
G03*
X393687Y101677I93J7204D01*
G01*
X394623Y99789D02*
G03*
X397468Y101857I-3022J7146D01*
G01*
D02*
G03*
X399276Y105181I-7288J6120D01*
G01*
Y114059D02*
G03*
X397460Y117361I-8953J-2775D01*
G01*
X395865Y115973D02*
G03*
X393687Y117550I-4411J-3797D01*
G01*
X408990Y118469D02*
G03*
X407052Y116657I7641J-10114D01*
G01*
X413530Y118079D02*
G03*
X410232Y117072I37J-6025D01*
G01*
X418246Y112679D02*
G03*
X417999Y115096I-10489J147D01*
G01*
X434321Y118079D02*
G03*
X431191Y117059I46J-5455D01*
G01*
X441912Y118276D02*
G03*
X440258Y116476I5997J-7166D01*
G01*
X446737Y118071D02*
G03*
X443489Y117051I73J-5916D01*
G01*
X294788Y102344D02*
G03*
X296509Y106238I-7640J5702D01*
G01*
X387234Y119451D02*
G03*
X384393Y117395I2991J-7122D01*
G01*
X397460Y117361D02*
G03*
X394619Y119430I-5831J-5022D01*
G01*
X419784Y116576D02*
G03*
X417291Y119492I-4788J-1570D01*
G01*
X286103Y99080D02*
G03*
X291440Y99919I436J14616D01*
G01*
X387234Y99789D02*
G03*
X394623Y99789I3695J9368D01*
G01*
X393687Y117550D02*
G03*
X388056Y117550I-2816J-7234D01*
G01*
X390884Y120148D02*
G03*
X387234Y119451I-110J-9340D01*
G01*
X286115Y101140D02*
G03*
X289892Y101559I149J15864D01*
G01*
X328058Y118545D02*
G03*
X326300Y116866I6529J-8599D01*
G01*
X388056Y101677D02*
G03*
X390884Y101148I2724J6742D01*
G01*
X443489Y117051D02*
G03*
X440426Y114168I7365J-10894D01*
G01*
X431191Y117059D02*
G03*
X428195Y114177I8550J-11884D01*
G01*
X339442Y110065D02*
G03*
X336484Y104715I3074J-5192D01*
G01*
X275252Y109469D02*
X275298Y108592D01*
X275206Y111462D02*
X275207Y111182D01*
X311253Y117563D02*
Y119632D01*
X317963Y99310D02*
X318051Y99311D01*
X318139Y99311D01*
X318228Y99312D01*
X318317Y99313D02*
X318405Y99315D01*
X318494Y99318D01*
X318583Y99321D01*
X318848Y99336D02*
X318936Y99342D01*
X319113Y99356D01*
X319291Y99371D01*
X319468Y99387D01*
X319733Y99415D01*
X319490Y101386D02*
X319538Y101389D01*
X319443Y101385D02*
X319490Y101386D01*
X319398Y101384D02*
X319443Y101385D01*
X319353Y101383D02*
X319398Y101384D01*
X319268Y101383D02*
X319353Y101383D01*
X318773Y101383D02*
X319268D01*
X319243Y117567D02*
Y119636D01*
X332695Y120148D02*
X333085D01*
X333505Y120110D02*
X333526Y118029D01*
X333085Y120148D02*
X333505Y120110D01*
X332141Y118079D02*
X332900D01*
X350729Y99596D02*
X352827D01*
X418246D02*
X420344D01*
X438328Y99587D02*
X440426D01*
X450803Y99596D02*
X452901D01*
X313834Y119632D02*
Y124885D01*
X315932Y119636D02*
Y124885D01*
X319733Y99415D02*
X319738Y101408D01*
X350729Y99596D02*
Y102181D01*
X356721Y99596D02*
Y102336D01*
X358416Y125833D02*
Y127906D01*
X378674Y99596D02*
Y101664D01*
X378137Y125137D02*
Y127906D01*
X326300Y116866D02*
Y119632D01*
X350729Y104690D02*
Y109909D01*
X407039Y127906D02*
X407052Y116657D01*
X428195D02*
Y119632D01*
X275206Y111462D02*
Y127906D01*
X277304Y111542D02*
Y127906D01*
X294906Y111542D02*
Y127906D01*
X297004Y111458D02*
Y127906D01*
X304288Y99596D02*
Y127906D01*
X306386Y99596D02*
Y127906D01*
X314468Y133075D02*
Y166425D01*
X313834Y105311D02*
Y117563D01*
X316226Y133420D02*
Y166425D01*
X315932Y105134D02*
Y117567D01*
X324202Y99596D02*
Y119632D01*
X326300Y99596D02*
Y113946D01*
X342958Y142248D02*
Y164856D01*
X341200Y142248D02*
Y165166D01*
X352827Y99596D02*
Y112679D01*
X375909Y133398D02*
Y165166D01*
X377667Y133096D02*
Y164843D01*
X404941Y99596D02*
Y127906D01*
X407135Y133415D02*
Y165166D01*
X405377Y133075D02*
Y164843D01*
X407039Y99596D02*
Y114227D01*
X420344Y99596D02*
Y112859D01*
X418246Y99596D02*
Y112679D01*
X426097Y99596D02*
Y119632D01*
X428195Y99596D02*
Y114177D01*
X440426Y99587D02*
Y114168D01*
X438328Y99587D02*
Y112679D01*
X452876Y112859D02*
X452901Y99596D01*
X450803D02*
Y112679D01*
X275206Y127906D02*
X277304D01*
X294906D02*
X297004D01*
X304288Y99596D02*
X306386D01*
X304288Y127906D02*
X306386D01*
X324202Y99596D02*
X326300D01*
X318228Y99312D02*
X318317Y99313D01*
X315932Y119636D02*
X319243D01*
X315932Y117567D02*
X319243D01*
X324202Y119632D02*
X326300D01*
X313834Y124885D02*
X315932D01*
X337105Y114538D02*
X339165D01*
X347578Y109909D02*
X350729D01*
X348321Y111978D02*
X350716D01*
X404941Y99596D02*
X407039D01*
X404941Y127906D02*
X407039D01*
X426097Y99596D02*
X428195D01*
X426097Y119632D02*
X428195D01*
X311253D02*
X313834D01*
X311253Y117563D02*
X313834D01*
X317107Y132543D02*
X342463D01*
X316779Y130759D02*
X342463D01*
X358836Y101664D02*
X378674D01*
X378544Y165724D02*
X404500D01*
X378221Y167478D02*
X404823D01*
X358836Y101664D02*
X378137Y125137D01*
X356721Y99596D02*
X378674D01*
X358416Y125833D02*
X375989D01*
X358416Y127906D02*
X378137D01*
X352965Y132521D02*
X375028D01*
X352965Y130759D02*
X375359D01*
X408017Y132538D02*
X417105D01*
X407689Y130759D02*
X417105D01*
X343512Y167478D02*
X368268D01*
X343839Y165737D02*
X366611D01*
X344053Y131598D02*
X369200Y165632D01*
X342648Y132639D02*
X366800Y165368D01*
X356721Y102336D02*
X375989Y125833D01*
D12*
X488328Y338147D02*
X492327Y332149D01*
Y338147D02*
X488328Y332149D01*
X498325D02*
X494326D01*
X498325Y336147D01*
Y337147D01*
X497325Y338147D01*
X495326D01*
X494326Y337147D01*
M02*
